iA Writer Duospace-BoldItalic.ufo
<glyph name="percent" format="1">
  <advance width="900"/>
  <unicode hex="0025"/>
  <outline>
    <contour>
      <point x="688" y="698" type="line"/>
      <point x="124" y="0" type="line"/>
      <point x="248" y="0" type="line"/>
      <point x="812" y="698" type="line"/>
    </contour>
    <contour>
      <point x="227" y="314" type="curve"/>
      <point x="330" y="314"/>
      <point x="430" y="404"/>
      <point x="430" y="549" type="curve"/>
      <point x="430" y="657"/>
      <point x="369" y="710"/>
      <point x="275" y="710" type="curve"/>
      <point x="172" y="710"/>
      <point x="72" y="620"/>
      <point x="72" y="475" type="curve"/>
      <point x="72" y="367"/>
      <point x="133" y="314"/>
    </contour>
    <contour>
      <point x="233" y="398" type="curve"/>
      <point x="207" y="398"/>
      <point x="191" y="416"/>
      <point x="191" y="448" type="curve"/>
      <point x="191" y="459"/>
      <point x="193" y="473"/>
      <point x="196" y="488" type="curve"/>
      <point x="206" y="538" type="line" smooth="yes"/>
      <point x="218" y="598"/>
      <point x="235" y="626"/>
      <point x="269" y="626" type="curve"/>
      <point x="295" y="626"/>
      <point x="311" y="608"/>
      <point x="311" y="576" type="curve"/>
      <point x="311" y="565"/>
      <point x="309" y="551"/>
      <point x="306" y="536" type="curve"/>
      <point x="296" y="486" type="line" smooth="yes"/>
      <point x="284" y="426"/>
      <point x="267" y="398"/>
    </contour>
    <contour>
      <point x="661" y="-12" type="curve"/>
      <point x="764" y="-12"/>
      <point x="864" y="79"/>
      <point x="864" y="223" type="curve"/>
      <point x="864" y="331"/>
      <point x="803" y="384"/>
      <point x="709" y="384" type="curve"/>
      <point x="606" y="384"/>
      <point x="506" y="294"/>
      <point x="506" y="149" type="curve"/>
      <point x="506" y="41"/>
      <point x="567" y="-12"/>
    </contour>
    <contour>
      <point x="667" y="72" type="curve"/>
      <point x="641" y="72"/>
      <point x="625" y="90"/>
      <point x="625" y="122" type="curve"/>
      <point x="625" y="133"/>
      <point x="627" y="147"/>
      <point x="630" y="162" type="curve"/>
      <point x="640" y="212" type="line" smooth="yes"/>
      <point x="652" y="272"/>
      <point x="669" y="300"/>
      <point x="703" y="300" type="curve"/>
      <point x="729" y="300"/>
      <point x="745" y="282"/>
      <point x="745" y="250" type="curve"/>
      <point x="745" y="239"/>
      <point x="743" y="225"/>
      <point x="740" y="210" type="curve"/>
      <point x="730" y="160" type="line" smooth="yes"/>
      <point x="718" y="100"/>
      <point x="701" y="72"/>
    </contour>
  </outline>
</glyph>
<glyph name="quotesingle" format="1">
  <advance width="600"/>
  <unicode hex="0027"/>
  <outline>
    <contour>
      <point x="316" y="740" type="line"/>
      <point x="262" y="415" type="line"/>
      <point x="392" y="415" type="line"/>
      <point x="446" y="740" type="line"/>
    </contour>
  </outline>
</glyph>
<glyph name="comma" format="1">
  <advance width="600"/>
  <unicode hex="002C"/>
  <outline>
    <contour>
      <point x="398" y="173" type="line"/>
      <point x="211" y="173" type="line"/>
      <point x="102" y="-151" type="line"/>
      <point x="215" y="-151" type="line"/>
    </contour>
  </outline>
</glyph>
<glyph name="slash" format="1">
  <advance width="600"/>
  <unicode hex="002F"/>
  <outline>
    <contour>
      <point x="465" y="760" type="line"/>
      <point x="1" y="-138" type="line"/>
      <point x="135" y="-138" type="line"/>
      <point x="599" y="760" type="line"/>
    </contour>
  </outline>
</glyph>
<glyph name="one" format="1">
  <advance width="600"/>
  <unicode hex="0031"/>
  <outline>
    <contour>
      <point x="55" y="120" type="line"/>
      <point x="35" y="0" type="line"/>
      <point x="519" y="0" type="line"/>
      <point x="539" y="120" type="line"/>
      <point x="379" y="120" type="line"/>
      <point x="475" y="698" type="line"/>
      <point x="320" y="698" type="line"/>
      <point x="90" y="582" type="line"/>
      <point x="138" y="471" type="line"/>
      <point x="304" y="557" type="line"/>
      <point x="231" y="120" type="line"/>
    </contour>
  </outline>
</glyph>
<glyph name="nine" format="1">
  <advance width="600"/>
  <unicode hex="0039"/>
  <outline>
    <contour>
      <point x="592" y="474" type="curve"/>
      <point x="592" y="618"/>
      <point x="508" y="710"/>
      <point x="354" y="710" type="curve"/>
      <point x="166" y="710"/>
      <point x="63" y="582"/>
      <point x="63" y="440" type="curve"/>
      <point x="63" y="325"/>
      <point x="131" y="248"/>
      <point x="239" y="248" type="curve"/>
      <point x="328" y="248"/>
      <point x="376" y="300"/>
      <point x="411" y="353" type="curve"/>
      <point x="419" y="350" type="line"/>
      <point x="367" y="215"/>
      <point x="248" y="116"/>
      <point x="60" y="0" type="curve"/>
      <point x="271" y="0" type="line"/>
      <point x="435" y="94"/>
      <point x="592" y="271"/>
    </contour>
    <contour>
      <point x="317" y="362" type="curve"/>
      <point x="253" y="362"/>
      <point x="218" y="394"/>
      <point x="218" y="458" type="curve"/>
      <point x="218" y="467"/>
      <point x="219" y="479"/>
      <point x="221" y="491" type="curve"/>
      <point x="232" y="557"/>
      <point x="276" y="594"/>
      <point x="343" y="594" type="curve"/>
      <point x="407" y="594"/>
      <point x="442" y="562"/>
      <point x="442" y="498" type="curve"/>
      <point x="442" y="489"/>
      <point x="441" y="477"/>
      <point x="439" y="465" type="curve"/>
      <point x="428" y="399"/>
      <point x="384" y="362"/>
    </contour>
  </outline>
</glyph>
<glyph name="colon" format="1">
  <advance width="600"/>
  <unicode hex="003A"/>
  <outline>
    <contour>
      <point x="310" y="329" type="curve"/>
      <point x="383" y="329"/>
      <point x="418" y="367"/>
      <point x="425" y="409" type="curve"/>
      <point x="429" y="433"/>
      <point x="431" y="449"/>
      <point x="431" y="460" type="curve"/>
      <point x="431" y="497"/>
      <point x="405" y="527"/>
      <point x="339" y="527" type="curve"/>
      <point x="266" y="527"/>
      <point x="231" y="489"/>
      <point x="224" y="447" type="curve"/>
      <point x="220" y="423"/>
      <point x="218" y="407"/>
      <point x="218" y="396" type="curve"/>
      <point x="218" y="359"/>
      <point x="244" y="329"/>
    </contour>
    <contour>
      <point x="255" y="-12" type="curve"/>
      <point x="328" y="-12"/>
      <point x="363" y="26"/>
      <point x="370" y="68" type="curve"/>
      <point x="374" y="92"/>
      <point x="376" y="108"/>
      <point x="376" y="119" type="curve"/>
      <point x="376" y="156"/>
      <point x="350" y="186"/>
      <point x="284" y="186" type="curve"/>
      <point x="211" y="186"/>
      <point x="176" y="148"/>
      <point x="169" y="106" type="curve"/>
      <point x="165" y="82"/>
      <point x="163" y="66"/>
      <point x="163" y="55" type="curve"/>
      <point x="163" y="18"/>
      <point x="189" y="-12"/>
    </contour>
  </outline>
</glyph>
<glyph name="equal" format="1">
  <advance width="600"/>
  <unicode hex="003D"/>
  <outline>
    <contour>
      <point x="100" y="478" type="line"/>
      <point x="80" y="362" type="line"/>
      <point x="556" y="362" type="line"/>
      <point x="576" y="478" type="line"/>
    </contour>
    <contour>
      <point x="62" y="248" type="line"/>
      <point x="42" y="132" type="line"/>
      <point x="518" y="132" type="line"/>
      <point x="538" y="248" type="line"/>
    </contour>
  </outline>
</glyph>
<glyph name="greater" format="1">
  <advance width="600"/>
  <unicode hex="003E"/>
  <outline>
    <contour>
      <point x="393" y="308" type="line"/>
      <point x="69" y="151" type="line"/>
      <point x="45" y="6" type="line"/>
      <point x="514" y="237" type="line"/>
      <point x="537" y="375" type="line"/>
      <point x="144" y="604" type="line"/>
      <point x="122" y="473" type="line"/>
      <point x="394" y="316" type="line"/>
    </contour>
  </outline>
</glyph>
<glyph name="D" format="1">
  <advance width="600"/>
  <unicode hex="0044"/>
  <outline>
    <contour>
      <point x="347" y="698" type="curve"/>
      <point x="142" y="698" type="line"/>
      <point x="25" y="0" type="line"/>
      <point x="252" y="0" type="line" smooth="yes"/>
      <point x="469" y="0"/>
      <point x="588" y="166"/>
      <point x="588" y="441" type="curve"/>
      <point x="588" y="606"/>
      <point x="503" y="698"/>
    </contour>
    <contour>
      <point x="255" y="117" type="curve"/>
      <point x="192" y="117" type="line"/>
      <point x="269" y="581" type="line"/>
      <point x="334" y="581" type="line" smooth="yes"/>
      <point x="405" y="581"/>
      <point x="439" y="545"/>
      <point x="439" y="469" type="curve"/>
      <point x="439" y="450"/>
      <point x="437" y="425"/>
      <point x="433" y="401" type="curve"/>
      <point x="412" y="275" type="line" smooth="yes"/>
      <point x="394" y="167"/>
      <point x="344" y="117"/>
    </contour>
  </outline>
</glyph>
<glyph name="T" format="1">
  <advance width="600"/>
  <unicode hex="0054"/>
  <outline>
    <contour>
      <point x="331" y="0" type="line"/>
      <point x="427" y="576" type="line"/>
      <point x="629" y="576" type="line"/>
      <point x="649" y="698" type="line"/>
      <point x="97" y="698" type="line"/>
      <point x="77" y="576" type="line"/>
      <point x="279" y="576" type="line"/>
      <point x="183" y="0" type="line"/>
    </contour>
  </outline>
</glyph>
<glyph name="V" format="1">
  <advance width="600"/>
  <unicode hex="0056"/>
  <outline>
    <contour>
      <point x="85" y="698" type="line"/>
      <point x="152" y="0" type="line"/>
      <point x="363" y="0" type="line"/>
      <point x="661" y="698" type="line"/>
      <point x="499" y="698" type="line"/>
      <point x="363" y="347" type="line"/>
      <point x="285" y="142" type="line"/>
      <point x="276" y="142" type="line"/>
      <point x="267" y="347" type="line"/>
      <point x="243" y="698" type="line"/>
    </contour>
  </outline>
</glyph>
<glyph name="X" format="1">
  <advance width="600"/>
  <unicode hex="0058"/>
  <outline>
    <contour>
      <point x="385" y="0" type="line"/>
      <point x="550" y="0" type="line"/>
      <point x="413" y="359" type="line"/>
      <point x="650" y="698" type="line"/>
      <point x="488" y="698" type="line"/>
      <point x="410" y="587" type="line"/>
      <point x="340" y="475" type="line"/>
      <point x="332" y="475" type="line"/>
      <point x="299" y="587" type="line"/>
      <point x="260" y="698" type="line"/>
      <point x="94" y="698" type="line"/>
      <point x="223" y="361" type="line"/>
      <point x="-33" y="0" type="line"/>
      <point x="130" y="0" type="line"/>
      <point x="227" y="139" type="line"/>
      <point x="293" y="249" type="line"/>
      <point x="302" y="249" type="line"/>
      <point x="336" y="139" type="line"/>
    </contour>
  </outline>
</glyph>
<glyph name="Z" format="1">
  <advance width="600"/>
  <unicode hex="005A"/>
  <outline>
    <contour>
      <point x="8" y="0" type="line"/>
      <point x="507" y="0" type="line"/>
      <point x="527" y="122" type="line"/>
      <point x="204" y="122" type="line"/>
      <point x="591" y="568" type="line"/>
      <point x="612" y="698" type="line"/>
      <point x="133" y="698" type="line"/>
      <point x="113" y="576" type="line"/>
      <point x="417" y="576" type="line"/>
      <point x="30" y="130" type="line"/>
    </contour>
  </outline>
</glyph>
<glyph name="underscore" format="1">
  <advance width="600"/>
  <unicode hex="005F"/>
  <outline>
    <contour>
      <point x="8" y="-72" type="line"/>
      <point x="-12" y="-191" type="line"/>
      <point x="463" y="-191" type="line"/>
      <point x="483" y="-72" type="line"/>
    </contour>
  </outline>
</glyph>
<glyph name="b" format="1">
  <advance width="600"/>
  <unicode hex="0062"/>
  <outline>
    <contour>
      <point x="290" y="740" type="line"/>
      <point x="144" y="740" type="line"/>
      <point x="21" y="0" type="line"/>
      <point x="167" y="0" type="line"/>
      <point x="183" y="96" type="line"/>
      <point x="190" y="96" type="line"/>
      <point x="205" y="28"/>
      <point x="244" y="-12"/>
      <point x="325" y="-12" type="curve"/>
      <point x="468" y="-12"/>
      <point x="562" y="123"/>
      <point x="562" y="328" type="curve"/>
      <point x="562" y="449"/>
      <point x="520" y="528"/>
      <point x="411" y="528" type="curve"/>
      <point x="323" y="528"/>
      <point x="277" y="472"/>
      <point x="238" y="393" type="curve"/>
      <point x="233" y="393" type="line"/>
    </contour>
    <contour>
      <point x="278" y="101" type="curve"/>
      <point x="215" y="101"/>
      <point x="189" y="132"/>
      <point x="198" y="186" type="curve"/>
      <point x="212" y="269" type="line" smooth="yes"/>
      <point x="219" y="312"/>
      <point x="243" y="347"/>
      <point x="259" y="366" type="curve"/>
      <point x="283" y="396"/>
      <point x="310" y="415"/>
      <point x="346" y="415" type="curve"/>
      <point x="396" y="415"/>
      <point x="413" y="377"/>
      <point x="414" y="328" type="curve"/>
      <point x="414" y="311"/>
      <point x="412" y="295"/>
      <point x="410" y="283" type="curve"/>
      <point x="400" y="223" type="line" smooth="yes"/>
      <point x="387" y="145"/>
      <point x="350" y="101"/>
    </contour>
  </outline>
</glyph>
<glyph name="j" format="1">
  <advance width="600"/>
  <unicode hex="006A"/>
  <outline>
    <contour>
      <point x="216" y="-212" type="curve"/>
      <point x="312" y="-212"/>
      <point x="365" y="-162"/>
      <point x="386" y="-37" type="curve"/>
      <point x="478" y="516" type="line"/>
      <point x="143" y="516" type="line"/>
      <point x="124" y="402" type="line"/>
      <point x="313" y="402" type="line"/>
      <point x="230" y="-96" type="line"/>
      <point x="217" y="-101" type="line"/>
      <point x="104" y="54" type="line"/>
      <point x="4" y="-15" type="line"/>
      <point x="36" y="-65" type="line" smooth="yes"/>
      <point x="97" y="-160"/>
      <point x="137" y="-212"/>
    </contour>
    <contour>
      <point x="422" y="584" type="curve"/>
      <point x="482" y="584"/>
      <point x="509" y="608"/>
      <point x="516" y="650" type="curve"/>
      <point x="520" y="674"/>
      <point x="521" y="683"/>
      <point x="521" y="690" type="curve"/>
      <point x="521" y="725"/>
      <point x="499" y="751"/>
      <point x="439" y="751" type="curve"/>
      <point x="379" y="751"/>
      <point x="352" y="727"/>
      <point x="345" y="685" type="curve"/>
      <point x="341" y="661"/>
      <point x="340" y="652"/>
      <point x="340" y="645" type="curve"/>
      <point x="340" y="610"/>
      <point x="362" y="584"/>
    </contour>
  </outline>
</glyph>
<glyph name="u" format="1">
  <advance width="600"/>
  <unicode hex="0075"/>
  <outline>
    <contour>
      <point x="357" y="123" type="curve"/>
      <point x="362" y="123" type="line"/>
      <point x="342" y="0" type="line"/>
      <point x="488" y="0" type="line"/>
      <point x="574" y="516" type="line"/>
      <point x="428" y="516" type="line"/>
      <point x="383" y="247" type="line" smooth="yes"/>
      <point x="376" y="205"/>
      <point x="351" y="167"/>
      <point x="336" y="147" type="curve"/>
      <point x="313" y="117"/>
      <point x="289" y="100"/>
      <point x="255" y="100" type="curve"/>
      <point x="210" y="100"/>
      <point x="195" y="134"/>
      <point x="195" y="161" type="curve"/>
      <point x="195" y="186"/>
      <point x="199" y="206"/>
      <point x="202" y="224" type="curve"/>
      <point x="251" y="516" type="line"/>
      <point x="105" y="516" type="line"/>
      <point x="59" y="241" type="line" smooth="yes"/>
      <point x="51" y="193"/>
      <point x="48" y="166"/>
      <point x="48" y="137" type="curve"/>
      <point x="48" y="57"/>
      <point x="88" y="-12"/>
      <point x="189" y="-12" type="curve"/>
      <point x="271" y="-12"/>
      <point x="318" y="39"/>
    </contour>
  </outline>
</glyph>
<glyph name="v" format="1">
  <advance width="600"/>
  <unicode hex="0076"/>
  <outline>
    <contour>
      <point x="221" y="96" type="line"/>
      <point x="286" y="516" type="line"/>
      <point x="55" y="516" type="line"/>
      <point x="36" y="402" type="line"/>
      <point x="125" y="402" type="line"/>
      <point x="90" y="172" type="line" smooth="yes"/>
      <point x="86" y="147"/>
      <point x="84" y="133"/>
      <point x="84" y="111" type="curve"/>
      <point x="84" y="36"/>
      <point x="126" y="-12"/>
      <point x="211" y="-12" type="curve"/>
      <point x="385" y="-12"/>
      <point x="553" y="146"/>
      <point x="553" y="350" type="curve"/>
      <point x="553" y="423"/>
      <point x="536" y="486"/>
      <point x="502" y="528" type="curve"/>
      <point x="372" y="480" type="line"/>
      <point x="393" y="441"/>
      <point x="406" y="395"/>
      <point x="406" y="350" type="curve"/>
      <point x="406" y="242"/>
      <point x="360" y="133"/>
      <point x="233" y="88" type="curve"/>
    </contour>
  </outline>
</glyph>
<glyph name="w" format="1">
  <advance width="900"/>
  <unicode hex="0077"/>
  <outline>
    <contour>
      <point x="227" y="525" type="line"/>
      <point x="88" y="525" type="line"/>
      <point x="128" y="0" type="line"/>
      <point x="277" y="0" type="line"/>
      <point x="446" y="349" type="line"/>
      <point x="452" y="349" type="line"/>
      <point x="510" y="0" type="line"/>
      <point x="657" y="0" type="line"/>
      <point x="897" y="525" type="line"/>
      <point x="759" y="525" type="line"/>
      <point x="607" y="150" type="line"/>
      <point x="601" y="150" type="line"/>
      <point x="546" y="525" type="line"/>
      <point x="416" y="525" type="line"/>
      <point x="243" y="157" type="line"/>
      <point x="237" y="157" type="line"/>
    </contour>
  </outline>
</glyph>
<glyph name="brokenbar" format="1">
  <advance width="600"/>
  <unicode hex="00A6"/>
  <outline>
    <contour>
      <point x="323" y="760" type="line"/>
      <point x="263" y="400" type="line"/>
      <point x="387" y="400" type="line"/>
      <point x="447" y="760" type="line"/>
    </contour>
    <contour>
      <point x="233" y="221" type="line"/>
      <point x="173" y="-138" type="line"/>
      <point x="297" y="-138" type="line"/>
      <point x="357" y="221" type="line"/>
    </contour>
  </outline>
</glyph>
<glyph name="dieresis" format="1">
  <advance width="600"/>
  <unicode hex="00A8"/>
  <outline>
    <contour>
      <point x="248" y="592" type="curve"/>
      <point x="306" y="592"/>
      <point x="327" y="616"/>
      <point x="333" y="652" type="curve"/>
      <point x="336" y="670"/>
      <point x="338" y="681"/>
      <point x="338" y="687" type="curve"/>
      <point x="338" y="718"/>
      <point x="318" y="741"/>
      <point x="264" y="741" type="curve"/>
      <point x="206" y="741"/>
      <point x="185" y="717"/>
      <point x="179" y="681" type="curve"/>
      <point x="176" y="663"/>
      <point x="174" y="652"/>
      <point x="174" y="646" type="curve"/>
      <point x="174" y="615"/>
      <point x="194" y="592"/>
    </contour>
    <contour>
      <point x="466" y="592" type="curve"/>
      <point x="524" y="592"/>
      <point x="545" y="616"/>
      <point x="551" y="652" type="curve"/>
      <point x="554" y="670"/>
      <point x="556" y="681"/>
      <point x="556" y="687" type="curve"/>
      <point x="556" y="718"/>
      <point x="536" y="741"/>
      <point x="482" y="741" type="curve"/>
      <point x="424" y="741"/>
      <point x="403" y="717"/>
      <point x="397" y="681" type="curve"/>
      <point x="394" y="663"/>
      <point x="392" y="652"/>
      <point x="392" y="646" type="curve"/>
      <point x="392" y="615"/>
      <point x="412" y="592"/>
    </contour>
    <contour>
      <point x="327" y="522" type="move" name="_top"/>
    </contour>
  </outline>
</glyph>
<glyph name="copyright" format="1">
  <advance width="900"/>
  <unicode hex="00A9"/>
  <outline>
    <contour>
      <point x="409" y="-12" type="curve"/>
      <point x="634" y="-12"/>
      <point x="803" y="166"/>
      <point x="803" y="405" type="curve"/>
      <point x="803" y="585"/>
      <point x="687" y="710"/>
      <point x="512" y="710" type="curve"/>
      <point x="287" y="710"/>
      <point x="118" y="532"/>
      <point x="118" y="293" type="curve"/>
      <point x="118" y="113"/>
      <point x="234" y="-12"/>
    </contour>
    <contour>
      <point x="413" y="51" type="curve"/>
      <point x="283" y="51"/>
      <point x="190" y="145"/>
      <point x="190" y="293" type="curve"/>
      <point x="190" y="318"/>
      <point x="196" y="358"/>
      <point x="205" y="401" type="curve"/>
      <point x="233" y="537"/>
      <point x="359" y="647"/>
      <point x="508" y="647" type="curve"/>
      <point x="638" y="647"/>
      <point x="731" y="553"/>
      <point x="731" y="405" type="curve"/>
      <point x="731" y="380"/>
      <point x="725" y="340"/>
      <point x="716" y="297" type="curve"/>
      <point x="688" y="161"/>
      <point x="562" y="51"/>
    </contour>
    <contour>
      <point x="442" y="134" type="curve"/>
      <point x="538" y="134"/>
      <point x="596" y="186"/>
      <point x="630" y="244" type="curve"/>
      <point x="540" y="290" type="line"/>
      <point x="520" y="259"/>
      <point x="495" y="234"/>
      <point x="458" y="234" type="curve"/>
      <point x="416" y="234"/>
      <point x="393" y="258"/>
      <point x="393" y="292" type="curve"/>
      <point x="393" y="300"/>
      <point x="393" y="307"/>
      <point x="395" y="317" type="curve"/>
      <point x="410" y="394" type="line" smooth="yes"/>
      <point x="418" y="434"/>
      <point x="445" y="463"/>
      <point x="490" y="463" type="curve"/>
      <point x="529" y="463"/>
      <point x="548" y="440"/>
      <point x="556" y="406" type="curve"/>
      <point x="655" y="450" type="line"/>
      <point x="634" y="516"/>
      <point x="589" y="564"/>
      <point x="489" y="564" type="curve"/>
      <point x="361" y="564"/>
      <point x="264" y="444"/>
      <point x="264" y="313" type="curve"/>
      <point x="264" y="205"/>
      <point x="335" y="134"/>
    </contour>
  </outline>
</glyph>
<glyph name="ordfeminine" format="1">
  <advance width="600"/>
  <unicode hex="00AA"/>
  <outline>
    <contour>
      <point x="376" y="404" type="line"/>
      <point x="366" y="341" type="line"/>
      <point x="462" y="341" type="line"/>
      <point x="500" y="569" type="line" smooth="yes"/>
      <point x="502" y="581"/>
      <point x="502" y="591"/>
      <point x="502" y="600" type="curve"/>
      <point x="502" y="673"/>
      <point x="443" y="710"/>
      <point x="356" y="710" type="curve"/>
      <point x="275" y="710"/>
      <point x="228" y="681"/>
      <point x="200" y="645" type="curve"/>
      <point x="248" y="590" type="line"/>
      <point x="272" y="616"/>
      <point x="297" y="635"/>
      <point x="339" y="635" type="curve"/>
      <point x="376" y="635"/>
      <point x="399" y="619"/>
      <point x="399" y="588" type="curve"/>
      <point x="399" y="582"/>
      <point x="398" y="575"/>
      <point x="397" y="569" type="curve"/>
      <point x="394" y="551" type="line"/>
      <point x="337" y="551" type="line" smooth="yes"/>
      <point x="219" y="551"/>
      <point x="155" y="509"/>
      <point x="155" y="425" type="curve"/>
      <point x="155" y="367"/>
      <point x="199" y="333"/>
      <point x="263" y="333" type="curve"/>
      <point x="313" y="333"/>
      <point x="347" y="358"/>
      <point x="368" y="404" type="curve"/>
    </contour>
    <contour>
      <point x="331" y="495" type="curve"/>
      <point x="385" y="495" type="line"/>
      <point x="378" y="452" type="line" smooth="yes"/>
      <point x="372" y="418"/>
      <point x="342" y="400"/>
      <point x="306" y="400" type="curve"/>
      <point x="275" y="400"/>
      <point x="256" y="412"/>
      <point x="256" y="434" type="curve"/>
      <point x="256" y="437"/>
      <point x="256" y="442"/>
      <point x="258" y="452" type="curve"/>
      <point x="262" y="480"/>
      <point x="289" y="495"/>
    </contour>
  </outline>
</glyph>
<glyph name="guillemotleft" format="1">
  <advance width="600"/>
  <unicode hex="00AB"/>
  <outline>
    <contour>
      <point x="294" y="211" type="line"/>
      <point x="464" y="43" type="line"/>
      <point x="523" y="130" type="line"/>
      <point x="417" y="268" type="line"/>
      <point x="569" y="409" type="line"/>
      <point x="530" y="501" type="line"/>
      <point x="316" y="341" type="line"/>
    </contour>
    <contour>
      <point x="50" y="211" type="line"/>
      <point x="220" y="43" type="line"/>
      <point x="279" y="130" type="line"/>
      <point x="173" y="268" type="line"/>
      <point x="325" y="409" type="line"/>
      <point x="286" y="501" type="line"/>
      <point x="72" y="341" type="line"/>
    </contour>
  </outline>
</glyph>
<glyph name="logicalnot" format="1">
  <advance width="600"/>
  <unicode hex="00AC"/>
  <outline>
    <contour>
      <point x="402" y="247" type="line"/>
      <point x="370" y="55" type="line"/>
      <point x="489" y="55" type="line"/>
      <point x="541" y="363" type="line"/>
      <point x="81" y="363" type="line"/>
      <point x="61" y="247" type="line"/>
    </contour>
  </outline>
</glyph>
<glyph name="macron" format="1">
  <advance width="600"/>
  <unicode hex="00AF"/>
  <outline>
    <contour>
      <point x="164" y="616" type="line"/>
      <point x="469" y="616" type="line"/>
      <point x="486" y="718" type="line"/>
      <point x="181" y="718" type="line"/>
    </contour>
  </outline>
</glyph>
<glyph name="degree" format="1">
  <advance width="600"/>
  <unicode hex="00B0"/>
  <outline>
    <contour>
      <point x="326" y="335" type="curve"/>
      <point x="443" y="335"/>
      <point x="537" y="422"/>
      <point x="537" y="540" type="curve"/>
      <point x="537" y="637"/>
      <point x="469" y="710"/>
      <point x="367" y="710" type="curve"/>
      <point x="250" y="710"/>
      <point x="156" y="623"/>
      <point x="156" y="505" type="curve"/>
      <point x="156" y="408"/>
      <point x="224" y="335"/>
    </contour>
    <contour>
      <point x="334" y="428" type="curve"/>
      <point x="288" y="428"/>
      <point x="258" y="463"/>
      <point x="258" y="506" type="curve"/>
      <point x="258" y="566"/>
      <point x="297" y="617"/>
      <point x="359" y="617" type="curve"/>
      <point x="405" y="617"/>
      <point x="435" y="582"/>
      <point x="435" y="539" type="curve"/>
      <point x="435" y="479"/>
      <point x="396" y="428"/>
    </contour>
  </outline>
</glyph>
<glyph name="uni00B3" format="1">
  <advance width="600"/>
  <unicode hex="00B3"/>
  <outline>
    <contour>
      <point x="327" y="556" type="curve"/>
      <point x="292" y="556" type="line"/>
      <point x="279" y="479" type="line"/>
      <point x="319" y="479" type="line" smooth="yes"/>
      <point x="351" y="479"/>
      <point x="368" y="469"/>
      <point x="368" y="449" type="curve"/>
      <point x="368" y="445"/>
      <point x="367" y="441"/>
      <point x="366" y="435" type="curve"/>
      <point x="362" y="411"/>
      <point x="338" y="399"/>
      <point x="310" y="399" type="curve"/>
      <point x="272" y="399"/>
      <point x="251" y="418"/>
      <point x="239" y="445" type="curve"/>
      <point x="171" y="396" type="line"/>
      <point x="190" y="355"/>
      <point x="231" y="323"/>
      <point x="311" y="323" type="curve"/>
      <point x="412" y="323"/>
      <point x="470" y="375"/>
      <point x="470" y="441" type="curve"/>
      <point x="470" y="482"/>
      <point x="448" y="510"/>
      <point x="403" y="520" type="curve"/>
      <point x="403" y="522" type="line"/>
      <point x="464" y="533"/>
      <point x="490" y="569"/>
      <point x="490" y="610" type="curve"/>
      <point x="490" y="667"/>
      <point x="441" y="704"/>
      <point x="357" y="704" type="curve"/>
      <point x="292" y="704"/>
      <point x="251" y="682"/>
      <point x="215" y="645" type="curve"/>
      <point x="269" y="585" type="line"/>
      <point x="294" y="616"/>
      <point x="318" y="628"/>
      <point x="345" y="628" type="curve"/>
      <point x="372" y="628"/>
      <point x="390" y="617"/>
      <point x="390" y="598" type="curve"/>
      <point x="390" y="594"/>
      <point x="389" y="590"/>
      <point x="388" y="584" type="curve"/>
      <point x="386" y="572"/>
      <point x="370" y="556"/>
    </contour>
  </outline>
</glyph>
<glyph name="uni00B9" format="1">
  <advance width="600"/>
  <unicode hex="00B9"/>
  <outline>
    <contour>
      <point x="217" y="405" type="line"/>
      <point x="204" y="329" type="line"/>
      <point x="454" y="329" type="line"/>
      <point x="467" y="405" type="line"/>
      <point x="395" y="405" type="line"/>
      <point x="444" y="698" type="line"/>
      <point x="343" y="698" type="line"/>
      <point x="223" y="641" type="line"/>
      <point x="253" y="570" type="line"/>
      <point x="332" y="608" type="line"/>
      <point x="298" y="405" type="line"/>
    </contour>
  </outline>
</glyph>
<glyph name="onehalf" format="1">
  <advance width="600"/>
  <unicode hex="00BD"/>
  <outline>
    <contour>
      <point x="411" y="155" type="curve"/>
      <point x="291" y="75" type="line"/>
      <point x="279" y="0" type="line"/>
      <point x="541" y="0" type="line"/>
      <point x="552" y="67" type="line"/>
      <point x="386" y="67" type="line"/>
      <point x="449" y="106" type="line" smooth="yes"/>
      <point x="504" y="140"/>
      <point x="576" y="180"/>
      <point x="576" y="248" type="curve"/>
      <point x="576" y="300"/>
      <point x="533" y="341"/>
      <point x="454" y="341" type="curve"/>
      <point x="376" y="341"/>
      <point x="334" y="302"/>
      <point x="312" y="254" type="curve"/>
      <point x="380" y="224" type="line"/>
      <point x="395" y="251"/>
      <point x="416" y="273"/>
      <point x="445" y="273" type="curve"/>
      <point x="466" y="273"/>
      <point x="485" y="261"/>
      <point x="485" y="242" type="curve"/>
      <point x="485" y="240"/>
      <point x="485" y="236"/>
      <point x="484" y="230" type="curve"/>
      <point x="481" y="212"/>
      <point x="465" y="191"/>
    </contour>
    <contour>
      <point x="674" y="698" type="line"/>
      <point x="568" y="698" type="line"/>
      <point x="345" y="398" type="line"/>
      <point x="451" y="398" type="line"/>
    </contour>
    <contour>
      <point x="287" y="300" type="line"/>
      <point x="181" y="300" type="line"/>
      <point x="-42" y="0" type="line"/>
      <point x="64" y="0" type="line"/>
    </contour>
    <contour>
      <point x="150" y="432" type="line"/>
      <point x="64" y="432" type="line"/>
      <point x="53" y="363" type="line"/>
      <point x="302" y="363" type="line"/>
      <point x="313" y="432" type="line"/>
      <point x="238" y="432" type="line"/>
      <point x="282" y="698" type="line"/>
      <point x="188" y="698" type="line"/>
      <point x="77" y="645" type="line"/>
      <point x="99" y="585" type="line"/>
      <point x="182" y="624" type="line"/>
    </contour>
  </outline>
</glyph>
<glyph name="Aacute" format="1">
  <advance width="600"/>
  <unicode hex="00C1"/>
  <outline>
    <contour>
      <point x="305" y="786" type="line"/>
      <point x="391" y="740" type="line"/>
      <point x="534" y="916" type="line"/>
      <point x="420" y="976" type="line"/>
    </contour>
    <contour>
      <point x="383" y="169" type="line"/>
      <point x="400" y="0" type="line"/>
      <point x="552" y="0" type="line"/>
      <point x="476" y="698" type="line"/>
      <point x="270" y="698" type="line"/>
      <point x="-37" y="0" type="line"/>
      <point x="118" y="0" type="line"/>
      <point x="187" y="169" type="line"/>
    </contour>
    <contour>
      <point x="347" y="553" type="line"/>
      <point x="356" y="553" type="line"/>
      <point x="377" y="289" type="line"/>
      <point x="237" y="289" type="line"/>
    </contour>
  </outline>
</glyph>
<glyph name="Aring" format="1">
  <advance width="600"/>
  <unicode hex="00C5"/>
  <outline>
    <contour>
      <point x="377" y="720" type="curve"/>
      <point x="469" y="720"/>
      <point x="545" y="786"/>
      <point x="545" y="880" type="curve"/>
      <point x="545" y="950"/>
      <point x="488" y="1004"/>
      <point x="415" y="1004" type="curve"/>
      <point x="323" y="1004"/>
      <point x="247" y="938"/>
      <point x="247" y="844" type="curve"/>
      <point x="247" y="774"/>
      <point x="304" y="720"/>
    </contour>
    <contour>
      <point x="385" y="794" type="curve"/>
      <point x="356" y="794"/>
      <point x="342" y="809"/>
      <point x="342" y="834" type="curve"/>
      <point x="342" y="844"/>
      <point x="344" y="855"/>
      <point x="348" y="879" type="curve"/>
      <point x="353" y="909"/>
      <point x="373" y="930"/>
      <point x="407" y="930" type="curve"/>
      <point x="436" y="930"/>
      <point x="450" y="915"/>
      <point x="450" y="890" type="curve"/>
      <point x="450" y="880"/>
      <point x="448" y="869"/>
      <point x="444" y="845" type="curve"/>
      <point x="439" y="815"/>
      <point x="419" y="794"/>
    </contour>
    <contour>
      <point x="383" y="169" type="line"/>
      <point x="400" y="0" type="line"/>
      <point x="552" y="0" type="line"/>
      <point x="476" y="698" type="line"/>
      <point x="270" y="698" type="line"/>
      <point x="-37" y="0" type="line"/>
      <point x="118" y="0" type="line"/>
      <point x="187" y="169" type="line"/>
    </contour>
    <contour>
      <point x="347" y="553" type="line"/>
      <point x="356" y="553" type="line"/>
      <point x="377" y="289" type="line"/>
      <point x="237" y="289" type="line"/>
    </contour>
  </outline>
</glyph>
<glyph name="AE" format="1">
  <advance width="900"/>
  <unicode hex="00C6"/>
  <outline>
    <contour>
      <point x="221" y="169" type="line"/>
      <point x="418" y="169" type="line"/>
      <point x="384" y="0" type="line"/>
      <point x="803" y="0" type="line"/>
      <point x="829" y="128" type="line"/>
      <point x="555" y="128" type="line"/>
      <point x="587" y="289" type="line"/>
      <point x="815" y="289" type="line"/>
      <point x="841" y="417" type="line"/>
      <point x="613" y="417" type="line"/>
      <point x="644" y="570" type="line"/>
      <point x="907" y="570" type="line"/>
      <point x="933" y="698" type="line"/>
      <point x="408" y="698" type="line"/>
      <point x="-36" y="0" type="line"/>
      <point x="120" y="0" type="line"/>
    </contour>
    <contour>
      <point x="298" y="291" type="line"/>
      <point x="469" y="570" type="line"/>
      <point x="498" y="570" type="line"/>
      <point x="442" y="291" type="line"/>
    </contour>
  </outline>
</glyph>
<glyph name="Edieresis" format="1">
  <advance width="600"/>
  <unicode hex="00CB"/>
  <outline>
    <contour>
      <point x="279" y="762" type="curve"/>
      <point x="337" y="762"/>
      <point x="357" y="786"/>
      <point x="364" y="821" type="curve"/>
      <point x="368" y="842"/>
      <point x="369" y="850"/>
      <point x="369" y="857" type="curve"/>
      <point x="369" y="888"/>
      <point x="349" y="911"/>
      <point x="295" y="911" type="curve"/>
      <point x="237" y="911"/>
      <point x="217" y="887"/>
      <point x="210" y="852" type="curve"/>
      <point x="206" y="831"/>
      <point x="205" y="823"/>
      <point x="205" y="816" type="curve"/>
      <point x="205" y="785"/>
      <point x="225" y="762"/>
    </contour>
    <contour>
      <point x="497" y="762" type="curve"/>
      <point x="555" y="762"/>
      <point x="575" y="786"/>
      <point x="582" y="821" type="curve"/>
      <point x="586" y="842"/>
      <point x="587" y="850"/>
      <point x="587" y="857" type="curve"/>
      <point x="587" y="888"/>
      <point x="567" y="911"/>
      <point x="513" y="911" type="curve"/>
      <point x="455" y="911"/>
      <point x="435" y="887"/>
      <point x="428" y="852" type="curve"/>
      <point x="424" y="831"/>
      <point x="423" y="823"/>
      <point x="423" y="816" type="curve"/>
      <point x="423" y="785"/>
      <point x="443" y="762"/>
    </contour>
    <contour>
      <point x="155" y="698" type="line"/>
      <point x="38" y="0" type="line"/>
      <point x="484" y="0" type="line"/>
      <point x="504" y="122" type="line"/>
      <point x="205" y="122" type="line"/>
      <point x="233" y="292" type="line"/>
      <point x="520" y="292" type="line"/>
      <point x="540" y="414" type="line"/>
      <point x="254" y="414" type="line"/>
      <point x="281" y="576" type="line"/>
      <point x="581" y="576" type="line"/>
      <point x="601" y="698" type="line"/>
    </contour>
  </outline>
</glyph>
<glyph name="Iacute" format="1">
  <advance width="600"/>
  <unicode hex="00CD"/>
  <outline>
    <contour>
      <point x="309" y="786" type="line"/>
      <point x="395" y="740" type="line"/>
      <point x="538" y="916" type="line"/>
      <point x="424" y="976" type="line"/>
    </contour>
    <contour>
      <point x="50" y="110" type="line"/>
      <point x="32" y="0" type="line"/>
      <point x="482" y="0" type="line"/>
      <point x="500" y="110" type="line"/>
      <point x="349" y="110" type="line"/>
      <point x="429" y="588" type="line"/>
      <point x="580" y="588" type="line"/>
      <point x="598" y="698" type="line"/>
      <point x="148" y="698" type="line"/>
      <point x="130" y="588" type="line"/>
      <point x="281" y="588" type="line"/>
      <point x="201" y="110" type="line"/>
    </contour>
  </outline>
</glyph>
<glyph name="Icircumflex" format="1">
  <advance width="600"/>
  <unicode hex="00CE"/>
  <outline>
    <contour>
      <point x="583" y="797" type="line"/>
      <point x="475" y="955" type="line"/>
      <point x="351" y="955" type="line"/>
      <point x="197" y="797" type="line"/>
      <point x="267" y="740" type="line"/>
      <point x="401" y="855" type="line"/>
      <point x="507" y="740" type="line"/>
    </contour>
    <contour>
      <point x="50" y="110" type="line"/>
      <point x="32" y="0" type="line"/>
      <point x="482" y="0" type="line"/>
      <point x="500" y="110" type="line"/>
      <point x="349" y="110" type="line"/>
      <point x="429" y="588" type="line"/>
      <point x="580" y="588" type="line"/>
      <point x="598" y="698" type="line"/>
      <point x="148" y="698" type="line"/>
      <point x="130" y="588" type="line"/>
      <point x="281" y="588" type="line"/>
      <point x="201" y="110" type="line"/>
    </contour>
  </outline>
</glyph>
<glyph name="Ntilde" format="1">
  <advance width="600"/>
  <unicode hex="00D1"/>
  <outline>
    <contour>
      <point x="461" y="762" type="curve"/>
      <point x="514" y="762"/>
      <point x="556" y="790"/>
      <point x="585" y="826" type="curve"/>
      <point x="545" y="893" type="line"/>
      <point x="521" y="876"/>
      <point x="505" y="868"/>
      <point x="482" y="868" type="curve"/>
      <point x="456" y="868"/>
      <point x="434" y="878"/>
      <point x="407" y="890" type="curve"/>
      <point x="384" y="901"/>
      <point x="364" y="911"/>
      <point x="334" y="911" type="curve"/>
      <point x="281" y="911"/>
      <point x="239" y="883"/>
      <point x="210" y="847" type="curve"/>
      <point x="250" y="780" type="line"/>
      <point x="274" y="797"/>
      <point x="290" y="805"/>
      <point x="313" y="805" type="curve"/>
      <point x="339" y="805"/>
      <point x="361" y="795"/>
      <point x="388" y="783" type="curve"/>
      <point x="411" y="772"/>
      <point x="431" y="762"/>
    </contour>
    <contour>
      <point x="227" y="468" type="line"/>
      <point x="237" y="468" type="line"/>
      <point x="318" y="0" type="line"/>
      <point x="496" y="0" type="line"/>
      <point x="612" y="698" type="line"/>
      <point x="483" y="698" type="line"/>
      <point x="405" y="230" type="line"/>
      <point x="395" y="230" type="line"/>
      <point x="314" y="698" type="line"/>
      <point x="136" y="698" type="line"/>
      <point x="20" y="0" type="line"/>
      <point x="149" y="0" type="line"/>
    </contour>
  </outline>
</glyph>
<glyph name="Odieresis" format="1">
  <advance width="600"/>
  <unicode hex="00D6"/>
  <outline>
    <contour>
      <point x="264" y="762" type="curve"/>
      <point x="322" y="762"/>
      <point x="342" y="786"/>
      <point x="349" y="821" type="curve"/>
      <point x="353" y="842"/>
      <point x="354" y="850"/>
      <point x="354" y="857" type="curve"/>
      <point x="354" y="888"/>
      <point x="334" y="911"/>
      <point x="280" y="911" type="curve"/>
      <point x="222" y="911"/>
      <point x="202" y="887"/>
      <point x="195" y="852" type="curve"/>
      <point x="191" y="831"/>
      <point x="190" y="823"/>
      <point x="190" y="816" type="curve"/>
      <point x="190" y="785"/>
      <point x="210" y="762"/>
    </contour>
    <contour>
      <point x="482" y="762" type="curve"/>
      <point x="540" y="762"/>
      <point x="560" y="786"/>
      <point x="567" y="821" type="curve"/>
      <point x="571" y="842"/>
      <point x="572" y="850"/>
      <point x="572" y="857" type="curve"/>
      <point x="572" y="888"/>
      <point x="552" y="911"/>
      <point x="498" y="911" type="curve"/>
      <point x="440" y="911"/>
      <point x="420" y="887"/>
      <point x="413" y="852" type="curve"/>
      <point x="409" y="831"/>
      <point x="408" y="823"/>
      <point x="408" y="816" type="curve"/>
      <point x="408" y="785"/>
      <point x="428" y="762"/>
    </contour>
    <contour>
      <point x="279" y="-12" type="curve"/>
      <point x="501" y="-12"/>
      <point x="592" y="210"/>
      <point x="592" y="447" type="curve"/>
      <point x="592" y="610"/>
      <point x="518" y="710"/>
      <point x="349" y="710" type="curve"/>
      <point x="127" y="710"/>
      <point x="36" y="488"/>
      <point x="36" y="251" type="curve"/>
      <point x="36" y="88"/>
      <point x="110" y="-12"/>
    </contour>
    <contour>
      <point x="279" y="108" type="curve"/>
      <point x="216" y="108"/>
      <point x="187" y="149"/>
      <point x="187" y="218" type="curve"/>
      <point x="187" y="243"/>
      <point x="189" y="266"/>
      <point x="193" y="290" type="curve"/>
      <point x="213" y="410" type="line" smooth="yes"/>
      <point x="232" y="524"/>
      <point x="265" y="590"/>
      <point x="349" y="590" type="curve"/>
      <point x="412" y="590"/>
      <point x="441" y="549"/>
      <point x="441" y="480" type="curve"/>
      <point x="441" y="455"/>
      <point x="439" y="432"/>
      <point x="435" y="408" type="curve"/>
      <point x="415" y="288" type="line" smooth="yes"/>
      <point x="396" y="174"/>
      <point x="363" y="108"/>
    </contour>
  </outline>
</glyph>
<glyph name="multiply" format="1">
  <advance width="600"/>
  <unicode hex="00D7"/>
  <outline>
    <contour>
      <point x="129" y="76" type="line"/>
      <point x="298" y="220" type="line"/>
      <point x="417" y="76" type="line"/>
      <point x="512" y="157" type="line"/>
      <point x="393" y="301" type="line"/>
      <point x="564" y="447" type="line"/>
      <point x="489" y="534" type="line"/>
      <point x="320" y="390" type="line"/>
      <point x="201" y="534" type="line"/>
      <point x="106" y="453" type="line"/>
      <point x="225" y="310" type="line"/>
      <point x="53" y="164" type="line"/>
    </contour>
  </outline>
</glyph>
<glyph name="Udieresis" format="1">
  <advance width="600"/>
  <unicode hex="00DC"/>
  <outline>
    <contour>
      <point x="277" y="762" type="curve"/>
      <point x="335" y="762"/>
      <point x="355" y="786"/>
      <point x="362" y="821" type="curve"/>
      <point x="366" y="842"/>
      <point x="367" y="850"/>
      <point x="367" y="857" type="curve"/>
      <point x="367" y="888"/>
      <point x="347" y="911"/>
      <point x="293" y="911" type="curve"/>
      <point x="235" y="911"/>
      <point x="215" y="887"/>
      <point x="208" y="852" type="curve"/>
      <point x="204" y="831"/>
      <point x="203" y="823"/>
      <point x="203" y="816" type="curve"/>
      <point x="203" y="785"/>
      <point x="223" y="762"/>
    </contour>
    <contour>
      <point x="495" y="762" type="curve"/>
      <point x="553" y="762"/>
      <point x="573" y="786"/>
      <point x="580" y="821" type="curve"/>
      <point x="584" y="842"/>
      <point x="585" y="850"/>
      <point x="585" y="857" type="curve"/>
      <point x="585" y="888"/>
      <point x="565" y="911"/>
      <point x="511" y="911" type="curve"/>
      <point x="453" y="911"/>
      <point x="433" y="887"/>
      <point x="426" y="852" type="curve"/>
      <point x="422" y="831"/>
      <point x="421" y="823"/>
      <point x="421" y="816" type="curve"/>
      <point x="421" y="785"/>
      <point x="441" y="762"/>
    </contour>
    <contour>
      <point x="202" y="260" type="curve"/>
      <point x="275" y="698" type="line"/>
      <point x="128" y="698" type="line"/>
      <point x="60" y="291" type="line" smooth="yes"/>
      <point x="53" y="249"/>
      <point x="49" y="210"/>
      <point x="49" y="176" type="curve"/>
      <point x="49" y="62"/>
      <point x="103" y="-12"/>
      <point x="269" y="-12" type="curve"/>
      <point x="470" y="-12"/>
      <point x="516" y="86"/>
      <point x="547" y="272" type="curve"/>
      <point x="618" y="698" type="line"/>
      <point x="471" y="698" type="line"/>
      <point x="397" y="255" type="line" smooth="yes"/>
      <point x="382" y="165"/>
      <point x="366" y="108"/>
      <point x="277" y="108" type="curve"/>
      <point x="216" y="108"/>
      <point x="194" y="136"/>
      <point x="194" y="186" type="curve"/>
      <point x="194" y="200"/>
      <point x="196" y="224"/>
    </contour>
  </outline>
</glyph>
<glyph name="Yacute" format="1">
  <advance width="600"/>
  <unicode hex="00DD"/>
  <outline>
    <contour>
      <point x="302" y="786" type="line"/>
      <point x="388" y="740" type="line"/>
      <point x="531" y="916" type="line"/>
      <point x="417" y="976" type="line"/>
    </contour>
    <contour>
      <point x="225" y="246" type="line"/>
      <point x="184" y="0" type="line"/>
      <point x="332" y="0" type="line"/>
      <point x="373" y="249" type="line"/>
      <point x="668" y="698" type="line"/>
      <point x="503" y="698" type="line"/>
      <point x="403" y="534" type="line"/>
      <point x="325" y="397" type="line"/>
      <point x="316" y="397" type="line"/>
      <point x="285" y="534" type="line"/>
      <point x="236" y="698" type="line"/>
      <point x="78" y="698" type="line"/>
    </contour>
  </outline>
</glyph>
<glyph name="ae" format="1">
  <advance width="900"/>
  <unicode hex="00E6"/>
  <outline>
    <contour>
      <point x="252" y="89" type="curve"/>
      <point x="196" y="89"/>
      <point x="172" y="104"/>
      <point x="172" y="134" type="curve"/>
      <point x="172" y="135"/>
      <point x="172" y="150"/>
      <point x="176" y="165" type="curve"/>
      <point x="186" y="204"/>
      <point x="222" y="210"/>
      <point x="283" y="213" type="curve"/>
      <point x="364" y="217" type="line"/>
      <point x="352" y="160" type="line" smooth="yes"/>
      <point x="342" y="112"/>
      <point x="297" y="89"/>
    </contour>
    <contour>
      <point x="641" y="430" type="curve"/>
      <point x="686" y="430"/>
      <point x="721" y="422"/>
      <point x="721" y="377" type="curve"/>
      <point x="721" y="337"/>
      <point x="690" y="310"/>
      <point x="520" y="301" type="curve"/>
      <point x="524" y="320" type="line" smooth="yes"/>
      <point x="538" y="388"/>
      <point x="582" y="430"/>
    </contour>
    <contour>
      <point x="203" y="-12" type="curve"/>
      <point x="281" y="-12"/>
      <point x="347" y="18"/>
      <point x="382" y="92" type="curve"/>
      <point x="389" y="92" type="line"/>
      <point x="422" y="26"/>
      <point x="487" y="-12"/>
      <point x="586" y="-12" type="curve"/>
      <point x="696" y="-12"/>
      <point x="765" y="20"/>
      <point x="830" y="106" type="curve"/>
      <point x="744" y="174" type="line"/>
      <point x="697" y="115"/>
      <point x="662" y="101"/>
      <point x="597" y="101" type="curve"/>
      <point x="527" y="101"/>
      <point x="503" y="135"/>
      <point x="503" y="185" type="curve"/>
      <point x="503" y="192"/>
      <point x="503" y="200"/>
      <point x="505" y="216" type="curve"/>
      <point x="759" y="223"/>
      <point x="857" y="286"/>
      <point x="857" y="392" type="curve"/>
      <point x="857" y="504"/>
      <point x="748" y="537"/>
      <point x="651" y="537" type="curve"/>
      <point x="579" y="537"/>
      <point x="524" y="508"/>
      <point x="482" y="461" type="curve"/>
      <point x="475" y="461" type="line"/>
      <point x="447" y="510"/>
      <point x="395" y="537"/>
      <point x="318" y="537" type="curve"/>
      <point x="207" y="537"/>
      <point x="132" y="499"/>
      <point x="83" y="436" type="curve"/>
      <point x="165" y="357" type="line"/>
      <point x="192" y="394"/>
      <point x="225" y="425"/>
      <point x="307" y="425" type="curve"/>
      <point x="362" y="425"/>
      <point x="388" y="401"/>
      <point x="388" y="355" type="curve"/>
      <point x="388" y="346"/>
      <point x="387" y="337"/>
      <point x="385" y="325" type="curve"/>
      <point x="380" y="298" type="line"/>
      <point x="289" y="294" type="line" smooth="yes"/>
      <point x="116" y="286"/>
      <point x="26" y="234"/>
      <point x="26" y="125" type="curve"/>
      <point x="26" y="41"/>
      <point x="80" y="-12"/>
    </contour>
  </outline>
</glyph>
<glyph name="idieresis" format="1">
  <advance width="600"/>
  <unicode hex="00EF"/>
  <outline>
    <contour>
      <point x="226" y="592" type="curve"/>
      <point x="284" y="592"/>
      <point x="305" y="616"/>
      <point x="311" y="652" type="curve"/>
      <point x="314" y="670"/>
      <point x="316" y="681"/>
      <point x="316" y="687" type="curve"/>
      <point x="316" y="718"/>
      <point x="296" y="741"/>
      <point x="242" y="741" type="curve"/>
      <point x="184" y="741"/>
      <point x="163" y="717"/>
      <point x="157" y="681" type="curve"/>
      <point x="154" y="663"/>
      <point x="152" y="652"/>
      <point x="152" y="646" type="curve"/>
      <point x="152" y="615"/>
      <point x="172" y="592"/>
    </contour>
    <contour>
      <point x="444" y="592" type="curve"/>
      <point x="502" y="592"/>
      <point x="523" y="616"/>
      <point x="529" y="652" type="curve"/>
      <point x="532" y="670"/>
      <point x="534" y="681"/>
      <point x="534" y="687" type="curve"/>
      <point x="534" y="718"/>
      <point x="514" y="741"/>
      <point x="460" y="741" type="curve"/>
      <point x="402" y="741"/>
      <point x="381" y="717"/>
      <point x="375" y="681" type="curve"/>
      <point x="372" y="663"/>
      <point x="370" y="652"/>
      <point x="370" y="646" type="curve"/>
      <point x="370" y="615"/>
      <point x="390" y="592"/>
    </contour>
    <contour>
      <point x="298" y="-12" type="curve"/>
      <point x="367" y="-12"/>
      <point x="423" y="27"/>
      <point x="490" y="103" type="curve"/>
      <point x="551" y="173" type="line"/>
      <point x="471" y="244" type="line"/>
      <point x="331" y="101" type="line"/>
      <point x="314" y="106" type="line"/>
      <point x="391" y="516" type="line"/>
      <point x="87" y="516" type="line"/>
      <point x="68" y="402" type="line"/>
      <point x="224" y="402" type="line"/>
      <point x="184" y="188" type="line" smooth="yes"/>
      <point x="176" y="147"/>
      <point x="174" y="130"/>
      <point x="174" y="108" type="curve"/>
      <point x="174" y="35"/>
      <point x="216" y="-12"/>
    </contour>
  </outline>
</glyph>
<glyph name="ntilde" format="1">
  <advance width="600"/>
  <unicode hex="00F1"/>
  <outline>
    <contour>
      <point x="421" y="592" type="curve"/>
      <point x="474" y="592"/>
      <point x="516" y="620"/>
      <point x="545" y="656" type="curve"/>
      <point x="505" y="723" type="line"/>
      <point x="481" y="706"/>
      <point x="465" y="698"/>
      <point x="442" y="698" type="curve"/>
      <point x="416" y="698"/>
      <point x="394" y="708"/>
      <point x="367" y="720" type="curve"/>
      <point x="344" y="731"/>
      <point x="324" y="741"/>
      <point x="294" y="741" type="curve"/>
      <point x="241" y="741"/>
      <point x="199" y="713"/>
      <point x="170" y="677" type="curve"/>
      <point x="210" y="610" type="line"/>
      <point x="234" y="627"/>
      <point x="250" y="635"/>
      <point x="273" y="635" type="curve"/>
      <point x="299" y="635"/>
      <point x="321" y="625"/>
      <point x="348" y="613" type="curve"/>
      <point x="371" y="602"/>
      <point x="391" y="592"/>
    </contour>
    <contour>
      <point x="111" y="516" type="line"/>
      <point x="25" y="0" type="line"/>
      <point x="171" y="0" type="line"/>
      <point x="216" y="269" type="line" smooth="yes"/>
      <point x="223" y="311"/>
      <point x="248" y="349"/>
      <point x="263" y="369" type="curve"/>
      <point x="286" y="399"/>
      <point x="310" y="416"/>
      <point x="344" y="416" type="curve"/>
      <point x="389" y="416"/>
      <point x="404" y="382"/>
      <point x="404" y="355" type="curve"/>
      <point x="404" y="330"/>
      <point x="400" y="311"/>
      <point x="397" y="293" type="curve"/>
      <point x="348" y="0" type="line"/>
      <point x="494" y="0" type="line"/>
      <point x="540" y="275" type="line" smooth="yes"/>
      <point x="548" y="323"/>
      <point x="551" y="350"/>
      <point x="551" y="379" type="curve"/>
      <point x="551" y="459"/>
      <point x="511" y="528"/>
      <point x="410" y="528" type="curve"/>
      <point x="328" y="528"/>
      <point x="281" y="477"/>
      <point x="242" y="393" type="curve"/>
      <point x="237" y="393" type="line"/>
      <point x="257" y="516" type="line"/>
    </contour>
  </outline>
</glyph>
<glyph name="otilde" format="1">
  <advance width="600"/>
  <unicode hex="00F5"/>
  <outline>
    <contour>
      <point x="432" y="592" type="curve"/>
      <point x="485" y="592"/>
      <point x="527" y="620"/>
      <point x="556" y="656" type="curve"/>
      <point x="516" y="723" type="line"/>
      <point x="492" y="706"/>
      <point x="476" y="698"/>
      <point x="453" y="698" type="curve"/>
      <point x="427" y="698"/>
      <point x="405" y="708"/>
      <point x="378" y="720" type="curve"/>
      <point x="355" y="731"/>
      <point x="335" y="741"/>
      <point x="305" y="741" type="curve"/>
      <point x="252" y="741"/>
      <point x="210" y="713"/>
      <point x="181" y="677" type="curve"/>
      <point x="221" y="610" type="line"/>
      <point x="245" y="627"/>
      <point x="261" y="635"/>
      <point x="284" y="635" type="curve"/>
      <point x="310" y="635"/>
      <point x="332" y="625"/>
      <point x="359" y="613" type="curve"/>
      <point x="382" y="602"/>
      <point x="402" y="592"/>
    </contour>
    <contour>
      <point x="265" y="-12" type="curve"/>
      <point x="438" y="-12"/>
      <point x="557" y="109"/>
      <point x="557" y="306" type="curve"/>
      <point x="557" y="442"/>
      <point x="475" y="528"/>
      <point x="335" y="528" type="curve"/>
      <point x="162" y="528"/>
      <point x="43" y="407"/>
      <point x="43" y="210" type="curve"/>
      <point x="43" y="74"/>
      <point x="125" y="-12"/>
    </contour>
    <contour>
      <point x="276" y="97" type="curve"/>
      <point x="222" y="97"/>
      <point x="188" y="127"/>
      <point x="188" y="188" type="curve"/>
      <point x="188" y="200"/>
      <point x="191" y="217"/>
      <point x="193" y="229" type="curve"/>
      <point x="206" y="307" type="line" smooth="yes"/>
      <point x="218" y="379"/>
      <point x="260" y="419"/>
      <point x="324" y="419" type="curve"/>
      <point x="378" y="419"/>
      <point x="412" y="389"/>
      <point x="412" y="328" type="curve"/>
      <point x="412" y="316"/>
      <point x="409" y="299"/>
      <point x="407" y="287" type="curve"/>
      <point x="394" y="209" type="line" smooth="yes"/>
      <point x="382" y="137"/>
      <point x="340" y="97"/>
    </contour>
  </outline>
</glyph>
<glyph name="divide" format="1">
  <advance width="600"/>
  <unicode hex="00F7"/>
  <outline>
    <contour>
      <point x="81" y="363" type="line"/>
      <point x="61" y="247" type="line"/>
      <point x="537" y="247" type="line"/>
      <point x="557" y="363" type="line"/>
    </contour>
    <contour>
      <point x="266" y="30" type="curve"/>
      <point x="326" y="30"/>
      <point x="354" y="59"/>
      <point x="360" y="95" type="curve"/>
      <point x="363" y="113"/>
      <point x="365" y="128"/>
      <point x="365" y="136" type="curve"/>
      <point x="365" y="166"/>
      <point x="343" y="190"/>
      <point x="287" y="190" type="curve"/>
      <point x="227" y="190"/>
      <point x="199" y="161"/>
      <point x="193" y="125" type="curve"/>
      <point x="190" y="107"/>
      <point x="188" y="92"/>
      <point x="188" y="84" type="curve"/>
      <point x="188" y="54"/>
      <point x="210" y="30"/>
    </contour>
    <contour>
      <point x="330" y="420" type="curve"/>
      <point x="390" y="420"/>
      <point x="418" y="449"/>
      <point x="424" y="485" type="curve"/>
      <point x="427" y="503"/>
      <point x="429" y="518"/>
      <point x="429" y="526" type="curve"/>
      <point x="429" y="556"/>
      <point x="407" y="580"/>
      <point x="351" y="580" type="curve"/>
      <point x="291" y="580"/>
      <point x="263" y="551"/>
      <point x="257" y="515" type="curve"/>
      <point x="254" y="497"/>
      <point x="252" y="482"/>
      <point x="252" y="474" type="curve"/>
      <point x="252" y="444"/>
      <point x="274" y="420"/>
    </contour>
  </outline>
</glyph>
<glyph name="Abreve" format="1">
  <advance width="600"/>
  <unicode hex="0102"/>
  <outline>
    <contour>
      <point x="391" y="740" type="curve"/>
      <point x="500" y="740"/>
      <point x="557" y="825"/>
      <point x="600" y="910" type="curve"/>
      <point x="517" y="952" type="line"/>
      <point x="491" y="917" type="line" smooth="yes"/>
      <point x="455" y="868"/>
      <point x="433" y="843"/>
      <point x="397" y="843" type="curve"/>
      <point x="355" y="843"/>
      <point x="337" y="870"/>
      <point x="313" y="915" type="curve"/>
      <point x="293" y="952" type="line"/>
      <point x="212" y="910" type="line"/>
      <point x="233" y="828"/>
      <point x="278" y="740"/>
    </contour>
    <contour>
      <point x="383" y="169" type="line"/>
      <point x="400" y="0" type="line"/>
      <point x="552" y="0" type="line"/>
      <point x="476" y="698" type="line"/>
      <point x="270" y="698" type="line"/>
      <point x="-37" y="0" type="line"/>
      <point x="118" y="0" type="line"/>
      <point x="187" y="169" type="line"/>
    </contour>
    <contour>
      <point x="347" y="553" type="line"/>
      <point x="356" y="553" type="line"/>
      <point x="377" y="289" type="line"/>
      <point x="237" y="289" type="line"/>
    </contour>
  </outline>
</glyph>
<glyph name="Ebreve" format="1">
  <advance width="600"/>
  <unicode hex="0114"/>
  <outline>
    <contour>
      <point x="394" y="740" type="curve"/>
      <point x="503" y="740"/>
      <point x="560" y="825"/>
      <point x="603" y="910" type="curve"/>
      <point x="520" y="952" type="line"/>
      <point x="494" y="917" type="line" smooth="yes"/>
      <point x="458" y="868"/>
      <point x="436" y="843"/>
      <point x="400" y="843" type="curve"/>
      <point x="358" y="843"/>
      <point x="340" y="870"/>
      <point x="316" y="915" type="curve"/>
      <point x="296" y="952" type="line"/>
      <point x="215" y="910" type="line"/>
      <point x="236" y="828"/>
      <point x="281" y="740"/>
    </contour>
    <contour>
      <point x="155" y="698" type="line"/>
      <point x="38" y="0" type="line"/>
      <point x="484" y="0" type="line"/>
      <point x="504" y="122" type="line"/>
      <point x="205" y="122" type="line"/>
      <point x="233" y="292" type="line"/>
      <point x="520" y="292" type="line"/>
      <point x="540" y="414" type="line"/>
      <point x="254" y="414" type="line"/>
      <point x="281" y="576" type="line"/>
      <point x="581" y="576" type="line"/>
      <point x="601" y="698" type="line"/>
    </contour>
  </outline>
</glyph>
<glyph name="Edotaccent" format="1">
  <advance width="600"/>
  <unicode hex="0116"/>
  <outline>
    <contour>
      <point x="388" y="754" type="curve"/>
      <point x="448" y="754"/>
      <point x="475" y="778"/>
      <point x="482" y="820" type="curve"/>
      <point x="486" y="844"/>
      <point x="487" y="853"/>
      <point x="487" y="860" type="curve"/>
      <point x="487" y="895"/>
      <point x="465" y="921"/>
      <point x="405" y="921" type="curve"/>
      <point x="345" y="921"/>
      <point x="318" y="897"/>
      <point x="311" y="855" type="curve"/>
      <point x="307" y="831"/>
      <point x="306" y="822"/>
      <point x="306" y="815" type="curve"/>
      <point x="306" y="780"/>
      <point x="328" y="754"/>
    </contour>
    <contour>
      <point x="155" y="698" type="line"/>
      <point x="38" y="0" type="line"/>
      <point x="484" y="0" type="line"/>
      <point x="504" y="122" type="line"/>
      <point x="205" y="122" type="line"/>
      <point x="233" y="292" type="line"/>
      <point x="520" y="292" type="line"/>
      <point x="540" y="414" type="line"/>
      <point x="254" y="414" type="line"/>
      <point x="281" y="576" type="line"/>
      <point x="581" y="576" type="line"/>
      <point x="601" y="698" type="line"/>
    </contour>
  </outline>
</glyph>
<glyph name="edotaccent" format="1">
  <advance width="600"/>
  <unicode hex="0117"/>
  <outline>
    <contour>
      <point x="360" y="584" type="curve"/>
      <point x="420" y="584"/>
      <point x="447" y="608"/>
      <point x="454" y="650" type="curve"/>
      <point x="458" y="674"/>
      <point x="459" y="683"/>
      <point x="459" y="690" type="curve"/>
      <point x="459" y="725"/>
      <point x="437" y="751"/>
      <point x="377" y="751" type="curve"/>
      <point x="317" y="751"/>
      <point x="290" y="727"/>
      <point x="283" y="685" type="curve"/>
      <point x="279" y="661"/>
      <point x="278" y="652"/>
      <point x="278" y="645" type="curve"/>
      <point x="278" y="610"/>
      <point x="300" y="584"/>
    </contour>
    <contour>
      <point x="281" y="-12" type="curve"/>
      <point x="413" y="-12"/>
      <point x="479" y="52"/>
      <point x="533" y="129" type="curve"/>
      <point x="442" y="188" type="line"/>
      <point x="389" y="120"/>
      <point x="357" y="100"/>
      <point x="300" y="100" type="curve"/>
      <point x="230" y="100"/>
      <point x="201" y="131"/>
      <point x="201" y="186" type="curve"/>
      <point x="201" y="191"/>
      <point x="201" y="195"/>
      <point x="202" y="203" type="curve"/>
      <point x="496" y="214"/>
      <point x="550" y="303"/>
      <point x="550" y="386" type="curve"/>
      <point x="550" y="481"/>
      <point x="464" y="528"/>
      <point x="360" y="528" type="curve"/>
      <point x="177" y="528"/>
      <point x="56" y="400"/>
      <point x="56" y="208" type="curve"/>
      <point x="56" y="71"/>
      <point x="129" y="-12"/>
    </contour>
    <contour>
      <point x="345" y="425" type="curve"/>
      <point x="389" y="425"/>
      <point x="409" y="406"/>
      <point x="409" y="373" type="curve"/>
      <point x="409" y="340"/>
      <point x="397" y="297"/>
      <point x="212" y="287" type="curve"/>
      <point x="215" y="301" type="line" smooth="yes"/>
      <point x="234" y="390"/>
      <point x="282" y="425"/>
    </contour>
  </outline>
</glyph>
<glyph name="Itilde" format="1">
  <advance width="600"/>
  <unicode hex="0128"/>
  <outline>
    <contour>
      <point x="461" y="762" type="curve"/>
      <point x="514" y="762"/>
      <point x="556" y="790"/>
      <point x="585" y="826" type="curve"/>
      <point x="545" y="893" type="line"/>
      <point x="521" y="876"/>
      <point x="505" y="868"/>
      <point x="482" y="868" type="curve"/>
      <point x="456" y="868"/>
      <point x="434" y="878"/>
      <point x="407" y="890" type="curve"/>
      <point x="384" y="901"/>
      <point x="364" y="911"/>
      <point x="334" y="911" type="curve"/>
      <point x="281" y="911"/>
      <point x="239" y="883"/>
      <point x="210" y="847" type="curve"/>
      <point x="250" y="780" type="line"/>
      <point x="274" y="797"/>
      <point x="290" y="805"/>
      <point x="313" y="805" type="curve"/>
      <point x="339" y="805"/>
      <point x="361" y="795"/>
      <point x="388" y="783" type="curve"/>
      <point x="411" y="772"/>
      <point x="431" y="762"/>
    </contour>
    <contour>
      <point x="50" y="110" type="line"/>
      <point x="32" y="0" type="line"/>
      <point x="482" y="0" type="line"/>
      <point x="500" y="110" type="line"/>
      <point x="349" y="110" type="line"/>
      <point x="429" y="588" type="line"/>
      <point x="580" y="588" type="line"/>
      <point x="598" y="698" type="line"/>
      <point x="148" y="698" type="line"/>
      <point x="130" y="588" type="line"/>
      <point x="281" y="588" type="line"/>
      <point x="201" y="110" type="line"/>
    </contour>
  </outline>
</glyph>
<glyph name="Ibreve" format="1">
  <advance width="600"/>
  <unicode hex="012C"/>
  <outline>
    <contour>
      <point x="395" y="740" type="curve"/>
      <point x="504" y="740"/>
      <point x="561" y="825"/>
      <point x="604" y="910" type="curve"/>
      <point x="521" y="952" type="line"/>
      <point x="495" y="917" type="line" smooth="yes"/>
      <point x="459" y="868"/>
      <point x="437" y="843"/>
      <point x="401" y="843" type="curve"/>
      <point x="359" y="843"/>
      <point x="341" y="870"/>
      <point x="317" y="915" type="curve"/>
      <point x="297" y="952" type="line"/>
      <point x="216" y="910" type="line"/>
      <point x="237" y="828"/>
      <point x="282" y="740"/>
    </contour>
    <contour>
      <point x="50" y="110" type="line"/>
      <point x="32" y="0" type="line"/>
      <point x="482" y="0" type="line"/>
      <point x="500" y="110" type="line"/>
      <point x="349" y="110" type="line"/>
      <point x="429" y="588" type="line"/>
      <point x="580" y="588" type="line"/>
      <point x="598" y="698" type="line"/>
      <point x="148" y="698" type="line"/>
      <point x="130" y="588" type="line"/>
      <point x="281" y="588" type="line"/>
      <point x="201" y="110" type="line"/>
    </contour>
  </outline>
</glyph>
<glyph name="jcircumflex" format="1">
  <advance width="600"/>
  <unicode hex="0135"/>
  <outline>
    <contour>
      <point x="616" y="627" type="line"/>
      <point x="508" y="785" type="line"/>
      <point x="384" y="785" type="line"/>
      <point x="230" y="627" type="line"/>
      <point x="300" y="570" type="line"/>
      <point x="434" y="685" type="line"/>
      <point x="540" y="570" type="line"/>
    </contour>
    <contour>
      <point x="216" y="-212" type="curve"/>
      <point x="312" y="-212"/>
      <point x="365" y="-162"/>
      <point x="386" y="-37" type="curve"/>
      <point x="478" y="516" type="line"/>
      <point x="143" y="516" type="line"/>
      <point x="124" y="402" type="line"/>
      <point x="313" y="402" type="line"/>
      <point x="230" y="-96" type="line"/>
      <point x="217" y="-101" type="line"/>
      <point x="104" y="54" type="line"/>
      <point x="4" y="-15" type="line"/>
      <point x="36" y="-65" type="line" smooth="yes"/>
      <point x="97" y="-160"/>
      <point x="137" y="-212"/>
    </contour>
  </outline>
</glyph>
<glyph name="uni0136" format="1">
  <advance width="600"/>
  <unicode hex="0136"/>
  <outline>
    <contour>
      <point x="345" y="-54" type="line"/>
      <point x="189" y="-54" type="line"/>
      <point x="136" y="-269" type="line"/>
      <point x="224" y="-269" type="line"/>
    </contour>
    <contour>
      <point x="207" y="191" type="line"/>
      <point x="289" y="282" type="line"/>
      <point x="398" y="0" type="line"/>
      <point x="562" y="0" type="line"/>
      <point x="407" y="388" type="line"/>
      <point x="667" y="698" type="line"/>
      <point x="493" y="698" type="line"/>
      <point x="361" y="536" type="line"/>
      <point x="249" y="399" type="line"/>
      <point x="241" y="399" type="line"/>
      <point x="291" y="698" type="line"/>
      <point x="143" y="698" type="line"/>
      <point x="27" y="0" type="line"/>
      <point x="175" y="0" type="line"/>
    </contour>
  </outline>
</glyph>
<glyph name="Lcaron" format="1">
  <advance width="600"/>
  <unicode hex="013D"/>
  <outline>
    <contour>
      <point x="365" y="525" type="line"/>
      <point x="462" y="525" type="line"/>
      <point x="563" y="740" type="line"/>
      <point x="406" y="740" type="line"/>
    </contour>
    <contour>
      <point x="167" y="698" type="line"/>
      <point x="51" y="0" type="line"/>
      <point x="501" y="0" type="line"/>
      <point x="521" y="122" type="line"/>
      <point x="219" y="122" type="line"/>
      <point x="315" y="698" type="line"/>
    </contour>
  </outline>
</glyph>
<glyph name="Ldot" format="1">
  <advance width="600"/>
  <unicode hex="013F"/>
  <outline>
    <contour>
      <point x="450" y="245" type="curve"/>
      <point x="510" y="245"/>
      <point x="537" y="269"/>
      <point x="544" y="311" type="curve"/>
      <point x="548" y="335"/>
      <point x="549" y="344"/>
      <point x="549" y="351" type="curve"/>
      <point x="549" y="386"/>
      <point x="527" y="412"/>
      <point x="467" y="412" type="curve"/>
      <point x="407" y="412"/>
      <point x="380" y="388"/>
      <point x="373" y="346" type="curve"/>
      <point x="369" y="322"/>
      <point x="368" y="313"/>
      <point x="368" y="306" type="curve"/>
      <point x="368" y="271"/>
      <point x="390" y="245"/>
    </contour>
    <contour>
      <point x="167" y="698" type="line"/>
      <point x="51" y="0" type="line"/>
      <point x="501" y="0" type="line"/>
      <point x="521" y="122" type="line"/>
      <point x="219" y="122" type="line"/>
      <point x="315" y="698" type="line"/>
    </contour>
  </outline>
</glyph>
<glyph name="ldot" format="1">
  <advance width="600"/>
  <unicode hex="0140"/>
  <outline>
    <contour>
      <point x="498" y="305" type="curve"/>
      <point x="558" y="305"/>
      <point x="585" y="329"/>
      <point x="592" y="371" type="curve"/>
      <point x="596" y="395"/>
      <point x="597" y="404"/>
      <point x="597" y="411" type="curve"/>
      <point x="597" y="446"/>
      <point x="575" y="472"/>
      <point x="515" y="472" type="curve"/>
      <point x="455" y="472"/>
      <point x="428" y="448"/>
      <point x="421" y="406" type="curve"/>
      <point x="417" y="382"/>
      <point x="416" y="373"/>
      <point x="416" y="366" type="curve"/>
      <point x="416" y="331"/>
      <point x="438" y="305"/>
    </contour>
    <contour>
      <point x="270" y="-12" type="curve"/>
      <point x="339" y="-12"/>
      <point x="395" y="27"/>
      <point x="462" y="103" type="curve"/>
      <point x="523" y="173" type="line"/>
      <point x="443" y="244" type="line"/>
      <point x="303" y="101" type="line"/>
      <point x="288" y="106" type="line"/>
      <point x="405" y="740" type="line"/>
      <point x="106" y="740" type="line"/>
      <point x="87" y="626" type="line"/>
      <point x="239" y="626" type="line"/>
      <point x="158" y="188" type="line" smooth="yes"/>
      <point x="150" y="147"/>
      <point x="148" y="130"/>
      <point x="148" y="108" type="curve"/>
      <point x="148" y="35"/>
      <point x="188" y="-12"/>
    </contour>
  </outline>
</glyph>
<glyph name="Obreve" format="1">
  <advance width="600"/>
  <unicode hex="014E"/>
  <outline>
    <contour>
      <point x="379" y="740" type="curve"/>
      <point x="488" y="740"/>
      <point x="545" y="825"/>
      <point x="588" y="910" type="curve"/>
      <point x="505" y="952" type="line"/>
      <point x="479" y="917" type="line" smooth="yes"/>
      <point x="443" y="868"/>
      <point x="421" y="843"/>
      <point x="385" y="843" type="curve"/>
      <point x="343" y="843"/>
      <point x="325" y="870"/>
      <point x="301" y="915" type="curve"/>
      <point x="281" y="952" type="line"/>
      <point x="200" y="910" type="line"/>
      <point x="221" y="828"/>
      <point x="266" y="740"/>
    </contour>
    <contour>
      <point x="279" y="-12" type="curve"/>
      <point x="501" y="-12"/>
      <point x="592" y="210"/>
      <point x="592" y="447" type="curve"/>
      <point x="592" y="610"/>
      <point x="518" y="710"/>
      <point x="349" y="710" type="curve"/>
      <point x="127" y="710"/>
      <point x="36" y="488"/>
      <point x="36" y="251" type="curve"/>
      <point x="36" y="88"/>
      <point x="110" y="-12"/>
    </contour>
    <contour>
      <point x="279" y="108" type="curve"/>
      <point x="216" y="108"/>
      <point x="187" y="149"/>
      <point x="187" y="218" type="curve"/>
      <point x="187" y="243"/>
      <point x="189" y="266"/>
      <point x="193" y="290" type="curve"/>
      <point x="213" y="410" type="line" smooth="yes"/>
      <point x="232" y="524"/>
      <point x="265" y="590"/>
      <point x="349" y="590" type="curve"/>
      <point x="412" y="590"/>
      <point x="441" y="549"/>
      <point x="441" y="480" type="curve"/>
      <point x="441" y="455"/>
      <point x="439" y="432"/>
      <point x="435" y="408" type="curve"/>
      <point x="415" y="288" type="line" smooth="yes"/>
      <point x="396" y="174"/>
      <point x="363" y="108"/>
    </contour>
  </outline>
</glyph>
<glyph name="OE" format="1">
  <advance width="900"/>
  <unicode hex="0152"/>
  <outline>
    <contour>
      <point x="405" y="0" type="curve"/>
      <point x="810" y="0" type="line"/>
      <point x="836" y="128" type="line"/>
      <point x="572" y="128" type="line"/>
      <point x="604" y="289" type="line"/>
      <point x="822" y="289" type="line"/>
      <point x="848" y="417" type="line"/>
      <point x="630" y="417" type="line"/>
      <point x="661" y="570" type="line"/>
      <point x="914" y="570" type="line"/>
      <point x="940" y="698" type="line"/>
      <point x="547" y="698" type="line"/>
      <point x="507" y="706"/>
      <point x="457" y="710"/>
      <point x="419" y="710" type="curve"/>
      <point x="214" y="710"/>
      <point x="57" y="529"/>
      <point x="57" y="285" type="curve"/>
      <point x="57" y="79"/>
      <point x="163" y="-12"/>
      <point x="302" y="-12" type="curve"/>
      <point x="334" y="-12"/>
      <point x="371" y="-8"/>
    </contour>
    <contour>
      <point x="334" y="117" type="curve"/>
      <point x="245" y="117"/>
      <point x="205" y="168"/>
      <point x="205" y="248" type="curve"/>
      <point x="205" y="266"/>
      <point x="207" y="280"/>
      <point x="210" y="297" type="curve"/>
      <point x="231" y="402" type="line" smooth="yes"/>
      <point x="253" y="512"/>
      <point x="307" y="581"/>
      <point x="414" y="581" type="curve"/>
      <point x="445" y="581"/>
      <point x="488" y="575"/>
      <point x="515" y="567" type="curve"/>
      <point x="427" y="130" type="line"/>
      <point x="396" y="121"/>
      <point x="359" y="117"/>
    </contour>
  </outline>
</glyph>
<glyph name="oe" format="1">
  <advance width="900"/>
  <unicode hex="0153"/>
  <outline>
    <contour>
      <point x="257" y="101" type="curve"/>
      <point x="208" y="101"/>
      <point x="182" y="134"/>
      <point x="182" y="184" type="curve"/>
      <point x="182" y="197"/>
      <point x="184" y="209"/>
      <point x="185" y="215" type="curve"/>
      <point x="204" y="309" type="line" smooth="yes"/>
      <point x="219" y="384"/>
      <point x="256" y="424"/>
      <point x="309" y="424" type="curve"/>
      <point x="358" y="424"/>
      <point x="384" y="391"/>
      <point x="384" y="341" type="curve"/>
      <point x="384" y="328"/>
      <point x="382" y="316"/>
      <point x="381" y="310" type="curve"/>
      <point x="362" y="216" type="line" smooth="yes"/>
      <point x="347" y="141"/>
      <point x="310" y="101"/>
    </contour>
    <contour>
      <point x="645" y="430" type="curve"/>
      <point x="673" y="430"/>
      <point x="708" y="422"/>
      <point x="708" y="377" type="curve"/>
      <point x="708" y="335"/>
      <point x="677" y="306"/>
      <point x="524" y="297" type="curve"/>
      <point x="528" y="320" type="line" smooth="yes"/>
      <point x="540" y="388"/>
      <point x="586" y="430"/>
    </contour>
    <contour>
      <point x="593" y="-12" type="curve"/>
      <point x="682" y="-12"/>
      <point x="752" y="20"/>
      <point x="817" y="106" type="curve"/>
      <point x="731" y="174" type="line"/>
      <point x="684" y="115"/>
      <point x="646" y="101"/>
      <point x="601" y="101" type="curve"/>
      <point x="531" y="101"/>
      <point x="507" y="135"/>
      <point x="507" y="185" type="curve"/>
      <point x="507" y="190"/>
      <point x="507" y="196"/>
      <point x="509" y="208" type="curve"/>
      <point x="747" y="215"/>
      <point x="844" y="283"/>
      <point x="844" y="391" type="curve"/>
      <point x="844" y="505"/>
      <point x="734" y="537"/>
      <point x="654" y="537" type="curve"/>
      <point x="580" y="537"/>
      <point x="520" y="510"/>
      <point x="475" y="451" type="curve"/>
      <point x="469" y="451" type="line"/>
      <point x="436" y="515"/>
      <point x="384" y="537"/>
      <point x="316" y="537" type="curve"/>
      <point x="157" y="537"/>
      <point x="43" y="397"/>
      <point x="43" y="207" type="curve"/>
      <point x="43" y="69"/>
      <point x="127" y="-12"/>
      <point x="245" y="-12" type="curve"/>
      <point x="316" y="-12"/>
      <point x="375" y="14"/>
      <point x="419" y="72" type="curve"/>
      <point x="425" y="72" type="line"/>
      <point x="459" y="12"/>
      <point x="513" y="-12"/>
    </contour>
  </outline>
</glyph>
<glyph name="Racute" format="1">
  <advance width="600"/>
  <unicode hex="0154"/>
  <outline>
    <contour>
      <point x="289" y="786" type="line"/>
      <point x="375" y="740" type="line"/>
      <point x="518" y="916" type="line"/>
      <point x="404" y="976" type="line"/>
    </contour>
    <contour>
      <point x="35" y="0" type="line"/>
      <point x="181" y="0" type="line"/>
      <point x="225" y="260" type="line"/>
      <point x="289" y="260" type="line"/>
      <point x="366" y="0" type="line"/>
      <point x="522" y="0" type="line"/>
      <point x="427" y="275" type="line"/>
      <point x="531" y="304"/>
      <point x="594" y="389"/>
      <point x="594" y="512" type="curve"/>
      <point x="594" y="623"/>
      <point x="528" y="698"/>
      <point x="404" y="698" type="curve"/>
      <point x="152" y="698" type="line"/>
    </contour>
    <contour>
      <point x="324" y="376" type="curve"/>
      <point x="244" y="376" type="line"/>
      <point x="278" y="579" type="line"/>
      <point x="361" y="579" type="line" smooth="yes"/>
      <point x="410" y="579"/>
      <point x="440" y="559"/>
      <point x="440" y="513" type="curve"/>
      <point x="440" y="503"/>
      <point x="439" y="492"/>
      <point x="437" y="480" type="curve"/>
      <point x="433" y="456" type="line" smooth="yes"/>
      <point x="424" y="398"/>
      <point x="396" y="376"/>
    </contour>
  </outline>
</glyph>
<glyph name="rcaron" format="1">
  <advance width="600"/>
  <unicode hex="0159"/>
  <outline>
    <contour>
      <point x="201" y="737" type="line"/>
      <point x="309" y="579" type="line"/>
      <point x="433" y="579" type="line"/>
      <point x="587" y="737" type="line"/>
      <point x="517" y="794" type="line"/>
      <point x="383" y="679" type="line"/>
      <point x="277" y="794" type="line"/>
    </contour>
    <contour>
      <point x="213" y="402" type="line"/>
      <point x="146" y="0" type="line"/>
      <point x="292" y="0" type="line"/>
      <point x="331" y="236" type="line" smooth="yes"/>
      <point x="337" y="272"/>
      <point x="359" y="309"/>
      <point x="372" y="325" type="curve"/>
      <point x="396" y="355"/>
      <point x="426" y="370"/>
      <point x="480" y="370" type="curve"/>
      <point x="571" y="370" type="line"/>
      <point x="597" y="516" type="line"/>
      <point x="563" y="516" type="line" smooth="yes"/>
      <point x="462" y="516"/>
      <point x="400" y="458"/>
      <point x="357" y="360" type="curve"/>
      <point x="351" y="360" type="line"/>
      <point x="378" y="516" type="line"/>
      <point x="114" y="516" type="line"/>
      <point x="95" y="402" type="line"/>
    </contour>
  </outline>
</glyph>
<glyph name="Tcaron" format="1">
  <advance width="600"/>
  <unicode hex="0164"/>
  <outline>
    <contour>
      <point x="216" y="907" type="line"/>
      <point x="324" y="749" type="line"/>
      <point x="448" y="749" type="line"/>
      <point x="602" y="907" type="line"/>
      <point x="532" y="964" type="line"/>
      <point x="398" y="849" type="line"/>
      <point x="292" y="964" type="line"/>
    </contour>
    <contour>
      <point x="331" y="0" type="line"/>
      <point x="427" y="576" type="line"/>
      <point x="629" y="576" type="line"/>
      <point x="649" y="698" type="line"/>
      <point x="97" y="698" type="line"/>
      <point x="77" y="576" type="line"/>
      <point x="279" y="576" type="line"/>
      <point x="183" y="0" type="line"/>
    </contour>
  </outline>
</glyph>
<glyph name="Utilde" format="1">
  <advance width="600"/>
  <unicode hex="0168"/>
  <outline>
    <contour>
      <point x="458" y="762" type="curve"/>
      <point x="511" y="762"/>
      <point x="553" y="790"/>
      <point x="582" y="826" type="curve"/>
      <point x="542" y="893" type="line"/>
      <point x="518" y="876"/>
      <point x="502" y="868"/>
      <point x="479" y="868" type="curve"/>
      <point x="453" y="868"/>
      <point x="431" y="878"/>
      <point x="404" y="890" type="curve"/>
      <point x="381" y="901"/>
      <point x="361" y="911"/>
      <point x="331" y="911" type="curve"/>
      <point x="278" y="911"/>
      <point x="236" y="883"/>
      <point x="207" y="847" type="curve"/>
      <point x="247" y="780" type="line"/>
      <point x="271" y="797"/>
      <point x="287" y="805"/>
      <point x="310" y="805" type="curve"/>
      <point x="336" y="805"/>
      <point x="358" y="795"/>
      <point x="385" y="783" type="curve"/>
      <point x="408" y="772"/>
      <point x="428" y="762"/>
    </contour>
    <contour>
      <point x="202" y="260" type="curve"/>
      <point x="275" y="698" type="line"/>
      <point x="128" y="698" type="line"/>
      <point x="60" y="291" type="line" smooth="yes"/>
      <point x="53" y="249"/>
      <point x="49" y="210"/>
      <point x="49" y="176" type="curve"/>
      <point x="49" y="62"/>
      <point x="103" y="-12"/>
      <point x="269" y="-12" type="curve"/>
      <point x="470" y="-12"/>
      <point x="516" y="86"/>
      <point x="547" y="272" type="curve"/>
      <point x="618" y="698" type="line"/>
      <point x="471" y="698" type="line"/>
      <point x="397" y="255" type="line" smooth="yes"/>
      <point x="382" y="165"/>
      <point x="366" y="108"/>
      <point x="277" y="108" type="curve"/>
      <point x="216" y="108"/>
      <point x="194" y="136"/>
      <point x="194" y="186" type="curve"/>
      <point x="194" y="200"/>
      <point x="196" y="224"/>
    </contour>
  </outline>
</glyph>
<glyph name="utilde" format="1">
  <advance width="600"/>
  <unicode hex="0169"/>
  <outline>
    <contour>
      <point x="427" y="592" type="curve"/>
      <point x="480" y="592"/>
      <point x="522" y="620"/>
      <point x="551" y="656" type="curve"/>
      <point x="511" y="723" type="line"/>
      <point x="487" y="706"/>
      <point x="471" y="698"/>
      <point x="448" y="698" type="curve"/>
      <point x="422" y="698"/>
      <point x="400" y="708"/>
      <point x="373" y="720" type="curve"/>
      <point x="350" y="731"/>
      <point x="330" y="741"/>
      <point x="300" y="741" type="curve"/>
      <point x="247" y="741"/>
      <point x="205" y="713"/>
      <point x="176" y="677" type="curve"/>
      <point x="216" y="610" type="line"/>
      <point x="240" y="627"/>
      <point x="256" y="635"/>
      <point x="279" y="635" type="curve"/>
      <point x="305" y="635"/>
      <point x="327" y="625"/>
      <point x="354" y="613" type="curve"/>
      <point x="377" y="602"/>
      <point x="397" y="592"/>
    </contour>
    <contour>
      <point x="357" y="123" type="curve"/>
      <point x="362" y="123" type="line"/>
      <point x="342" y="0" type="line"/>
      <point x="488" y="0" type="line"/>
      <point x="574" y="516" type="line"/>
      <point x="428" y="516" type="line"/>
      <point x="383" y="247" type="line" smooth="yes"/>
      <point x="376" y="205"/>
      <point x="351" y="167"/>
      <point x="336" y="147" type="curve"/>
      <point x="313" y="117"/>
      <point x="289" y="100"/>
      <point x="255" y="100" type="curve"/>
      <point x="210" y="100"/>
      <point x="195" y="134"/>
      <point x="195" y="161" type="curve"/>
      <point x="195" y="186"/>
      <point x="199" y="206"/>
      <point x="202" y="224" type="curve"/>
      <point x="251" y="516" type="line"/>
      <point x="105" y="516" type="line"/>
      <point x="59" y="241" type="line" smooth="yes"/>
      <point x="51" y="193"/>
      <point x="48" y="166"/>
      <point x="48" y="137" type="curve"/>
      <point x="48" y="57"/>
      <point x="88" y="-12"/>
      <point x="189" y="-12" type="curve"/>
      <point x="271" y="-12"/>
      <point x="318" y="39"/>
    </contour>
  </outline>
</glyph>
<glyph name="Uring" format="1">
  <advance width="600"/>
  <unicode hex="016E"/>
  <outline>
    <contour>
      <point x="378" y="720" type="curve"/>
      <point x="470" y="720"/>
      <point x="546" y="786"/>
      <point x="546" y="880" type="curve"/>
      <point x="546" y="950"/>
      <point x="489" y="1004"/>
      <point x="416" y="1004" type="curve"/>
      <point x="324" y="1004"/>
      <point x="248" y="938"/>
      <point x="248" y="844" type="curve"/>
      <point x="248" y="774"/>
      <point x="305" y="720"/>
    </contour>
    <contour>
      <point x="386" y="794" type="curve"/>
      <point x="357" y="794"/>
      <point x="343" y="809"/>
      <point x="343" y="834" type="curve"/>
      <point x="343" y="844"/>
      <point x="345" y="855"/>
      <point x="349" y="879" type="curve"/>
      <point x="354" y="909"/>
      <point x="374" y="930"/>
      <point x="408" y="930" type="curve"/>
      <point x="437" y="930"/>
      <point x="451" y="915"/>
      <point x="451" y="890" type="curve"/>
      <point x="451" y="880"/>
      <point x="449" y="869"/>
      <point x="445" y="845" type="curve"/>
      <point x="440" y="815"/>
      <point x="420" y="794"/>
    </contour>
    <contour>
      <point x="202" y="260" type="curve"/>
      <point x="275" y="698" type="line"/>
      <point x="128" y="698" type="line"/>
      <point x="60" y="291" type="line" smooth="yes"/>
      <point x="53" y="249"/>
      <point x="49" y="210"/>
      <point x="49" y="176" type="curve"/>
      <point x="49" y="62"/>
      <point x="103" y="-12"/>
      <point x="269" y="-12" type="curve"/>
      <point x="470" y="-12"/>
      <point x="516" y="86"/>
      <point x="547" y="272" type="curve"/>
      <point x="618" y="698" type="line"/>
      <point x="471" y="698" type="line"/>
      <point x="397" y="255" type="line" smooth="yes"/>
      <point x="382" y="165"/>
      <point x="366" y="108"/>
      <point x="277" y="108" type="curve"/>
      <point x="216" y="108"/>
      <point x="194" y="136"/>
      <point x="194" y="186" type="curve"/>
      <point x="194" y="200"/>
      <point x="196" y="224"/>
    </contour>
  </outline>
</glyph>
<glyph name="Uogonek" format="1">
  <advance width="600"/>
  <unicode hex="0172"/>
  <outline>
    <contour>
      <point x="202" y="261" type="curve"/>
      <point x="275" y="698" type="line"/>
      <point x="128" y="698" type="line"/>
      <point x="60" y="291" type="line" smooth="yes"/>
      <point x="53" y="249"/>
      <point x="49" y="210"/>
      <point x="49" y="176" type="curve"/>
      <point x="49" y="62"/>
      <point x="103" y="-12"/>
      <point x="269" y="-12" type="curve"/>
      <point x="279" y="-12"/>
      <point x="286" y="-12"/>
      <point x="298" y="-10" type="curve"/>
      <point x="300" y="-16" type="line"/>
      <point x="228" y="-43"/>
      <point x="195" y="-83"/>
      <point x="195" y="-127" type="curve"/>
      <point x="195" y="-182"/>
      <point x="246" y="-212"/>
      <point x="317" y="-212" type="curve"/>
      <point x="374" y="-212"/>
      <point x="413" y="-190"/>
      <point x="438" y="-158" type="curve"/>
      <point x="384" y="-113" type="line"/>
      <point x="370" y="-134"/>
      <point x="351" y="-140"/>
      <point x="331" y="-140" type="curve"/>
      <point x="305" y="-140"/>
      <point x="294" y="-127"/>
      <point x="294" y="-110" type="curve"/>
      <point x="294" y="-90"/>
      <point x="310" y="-37"/>
      <point x="401" y="9" type="curve"/>
      <point x="502" y="60"/>
      <point x="525" y="142"/>
      <point x="547" y="271" type="curve"/>
      <point x="618" y="698" type="line"/>
      <point x="471" y="698" type="line"/>
      <point x="397" y="256" type="line" smooth="yes"/>
      <point x="382" y="165"/>
      <point x="366" y="108"/>
      <point x="277" y="108" type="curve"/>
      <point x="216" y="108"/>
      <point x="194" y="136"/>
      <point x="194" y="186" type="curve"/>
      <point x="194" y="200"/>
      <point x="196" y="225"/>
    </contour>
  </outline>
</glyph>
<glyph name="Aringacute" format="1">
  <advance width="600"/>
  <unicode hex="01FA"/>
  <outline>
    <contour>
      <point x="365" y="1032" type="line"/>
      <point x="414" y="976" type="line"/>
      <point x="572" y="1070" type="line"/>
      <point x="507" y="1149" type="line"/>
    </contour>
    <contour>
      <point x="375" y="726" type="curve"/>
      <point x="467" y="726"/>
      <point x="543" y="776"/>
      <point x="543" y="860" type="curve"/>
      <point x="543" y="926"/>
      <point x="485" y="965"/>
      <point x="410" y="965" type="curve"/>
      <point x="318" y="965"/>
      <point x="242" y="915"/>
      <point x="242" y="831" type="curve"/>
      <point x="242" y="765"/>
      <point x="300" y="726"/>
    </contour>
    <contour>
      <point x="384" y="795" type="curve"/>
      <point x="354" y="795"/>
      <point x="338" y="806"/>
      <point x="338" y="830" type="curve"/>
      <point x="338" y="833"/>
      <point x="339" y="840"/>
      <point x="341" y="852" type="curve"/>
      <point x="346" y="882"/>
      <point x="365" y="896"/>
      <point x="401" y="896" type="curve"/>
      <point x="431" y="896"/>
      <point x="447" y="885"/>
      <point x="447" y="861" type="curve"/>
      <point x="447" y="858"/>
      <point x="446" y="851"/>
      <point x="444" y="839" type="curve"/>
      <point x="439" y="809"/>
      <point x="420" y="795"/>
    </contour>
    <contour>
      <point x="383" y="169" type="line"/>
      <point x="400" y="0" type="line"/>
      <point x="552" y="0" type="line"/>
      <point x="476" y="698" type="line"/>
      <point x="270" y="698" type="line"/>
      <point x="-37" y="0" type="line"/>
      <point x="118" y="0" type="line"/>
      <point x="187" y="169" type="line"/>
    </contour>
    <contour>
      <point x="347" y="553" type="line"/>
      <point x="356" y="553" type="line"/>
      <point x="377" y="289" type="line"/>
      <point x="237" y="289" type="line"/>
    </contour>
  </outline>
</glyph>
<glyph name="AEacute" format="1">
  <advance width="900"/>
  <unicode hex="01FC"/>
  <outline>
    <contour>
      <point x="589" y="786" type="line"/>
      <point x="675" y="740" type="line"/>
      <point x="818" y="916" type="line"/>
      <point x="704" y="976" type="line"/>
    </contour>
    <component base="AE"/>
  </outline>
</glyph>
<glyph name="aeacute" format="1">
  <advance width="900"/>
  <unicode hex="01FD"/>
  <outline>
    <contour>
      <point x="430" y="616" type="line"/>
      <point x="516" y="570" type="line"/>
      <point x="659" y="746" type="line"/>
      <point x="545" y="806" type="line"/>
    </contour>
    <component base="ae" xOffset="20"/>
  </outline>
</glyph>
<glyph name="caron" format="1">
  <advance width="600"/>
  <unicode hex="02C7"/>
  <outline>
    <contour>
      <point x="145" y="737" type="line"/>
      <point x="253" y="579" type="line"/>
      <point x="377" y="579" type="line"/>
      <point x="531" y="737" type="line"/>
      <point x="461" y="794" type="line"/>
      <point x="327" y="679" type="line"/>
      <point x="221" y="794" type="line"/>
    </contour>
  </outline>
</glyph>
<glyph name="breve" format="1">
  <advance width="600"/>
  <unicode hex="02D8"/>
  <outline>
    <contour>
      <point x="323" y="570" type="curve"/>
      <point x="432" y="570"/>
      <point x="489" y="655"/>
      <point x="532" y="740" type="curve"/>
      <point x="449" y="782" type="line"/>
      <point x="423" y="747" type="line" smooth="yes"/>
      <point x="387" y="698"/>
      <point x="365" y="673"/>
      <point x="329" y="673" type="curve"/>
      <point x="287" y="673"/>
      <point x="269" y="700"/>
      <point x="245" y="745" type="curve"/>
      <point x="225" y="782" type="line"/>
      <point x="144" y="740" type="line"/>
      <point x="165" y="658"/>
      <point x="210" y="570"/>
    </contour>
    <contour>
      <point x="309" y="508" type="move" name="_top"/>
    </contour>
  </outline>
</glyph>
<glyph name="dotaccent" format="1">
  <advance width="600"/>
  <unicode hex="02D9"/>
  <outline>
    <contour>
      <point x="317" y="584" type="curve"/>
      <point x="377" y="584"/>
      <point x="404" y="608"/>
      <point x="411" y="650" type="curve"/>
      <point x="415" y="674"/>
      <point x="416" y="683"/>
      <point x="416" y="690" type="curve"/>
      <point x="416" y="725"/>
      <point x="394" y="751"/>
      <point x="334" y="751" type="curve"/>
      <point x="274" y="751"/>
      <point x="247" y="727"/>
      <point x="240" y="685" type="curve"/>
      <point x="236" y="661"/>
      <point x="235" y="652"/>
      <point x="235" y="645" type="curve"/>
      <point x="235" y="610"/>
      <point x="257" y="584"/>
    </contour>
  </outline>
</glyph>
<glyph name="uni0301" format="1">
  <advance width="0"/>
  <unicode hex="0301"/>
  <outline>
    <contour>
      <point x="-63" y="616" type="line"/>
      <point x="23" y="570" type="line"/>
      <point x="166" y="746" type="line"/>
      <point x="52" y="806" type="line"/>
    </contour>
  </outline>
</glyph>
<glyph name="uni0302" format="1">
  <advance width="0"/>
  <unicode hex="0302"/>
  <outline>
    <contour>
      <point x="211" y="627" type="line"/>
      <point x="103" y="785" type="line"/>
      <point x="-21" y="785" type="line"/>
      <point x="-175" y="627" type="line"/>
      <point x="-105" y="570" type="line"/>
      <point x="29" y="685" type="line"/>
      <point x="135" y="570" type="line"/>
    </contour>
  </outline>
</glyph>
<glyph name="uni0304" format="1">
  <advance width="0"/>
  <unicode hex="0304"/>
  <outline>
    <contour>
      <point x="186" y="718" type="line"/>
      <point x="-119" y="718" type="line"/>
      <point x="-136" y="616" type="line"/>
      <point x="169" y="616" type="line"/>
    </contour>
  </outline>
</glyph>
<glyph name="uni0308" format="1">
  <advance width="0"/>
  <unicode hex="0308"/>
  <outline>
    <contour>
      <point x="-92" y="592" type="curve"/>
      <point x="-34" y="592"/>
      <point x="-13" y="616"/>
      <point x="-7" y="652" type="curve"/>
      <point x="-4" y="670"/>
      <point x="-2" y="681"/>
      <point x="-2" y="687" type="curve"/>
      <point x="-2" y="718"/>
      <point x="-22" y="741"/>
      <point x="-76" y="741" type="curve"/>
      <point x="-134" y="741"/>
      <point x="-155" y="717"/>
      <point x="-161" y="681" type="curve"/>
      <point x="-164" y="663"/>
      <point x="-166" y="652"/>
      <point x="-166" y="646" type="curve"/>
      <point x="-166" y="615"/>
      <point x="-146" y="592"/>
    </contour>
    <contour>
      <point x="126" y="592" type="curve"/>
      <point x="184" y="592"/>
      <point x="205" y="616"/>
      <point x="211" y="652" type="curve"/>
      <point x="214" y="670"/>
      <point x="216" y="681"/>
      <point x="216" y="687" type="curve"/>
      <point x="216" y="718"/>
      <point x="196" y="741"/>
      <point x="142" y="741" type="curve"/>
      <point x="84" y="741"/>
      <point x="63" y="717"/>
      <point x="57" y="681" type="curve"/>
      <point x="54" y="663"/>
      <point x="52" y="652"/>
      <point x="52" y="646" type="curve"/>
      <point x="52" y="615"/>
      <point x="72" y="592"/>
    </contour>
  </outline>
</glyph>
<glyph name="uni030A" format="1">
  <advance width="0"/>
  <unicode hex="030A"/>
  <outline>
    <contour>
      <point x="9" y="550" type="curve"/>
      <point x="101" y="550"/>
      <point x="177" y="616"/>
      <point x="177" y="710" type="curve"/>
      <point x="177" y="780"/>
      <point x="120" y="834"/>
      <point x="47" y="834" type="curve"/>
      <point x="-45" y="834"/>
      <point x="-121" y="768"/>
      <point x="-121" y="674" type="curve"/>
      <point x="-121" y="604"/>
      <point x="-64" y="550"/>
    </contour>
    <contour>
      <point x="17" y="624" type="curve"/>
      <point x="-12" y="624"/>
      <point x="-26" y="639"/>
      <point x="-26" y="664" type="curve"/>
      <point x="-26" y="674"/>
      <point x="-24" y="685"/>
      <point x="-20" y="709" type="curve"/>
      <point x="-15" y="739"/>
      <point x="5" y="760"/>
      <point x="39" y="760" type="curve"/>
      <point x="68" y="760"/>
      <point x="82" y="745"/>
      <point x="82" y="720" type="curve"/>
      <point x="82" y="710"/>
      <point x="80" y="699"/>
      <point x="76" y="675" type="curve"/>
      <point x="71" y="645"/>
      <point x="51" y="624"/>
    </contour>
  </outline>
</glyph>
<glyph name="uni030B" format="1">
  <advance width="0"/>
  <unicode hex="030B"/>
  <outline>
    <contour>
      <point x="-158" y="609" type="line"/>
      <point x="-80" y="571" type="line"/>
      <point x="58" y="746" type="line"/>
      <point x="-50" y="802" type="line"/>
    </contour>
    <contour>
      <point x="41" y="609" type="line"/>
      <point x="119" y="571" type="line"/>
      <point x="257" y="746" type="line"/>
      <point x="149" y="802" type="line"/>
    </contour>
  </outline>
</glyph>
<glyph name="uni0312" format="1">
  <advance width="0"/>
  <unicode hex="0312"/>
  <outline>
    <contour>
      <point x="141" y="794" type="line"/>
      <point x="53" y="794" type="line"/>
      <point x="-68" y="579" type="line"/>
      <point x="88" y="579" type="line"/>
    </contour>
  </outline>
</glyph>
<glyph name="uni0323" format="1">
  <advance width="0"/>
  <unicode hex="0323"/>
  <outline>
    <contour>
      <point x="-28" y="-202" type="curve"/>
      <point x="27" y="-202"/>
      <point x="49" y="-179"/>
      <point x="55" y="-143" type="curve"/>
      <point x="58" y="-125"/>
      <point x="60" y="-114"/>
      <point x="60" y="-107" type="curve"/>
      <point x="60" y="-76"/>
      <point x="42" y="-53"/>
      <point x="-12" y="-53" type="curve"/>
      <point x="-67" y="-53"/>
      <point x="-89" y="-76"/>
      <point x="-95" y="-112" type="curve"/>
      <point x="-98" y="-130"/>
      <point x="-100" y="-141"/>
      <point x="-100" y="-148" type="curve"/>
      <point x="-100" y="-179"/>
      <point x="-82" y="-202"/>
    </contour>
  </outline>
</glyph>
<glyph name="uni0327" format="1">
  <advance width="0"/>
  <unicode hex="0327"/>
  <outline>
    <contour>
      <point x="-15" y="-212" type="curve"/>
      <point x="64" y="-212"/>
      <point x="125" y="-175"/>
      <point x="125" y="-114" type="curve"/>
      <point x="125" y="-70"/>
      <point x="94" y="-52"/>
      <point x="58" y="-52" type="curve"/>
      <point x="46" y="-52"/>
      <point x="32" y="-54"/>
      <point x="17" y="-59" type="curve"/>
      <point x="14" y="-55" type="line"/>
      <point x="45" y="30" type="line"/>
      <point x="-22" y="30" type="line"/>
      <point x="-62" y="-74" type="line"/>
      <point x="-39" y="-76" type="line" smooth="yes"/>
      <point x="16" y="-81"/>
      <point x="29" y="-97"/>
      <point x="29" y="-112" type="curve"/>
      <point x="29" y="-132"/>
      <point x="7" y="-141"/>
      <point x="-18" y="-141" type="curve"/>
      <point x="-52" y="-141"/>
      <point x="-72" y="-125"/>
      <point x="-82" y="-113" type="curve"/>
      <point x="-133" y="-166" type="line"/>
      <point x="-114" y="-191"/>
      <point x="-75" y="-212"/>
    </contour>
  </outline>
</glyph>
<glyph name="uni037A" format="1">
  <advance width="300"/>
  <unicode hex="037A"/>
  <outline>
    <contour>
      <point x="112" y="-290" type="curve"/>
      <point x="200" y="-290" type="line"/>
      <point x="222" y="-178" type="line"/>
      <point x="127" y="-178" type="line"/>
      <point x="160" y="-55" type="line"/>
      <point x="20" y="-55" type="line"/>
      <point x="-7" y="-148" type="line" smooth="yes"/>
      <point x="-11" y="-163"/>
      <point x="-11" y="-181"/>
      <point x="-11" y="-191" type="curve"/>
      <point x="-11" y="-257"/>
      <point x="31" y="-290"/>
    </contour>
    <contour>
      <point x="100" y="0" type="move" name="_bottom"/>
    </contour>
  </outline>
</glyph>
<glyph name="uni037E" format="1">
  <advance width="600"/>
  <unicode hex="037E"/>
  <note>
    uni037E
  </note>
  <outline>
    <contour>
      <point x="315" y="357" type="curve"/>
      <point x="371" y="357"/>
      <point x="403" y="387"/>
      <point x="412" y="431" type="curve"/>
      <point x="415" y="445"/>
      <point x="419" y="466"/>
      <point x="419" y="477" type="curve"/>
      <point x="419" y="506"/>
      <point x="399" y="537"/>
      <point x="343" y="537" type="curve"/>
      <point x="287" y="537"/>
      <point x="255" y="507"/>
      <point x="246" y="463" type="curve"/>
      <point x="243" y="449"/>
      <point x="239" y="428"/>
      <point x="239" y="417" type="curve"/>
      <point x="239" y="388"/>
      <point x="259" y="357"/>
    </contour>
    <contour>
      <point x="273" y="169" type="curve"/>
      <point x="219" y="169"/>
      <point x="187" y="140"/>
      <point x="178" y="95" type="curve"/>
      <point x="175" y="80"/>
      <point x="171" y="60"/>
      <point x="171" y="49" type="curve"/>
      <point x="171" y="25"/>
      <point x="185" y="0"/>
      <point x="222" y="-8" type="curve"/>
      <point x="195" y="-61"/>
      <point x="153" y="-103"/>
      <point x="97" y="-147" type="curve"/>
      <point x="203" y="-147" type="line"/>
      <point x="278" y="-94"/>
      <point x="330" y="-11"/>
      <point x="344" y="59" type="curve"/>
      <point x="347" y="74"/>
      <point x="350" y="92"/>
      <point x="350" y="103" type="curve"/>
      <point x="350" y="137"/>
      <point x="330" y="169"/>
    </contour>
  </outline>
</glyph>
<glyph name="tonos" format="1">
  <advance width="600"/>
  <unicode hex="0384"/>
  <note>
    tonos
  </note>
  <outline>
    <contour>
      <point x="328" y="608" type="line"/>
      <point x="417" y="579" type="line"/>
      <point x="526" y="784" type="line"/>
      <point x="401" y="815" type="line"/>
    </contour>
    <contour>
      <point x="357" y="522" type="move" name="_top"/>
    </contour>
  </outline>
</glyph>
<glyph name="dieresistonos" format="1">
  <advance width="600"/>
  <unicode hex="0385"/>
  <note>
    dieresistonos
  </note>
  <outline>
    <contour>
      <point x="303" y="600" type="line"/>
      <point x="363" y="579" type="line"/>
      <point x="467" y="789" type="line"/>
      <point x="372" y="816" type="line"/>
    </contour>
    <contour>
      <point x="220" y="605" type="curve"/>
      <point x="265" y="605"/>
      <point x="286" y="632"/>
      <point x="291" y="665" type="curve"/>
      <point x="295" y="684"/>
      <point x="297" y="694"/>
      <point x="297" y="701" type="curve"/>
      <point x="297" y="726"/>
      <point x="281" y="746"/>
      <point x="243" y="746" type="curve"/>
      <point x="198" y="746"/>
      <point x="176" y="719"/>
      <point x="171" y="686" type="curve"/>
      <point x="168" y="667"/>
      <point x="166" y="657"/>
      <point x="166" y="650" type="curve"/>
      <point x="166" y="625"/>
      <point x="182" y="605"/>
    </contour>
    <contour>
      <point x="503" y="605" type="curve"/>
      <point x="548" y="605"/>
      <point x="569" y="632"/>
      <point x="574" y="665" type="curve"/>
      <point x="578" y="684"/>
      <point x="580" y="694"/>
      <point x="580" y="701" type="curve"/>
      <point x="580" y="726"/>
      <point x="564" y="746"/>
      <point x="526" y="746" type="curve"/>
      <point x="481" y="746"/>
      <point x="459" y="719"/>
      <point x="454" y="686" type="curve"/>
      <point x="451" y="667"/>
      <point x="449" y="657"/>
      <point x="449" y="650" type="curve"/>
      <point x="449" y="625"/>
      <point x="465" y="605"/>
    </contour>
  </outline>
</glyph>
<glyph name="anoteleia" format="1">
  <advance width="600"/>
  <unicode hex="0387"/>
  <note>
    anoteleia
  </note>
  <outline>
    <contour>
      <point x="305" y="357" type="curve"/>
      <point x="361" y="357"/>
      <point x="393" y="387"/>
      <point x="402" y="431" type="curve"/>
      <point x="405" y="445"/>
      <point x="409" y="466"/>
      <point x="409" y="477" type="curve"/>
      <point x="409" y="506"/>
      <point x="389" y="537"/>
      <point x="333" y="537" type="curve"/>
      <point x="277" y="537"/>
      <point x="245" y="507"/>
      <point x="236" y="463" type="curve"/>
      <point x="233" y="449"/>
      <point x="229" y="428"/>
      <point x="229" y="417" type="curve"/>
      <point x="229" y="388"/>
      <point x="249" y="357"/>
    </contour>
  </outline>
</glyph>
<glyph name="Alpha" format="1">
  <advance width="600"/>
  <unicode hex="0391"/>
  <note>
    Alpha
  </note>
  <outline>
    <component base="A"/>
    <contour>
      <point x="351" y="698" type="move" name="top"/>
    </contour>
  </outline>
</glyph>
<glyph name="Gamma" format="1">
  <advance width="600"/>
  <unicode hex="0393"/>
  <note>
    Gamma
  </note>
  <outline>
    <contour>
      <point x="599" y="698" type="line"/>
      <point x="152" y="698" type="line"/>
      <point x="22" y="0" type="line"/>
      <point x="167" y="0" type="line"/>
      <point x="271" y="570" type="line"/>
      <point x="573" y="570" type="line"/>
    </contour>
  </outline>
</glyph>
<glyph name="uni0394" format="1">
  <advance width="600"/>
  <unicode hex="0394"/>
  <note>
    uni0394
  </note>
  <outline>
    <contour>
      <point x="291" y="698" type="line"/>
      <point x="-13" y="119" type="line"/>
      <point x="-36" y="0" type="line"/>
      <point x="544" y="0" type="line"/>
      <point x="568" y="119" type="line"/>
      <point x="476" y="698" type="line"/>
    </contour>
    <contour>
      <point x="353" y="567" type="line"/>
      <point x="361" y="567" type="line"/>
      <point x="423" y="128" type="line"/>
      <point x="142" y="128" type="line"/>
    </contour>
  </outline>
</glyph>
<glyph name="Epsilon" format="1">
  <advance width="600"/>
  <unicode hex="0395"/>
  <note>
    Epsilon
  </note>
  <outline>
    <component base="E"/>
    <contour>
      <point x="249" y="702" type="move" name="top"/>
    </contour>
  </outline>
</glyph>
<glyph name="Eta" format="1">
  <advance width="600"/>
  <unicode hex="0397"/>
  <note>
    Eta
  </note>
  <outline>
    <component base="H"/>
    <contour>
      <point x="238" y="698" type="move" name="top"/>
    </contour>
  </outline>
</glyph>
<glyph name="Theta" format="1">
  <advance width="600"/>
  <unicode hex="0398"/>
  <note>
    Theta
  </note>
  <outline>
    <contour>
      <point x="257" y="417" type="line"/>
      <point x="231" y="289" type="line"/>
      <point x="369" y="289" type="line"/>
      <point x="395" y="417" type="line"/>
    </contour>
    <component base="O"/>
  </outline>
</glyph>
<glyph name="Iota" format="1">
  <advance width="300"/>
  <unicode hex="0399"/>
  <note>
    Iota
  </note>
  <outline>
    <contour>
      <point x="157" y="698" type="line"/>
      <point x="32" y="0" type="line"/>
      <point x="177" y="0" type="line"/>
      <point x="302" y="698" type="line"/>
    </contour>
    <contour>
      <point x="302" y="698" type="move" name="top"/>
    </contour>
  </outline>
</glyph>
<glyph name="Lambda" format="1">
  <advance width="600"/>
  <unicode hex="039B"/>
  <note>
    Lambda
  </note>
  <outline>
    <contour>
      <point x="-37" y="0" type="line"/>
      <point x="118" y="0" type="line"/>
      <point x="237" y="289" type="line"/>
      <point x="347" y="553" type="line"/>
      <point x="356" y="553" type="line"/>
      <point x="377" y="289" type="line"/>
      <point x="400" y="0" type="line"/>
      <point x="552" y="0" type="line"/>
      <point x="476" y="698" type="line"/>
      <point x="270" y="698" type="line"/>
    </contour>
  </outline>
</glyph>
<glyph name="Xi" format="1">
  <advance width="600"/>
  <unicode hex="039E"/>
  <note>
    Xi
  </note>
  <outline>
    <contour>
      <point x="627" y="698" type="line"/>
      <point x="147" y="698" type="line"/>
      <point x="121" y="570" type="line"/>
      <point x="601" y="570" type="line"/>
    </contour>
    <contour>
      <point x="512" y="417" type="line"/>
      <point x="150" y="417" type="line"/>
      <point x="124" y="289" type="line"/>
      <point x="486" y="289" type="line"/>
    </contour>
    <contour>
      <point x="513" y="128" type="line"/>
      <point x="33" y="128" type="line"/>
      <point x="7" y="0" type="line"/>
      <point x="487" y="0" type="line"/>
    </contour>
  </outline>
</glyph>
<glyph name="Omicron" format="1">
  <advance width="600"/>
  <unicode hex="039F"/>
  <note>
    Omicron
  </note>
  <outline>
    <component base="O"/>
    <contour>
      <point x="347" y="698" type="move" name="top"/>
    </contour>
  </outline>
</glyph>
<glyph name="Pi" format="1">
  <advance width="600"/>
  <unicode hex="03A0"/>
  <note>
    Pi
  </note>
  <outline>
    <contour>
      <point x="617" y="698" type="line"/>
      <point x="142" y="698" type="line"/>
      <point x="22" y="0" type="line"/>
      <point x="167" y="0" type="line"/>
      <point x="261" y="569" type="line"/>
      <point x="446" y="569" type="line"/>
      <point x="352" y="0" type="line"/>
      <point x="497" y="0" type="line"/>
    </contour>
  </outline>
</glyph>
<glyph name="Rho" format="1">
  <advance width="600"/>
  <unicode hex="03A1"/>
  <note>
    Rho
  </note>
  <outline>
    <component base="P"/>
    <contour>
      <point x="347" y="692" type="move" name="top"/>
    </contour>
  </outline>
</glyph>
<glyph name="Sigma" format="1">
  <advance width="600"/>
  <unicode hex="03A3"/>
  <note>
    Sigma
  </note>
  <outline>
    <contour>
      <point x="17" y="128" type="line"/>
      <point x="-9" y="0" type="line"/>
      <point x="496" y="0" type="line"/>
      <point x="517" y="128" type="line"/>
      <point x="195" y="128" type="line"/>
      <point x="453" y="344" type="line"/>
      <point x="266" y="570" type="line"/>
      <point x="600" y="570" type="line"/>
      <point x="620" y="698" type="line"/>
      <point x="125" y="698" type="line"/>
      <point x="105" y="570" type="line"/>
      <point x="283" y="355" type="line"/>
    </contour>
  </outline>
</glyph>
<glyph name="Upsilon" format="1">
  <advance width="600"/>
  <unicode hex="03A5"/>
  <note>
    Upsilon
  </note>
  <outline>
    <component base="Y"/>
    <contour>
      <point x="236" y="698" type="move" name="top"/>
    </contour>
  </outline>
</glyph>
<glyph name="Phi" format="1">
  <advance width="900"/>
  <unicode hex="03A6"/>
  <note>
    Phi
  </note>
  <outline>
    <contour>
      <point x="329" y="32" type="curve"/>
      <point x="330" y="32" type="line"/>
      <point x="315" y="-44" type="line"/>
      <point x="460" y="-44" type="line"/>
      <point x="475" y="32" type="line"/>
      <point x="476" y="32" type="line" smooth="yes"/>
      <point x="733" y="32"/>
      <point x="868" y="185"/>
      <point x="868" y="431" type="curve"/>
      <point x="868" y="585"/>
      <point x="766" y="676"/>
      <point x="606" y="676" type="curve"/>
      <point x="605" y="676" type="line"/>
      <point x="618" y="740" type="line"/>
      <point x="473" y="740" type="line"/>
      <point x="460" y="676" type="line"/>
      <point x="459" y="676" type="line" smooth="yes"/>
      <point x="202" y="676"/>
      <point x="67" y="523"/>
      <point x="67" y="277" type="curve"/>
      <point x="67" y="123"/>
      <point x="170" y="32"/>
    </contour>
    <contour>
      <point x="437" y="557" type="curve"/>
      <point x="438" y="557" type="line"/>
      <point x="357" y="151" type="line"/>
      <point x="356" y="151" type="line" smooth="yes"/>
      <point x="257" y="151"/>
      <point x="214" y="187"/>
      <point x="214" y="277" type="curve"/>
      <point x="214" y="299"/>
      <point x="216" y="318"/>
      <point x="220" y="338" type="curve"/>
      <point x="229" y="382" type="line" smooth="yes"/>
      <point x="255" y="507"/>
      <point x="322" y="557"/>
    </contour>
    <contour>
      <point x="498" y="151" type="curve"/>
      <point x="497" y="151" type="line"/>
      <point x="578" y="557" type="line"/>
      <point x="579" y="557" type="line" smooth="yes"/>
      <point x="678" y="557"/>
      <point x="721" y="521"/>
      <point x="721" y="431" type="curve"/>
      <point x="721" y="409"/>
      <point x="719" y="390"/>
      <point x="715" y="370" type="curve"/>
      <point x="706" y="326" type="line" smooth="yes"/>
      <point x="680" y="200"/>
      <point x="613" y="151"/>
    </contour>
  </outline>
</glyph>
<glyph name="Psi" format="1">
  <advance width="900"/>
  <unicode hex="03A8"/>
  <note>
    Psi
  </note>
  <outline>
    <contour>
      <point x="354" y="176" type="curve"/>
      <point x="319" y="0" type="line"/>
      <point x="464" y="0" type="line"/>
      <point x="499" y="176" type="line"/>
      <point x="709" y="176"/>
      <point x="803" y="267"/>
      <point x="843" y="465" type="curve"/>
      <point x="890" y="698" type="line"/>
      <point x="745" y="698" type="line"/>
      <point x="698" y="466" type="line" smooth="yes"/>
      <point x="670" y="330"/>
      <point x="623" y="295"/>
      <point x="523" y="295" type="curve"/>
      <point x="604" y="698" type="line"/>
      <point x="459" y="698" type="line"/>
      <point x="378" y="295" type="line"/>
      <point x="297" y="295"/>
      <point x="263" y="327"/>
      <point x="263" y="387" type="curve"/>
      <point x="263" y="407"/>
      <point x="264" y="430"/>
      <point x="274" y="478" type="curve"/>
      <point x="318" y="698" type="line"/>
      <point x="173" y="698" type="line"/>
      <point x="131" y="488" type="line" smooth="yes"/>
      <point x="123" y="448"/>
      <point x="120" y="415"/>
      <point x="120" y="387" type="curve"/>
      <point x="120" y="263"/>
      <point x="208" y="176"/>
    </contour>
  </outline>
</glyph>
<glyph name="uni03A9" format="1">
  <advance width="600"/>
  <unicode hex="03A9"/>
  <note>
    uni03A9
  </note>
  <outline>
    <contour>
      <point x="151" y="128" type="line"/>
      <point x="-4" y="128" type="line"/>
      <point x="-26" y="0" type="line"/>
      <point x="234" y="0" type="line"/>
      <point x="270" y="190" type="line"/>
      <point x="223" y="207"/>
      <point x="195" y="260"/>
      <point x="195" y="309" type="curve"/>
      <point x="195" y="326"/>
      <point x="197" y="344"/>
      <point x="201" y="365" type="curve"/>
      <point x="213" y="432" type="line" smooth="yes"/>
      <point x="226" y="505"/>
      <point x="281" y="578"/>
      <point x="360" y="578" type="curve"/>
      <point x="425" y="578"/>
      <point x="465" y="526"/>
      <point x="465" y="466" type="curve"/>
      <point x="465" y="456"/>
      <point x="464" y="442"/>
      <point x="462" y="432" type="curve"/>
      <point x="446" y="345" type="line" smooth="yes"/>
      <point x="434" y="277"/>
      <point x="388" y="210"/>
      <point x="315" y="190" type="curve"/>
      <point x="279" y="0" type="line"/>
      <point x="539" y="0" type="line"/>
      <point x="561" y="128" type="line"/>
      <point x="406" y="128" type="line"/>
      <point x="408" y="138" type="line"/>
      <point x="548" y="196"/>
      <point x="615" y="315"/>
      <point x="615" y="453" type="curve"/>
      <point x="615" y="599"/>
      <point x="518" y="710"/>
      <point x="375" y="710" type="curve"/>
      <point x="187" y="710"/>
      <point x="52" y="551"/>
      <point x="52" y="361" type="curve"/>
      <point x="52" y="253"/>
      <point x="86" y="177"/>
      <point x="153" y="138" type="curve"/>
    </contour>
    <contour>
      <point x="377" y="712" type="move" name="top"/>
    </contour>
  </outline>
</glyph>
<glyph name="alpha" format="1">
  <advance width="600"/>
  <unicode hex="03B1"/>
  <note>
    alpha
  </note>
  <outline>
    <contour>
      <point x="430" y="0" type="curve"/>
      <point x="523" y="0" type="line"/>
      <point x="545" y="112" type="line"/>
      <point x="486" y="112" type="line"/>
      <point x="569" y="525" type="line"/>
      <point x="429" y="525" type="line"/>
      <point x="411" y="434" type="line"/>
      <point x="406" y="434" type="line"/>
      <point x="399" y="491"/>
      <point x="348" y="537"/>
      <point x="275" y="537" type="curve"/>
      <point x="141" y="537"/>
      <point x="31" y="393"/>
      <point x="31" y="170" type="curve"/>
      <point x="31" y="65"/>
      <point x="73" y="-12"/>
      <point x="171" y="-12" type="curve"/>
      <point x="253" y="-12"/>
      <point x="301" y="37"/>
      <point x="342" y="122" type="curve"/>
      <point x="348" y="122" type="line"/>
      <point x="345" y="107" type="line" smooth="yes"/>
      <point x="344" y="102"/>
      <point x="342" y="88"/>
      <point x="342" y="77" type="curve"/>
      <point x="342" y="28"/>
      <point x="380" y="0"/>
    </contour>
    <contour>
      <point x="240" y="103" type="curve"/>
      <point x="199" y="103"/>
      <point x="174" y="131"/>
      <point x="174" y="178" type="curve"/>
      <point x="174" y="194"/>
      <point x="177" y="221"/>
      <point x="180" y="235" type="curve"/>
      <point x="194" y="305" type="line" smooth="yes"/>
      <point x="210" y="384"/>
      <point x="247" y="422"/>
      <point x="309" y="422" type="curve"/>
      <point x="367" y="422"/>
      <point x="401" y="384"/>
      <point x="391" y="335" type="curve"/>
      <point x="375" y="255" type="line" smooth="yes"/>
      <point x="367" y="216"/>
      <point x="349" y="178"/>
      <point x="327" y="151" type="curve"/>
      <point x="306" y="125"/>
      <point x="276" y="103"/>
    </contour>
    <contour>
      <point x="263" y="-12" type="move" name="bottom"/>
    </contour>
    <contour>
      <point x="348" y="537" type="move" name="top"/>
    </contour>
  </outline>
</glyph>
<glyph name="gamma" format="1">
  <advance width="600"/>
  <unicode hex="03B3"/>
  <note>
    gamma
  </note>
  <outline>
    <contour>
      <point x="129" y="413" type="line"/>
      <point x="187" y="0" type="line"/>
      <point x="147" y="-200" type="line"/>
      <point x="287" y="-200" type="line"/>
      <point x="327" y="0" type="line"/>
      <point x="455" y="168"/>
      <point x="548" y="359"/>
      <point x="598" y="525" type="curve"/>
      <point x="449" y="525" type="line"/>
      <point x="409" y="385"/>
      <point x="352" y="253"/>
      <point x="290" y="147" type="curve"/>
      <point x="283" y="147" type="line"/>
      <point x="274" y="306" type="line"/>
      <point x="261" y="448" type="line" smooth="yes"/>
      <point x="257" y="496"/>
      <point x="225" y="525"/>
      <point x="171" y="525" type="curve"/>
      <point x="92" y="525" type="line"/>
      <point x="70" y="413" type="line"/>
    </contour>
  </outline>
</glyph>
<glyph name="delta" format="1">
  <advance width="600"/>
  <unicode hex="03B4"/>
  <note>
    delta
  </note>
  <outline>
    <contour>
      <point x="316" y="637" type="line"/>
      <point x="412" y="628" type="line"/>
      <point x="567" y="628" type="line"/>
      <point x="589" y="740" type="line"/>
      <point x="212" y="740" type="line"/>
      <point x="183" y="595" type="line"/>
      <point x="293" y="497" type="line"/>
      <point x="292" y="492" type="line"/>
      <point x="196" y="492"/>
      <point x="61" y="399"/>
      <point x="61" y="207" type="curve"/>
      <point x="61" y="69"/>
      <point x="142" y="-12"/>
      <point x="270" y="-12" type="curve"/>
      <point x="426" y="-12"/>
      <point x="541" y="128"/>
      <point x="541" y="318" type="curve"/>
      <point x="541" y="418"/>
      <point x="509" y="489"/>
      <point x="400" y="570" type="curve"/>
      <point x="315" y="633" type="line"/>
    </contour>
    <contour>
      <point x="398" y="339" type="curve"/>
      <point x="398" y="314"/>
      <point x="394" y="283"/>
      <point x="380" y="215" type="curve"/>
      <point x="365" y="140"/>
      <point x="328" y="101"/>
      <point x="275" y="101" type="curve"/>
      <point x="226" y="101"/>
      <point x="200" y="134"/>
      <point x="200" y="184" type="curve"/>
      <point x="200" y="203"/>
      <point x="207" y="238"/>
      <point x="221" y="303" type="curve"/>
      <point x="238" y="380"/>
      <point x="279" y="433"/>
      <point x="354" y="441" type="curve"/>
      <point x="388" y="404"/>
      <point x="398" y="377"/>
    </contour>
  </outline>
</glyph>
<glyph name="epsilon" format="1">
  <advance width="600"/>
  <unicode hex="03B5"/>
  <note>
    epsilon
  </note>
  <outline>
    <contour>
      <point x="513" y="101" type="curve"/>
      <point x="427" y="169" type="line"/>
      <point x="383" y="117"/>
      <point x="344" y="101"/>
      <point x="278" y="101" type="curve"/>
      <point x="216" y="101"/>
      <point x="194" y="121"/>
      <point x="194" y="149" type="curve"/>
      <point x="194" y="161"/>
      <point x="195" y="166"/>
      <point x="196" y="170" type="curve"/>
      <point x="203" y="200"/>
      <point x="228" y="218"/>
      <point x="271" y="218" type="curve"/>
      <point x="390" y="218" type="line"/>
      <point x="410" y="316" type="line"/>
      <point x="303" y="316" type="line" smooth="yes"/>
      <point x="268" y="316"/>
      <point x="253" y="330"/>
      <point x="253" y="353" type="curve"/>
      <point x="253" y="361"/>
      <point x="254" y="367"/>
      <point x="256" y="375" type="curve"/>
      <point x="264" y="405"/>
      <point x="291" y="424"/>
      <point x="349" y="424" type="curve"/>
      <point x="399" y="424"/>
      <point x="439" y="406"/>
      <point x="469" y="372" type="curve"/>
      <point x="557" y="455" type="line"/>
      <point x="511" y="509"/>
      <point x="441" y="537"/>
      <point x="355" y="537" type="curve"/>
      <point x="198" y="537"/>
      <point x="116" y="455"/>
      <point x="116" y="369" type="curve"/>
      <point x="116" y="325"/>
      <point x="143" y="287"/>
      <point x="199" y="273" type="curve"/>
      <point x="198" y="268" type="line"/>
      <point x="106" y="256"/>
      <point x="57" y="203"/>
      <point x="57" y="127" type="curve"/>
      <point x="57" y="49"/>
      <point x="123" y="-12"/>
      <point x="262" y="-12" type="curve"/>
      <point x="378" y="-12"/>
      <point x="451" y="22"/>
    </contour>
    <contour>
      <point x="357" y="542" type="move" name="top"/>
    </contour>
  </outline>
</glyph>
<glyph name="zeta" format="1">
  <advance width="600"/>
  <unicode hex="03B6"/>
  <note>
    zeta
  </note>
  <outline>
    <contour>
      <point x="590" y="740" type="line"/>
      <point x="164" y="740" type="line"/>
      <point x="142" y="628" type="line"/>
      <point x="305" y="628" type="line"/>
      <point x="416" y="637" type="line"/>
      <point x="415" y="632" type="line"/>
      <point x="224" y="487" type="line" smooth="yes"/>
      <point x="94" y="388"/>
      <point x="71" y="303"/>
      <point x="71" y="213" type="curve"/>
      <point x="71" y="105"/>
      <point x="187" y="43"/>
      <point x="314" y="-3" type="curve"/>
      <point x="339" y="-12" type="line"/>
      <point x="282" y="-129" type="line"/>
      <point x="396" y="-175" type="line"/>
      <point x="458" y="-48" type="line" smooth="yes"/>
      <point x="470" y="-24"/>
      <point x="476" y="-4"/>
      <point x="476" y="18" type="curve"/>
      <point x="476" y="64"/>
      <point x="448" y="92"/>
      <point x="395" y="111" type="curve"/>
      <point x="370" y="120" type="line" smooth="yes"/>
      <point x="294" y="147"/>
      <point x="210" y="176"/>
      <point x="210" y="220" type="curve"/>
      <point x="210" y="278"/>
      <point x="225" y="338"/>
      <point x="335" y="431" type="curve"/>
      <point x="568" y="628" type="line"/>
    </contour>
  </outline>
</glyph>
<glyph name="eta" format="1">
  <advance width="600"/>
  <unicode hex="03B7"/>
  <note>
    eta
  </note>
  <outline>
    <contour>
      <point x="117" y="413" type="line"/>
      <point x="34" y="0" type="line"/>
      <point x="174" y="0" type="line"/>
      <point x="228" y="270" type="line" smooth="yes"/>
      <point x="236" y="310"/>
      <point x="254" y="344"/>
      <point x="278" y="372" type="curve"/>
      <point x="301" y="399"/>
      <point x="329" y="420"/>
      <point x="363" y="420" type="curve"/>
      <point x="401" y="420"/>
      <point x="416" y="398"/>
      <point x="416" y="368" type="curve"/>
      <point x="416" y="348"/>
      <point x="413" y="331"/>
      <point x="409" y="312" type="curve"/>
      <point x="307" y="-200" type="line"/>
      <point x="447" y="-200" type="line"/>
      <point x="552" y="327" type="line" smooth="yes"/>
      <point x="557" y="354"/>
      <point x="561" y="376"/>
      <point x="561" y="401" type="curve"/>
      <point x="561" y="487"/>
      <point x="516" y="537"/>
      <point x="435" y="537" type="curve"/>
      <point x="353" y="537"/>
      <point x="301" y="487"/>
      <point x="261" y="403" type="curve"/>
      <point x="255" y="403" type="line"/>
      <point x="258" y="418" type="line" smooth="yes"/>
      <point x="259" y="423"/>
      <point x="261" y="437"/>
      <point x="261" y="448" type="curve"/>
      <point x="261" y="497"/>
      <point x="223" y="525"/>
      <point x="173" y="525" type="curve"/>
      <point x="80" y="525" type="line"/>
      <point x="58" y="413" type="line"/>
    </contour>
    <contour>
      <point x="105" y="0" type="move" name="bottom"/>
    </contour>
    <contour>
      <point x="377" y="532" type="move" name="top"/>
    </contour>
  </outline>
</glyph>
<glyph name="iota" format="1">
  <advance width="300"/>
  <unicode hex="03B9"/>
  <note>
    iota
  </note>
  <outline>
    <contour>
      <point x="162" y="0" type="curve"/>
      <point x="250" y="0" type="line"/>
      <point x="272" y="112" type="line"/>
      <point x="177" y="112" type="line"/>
      <point x="260" y="525" type="line"/>
      <point x="120" y="525" type="line"/>
      <point x="43" y="142" type="line" smooth="yes"/>
      <point x="40" y="127"/>
      <point x="39" y="109"/>
      <point x="39" y="99" type="curve"/>
      <point x="39" y="33"/>
      <point x="81" y="0"/>
    </contour>
    <contour>
      <point x="187" y="522" type="move" name="top"/>
    </contour>
  </outline>
</glyph>
<glyph name="kappa" format="1">
  <advance width="600"/>
  <unicode hex="03BA"/>
  <note>
    kappa
  </note>
  <outline>
    <contour>
      <point x="193" y="145" type="line"/>
      <point x="271" y="214" type="line"/>
      <point x="353" y="0" type="line"/>
      <point x="514" y="0" type="line"/>
      <point x="378" y="304" type="line"/>
      <point x="499" y="413" type="line"/>
      <point x="558" y="413" type="line"/>
      <point x="581" y="525" type="line"/>
      <point x="511" y="525" type="line" smooth="yes"/>
      <point x="467" y="525"/>
      <point x="443" y="517"/>
      <point x="413" y="489" type="curve"/>
      <point x="301" y="382" type="line"/>
      <point x="230" y="299" type="line"/>
      <point x="223" y="299" type="line"/>
      <point x="269" y="525" type="line"/>
      <point x="129" y="525" type="line"/>
      <point x="24" y="0" type="line"/>
      <point x="164" y="0" type="line"/>
    </contour>
  </outline>
</glyph>
<glyph name="lambda" format="1">
  <advance width="600"/>
  <unicode hex="03BB"/>
  <note>
    lambda
  </note>
  <outline>
    <contour>
      <point x="192" y="628" type="line"/>
      <point x="278" y="628" type="line"/>
      <point x="290" y="525" type="line"/>
      <point x="-2" y="0" type="line"/>
      <point x="147" y="0" type="line"/>
      <point x="259" y="218" type="line"/>
      <point x="313" y="356" type="line"/>
      <point x="324" y="356" type="line"/>
      <point x="328" y="218" type="line"/>
      <point x="344" y="81" type="line" smooth="yes"/>
      <point x="350" y="31"/>
      <point x="379" y="0"/>
      <point x="437" y="0" type="curve"/>
      <point x="516" y="0" type="line"/>
      <point x="538" y="112" type="line"/>
      <point x="474" y="112" type="line"/>
      <point x="408" y="659" type="line" smooth="yes"/>
      <point x="402" y="709"/>
      <point x="373" y="740"/>
      <point x="315" y="740" type="curve"/>
      <point x="214" y="740" type="line"/>
    </contour>
  </outline>
</glyph>
<glyph name="nu" format="1">
  <advance width="600"/>
  <unicode hex="03BD"/>
  <note>
    nu
  </note>
  <outline>
    <contour>
      <point x="129" y="413" type="line"/>
      <point x="168" y="0" type="line"/>
      <point x="338" y="0" type="line"/>
      <point x="466" y="178"/>
      <point x="555" y="359"/>
      <point x="605" y="525" type="curve"/>
      <point x="456" y="525" type="line"/>
      <point x="416" y="385"/>
      <point x="363" y="267"/>
      <point x="281" y="125" type="curve"/>
      <point x="274" y="125" type="line"/>
      <point x="268" y="327" type="line"/>
      <point x="261" y="448" type="line" smooth="yes"/>
      <point x="258" y="496"/>
      <point x="225" y="525"/>
      <point x="171" y="525" type="curve"/>
      <point x="92" y="525" type="line"/>
      <point x="70" y="413" type="line"/>
    </contour>
  </outline>
</glyph>
<glyph name="xi" format="1">
  <advance width="600"/>
  <unicode hex="03BE"/>
  <note>
    xi
  </note>
  <outline>
    <contour>
      <point x="421" y="628" type="curve"/>
      <point x="582" y="628" type="line"/>
      <point x="604" y="740" type="line"/>
      <point x="176" y="740" type="line"/>
      <point x="153" y="628" type="line"/>
      <point x="266" y="628" type="line"/>
      <point x="264" y="620" type="line"/>
      <point x="206" y="602"/>
      <point x="170" y="558"/>
      <point x="170" y="502" type="curve"/>
      <point x="170" y="443"/>
      <point x="200" y="404"/>
      <point x="266" y="384" type="curve"/>
      <point x="265" y="379" type="line"/>
      <point x="144" y="369"/>
      <point x="78" y="295"/>
      <point x="78" y="199" type="curve"/>
      <point x="78" y="98"/>
      <point x="204" y="38"/>
      <point x="320" y="-5" type="curve"/>
      <point x="339" y="-12" type="line"/>
      <point x="282" y="-129" type="line"/>
      <point x="396" y="-175" type="line"/>
      <point x="458" y="-48" type="line" smooth="yes"/>
      <point x="470" y="-24"/>
      <point x="476" y="-4"/>
      <point x="476" y="18" type="curve"/>
      <point x="476" y="64"/>
      <point x="448" y="92"/>
      <point x="395" y="111" type="curve"/>
      <point x="376" y="118" type="line" smooth="yes"/>
      <point x="312" y="142"/>
      <point x="217" y="169"/>
      <point x="217" y="209" type="curve"/>
      <point x="217" y="219"/>
      <point x="218" y="230"/>
      <point x="220" y="240" type="curve"/>
      <point x="230" y="290"/>
      <point x="268" y="321"/>
      <point x="340" y="321" type="curve"/>
      <point x="445" y="321" type="line"/>
      <point x="468" y="432" type="line"/>
      <point x="385" y="432" type="line" smooth="yes"/>
      <point x="335" y="432"/>
      <point x="309" y="456"/>
      <point x="309" y="502" type="curve"/>
      <point x="309" y="516"/>
      <point x="311" y="531"/>
      <point x="313" y="541" type="curve"/>
      <point x="325" y="600"/>
      <point x="365" y="628"/>
    </contour>
  </outline>
</glyph>
<glyph name="rho" format="1">
  <advance width="600"/>
  <unicode hex="03C1"/>
  <note>
    rho
  </note>
  <outline>
    <contour>
      <point x="84" y="281" type="curve"/>
      <point x="-12" y="-200" type="line"/>
      <point x="128" y="-200" type="line"/>
      <point x="186" y="91" type="line"/>
      <point x="191" y="91" type="line"/>
      <point x="198" y="34"/>
      <point x="246" y="-12"/>
      <point x="320" y="-12" type="curve"/>
      <point x="450" y="-12"/>
      <point x="549" y="132"/>
      <point x="549" y="326" type="curve"/>
      <point x="549" y="464"/>
      <point x="476" y="537"/>
      <point x="340" y="537" type="curve"/>
      <point x="213" y="537"/>
      <point x="118" y="453"/>
    </contour>
    <contour>
      <point x="282" y="101" type="curve"/>
      <point x="216" y="101"/>
      <point x="198" y="148"/>
      <point x="209" y="204" type="curve"/>
      <point x="230" y="309" type="line" smooth="yes"/>
      <point x="245" y="384"/>
      <point x="282" y="424"/>
      <point x="335" y="424" type="curve"/>
      <point x="384" y="424"/>
      <point x="410" y="391"/>
      <point x="410" y="341" type="curve"/>
      <point x="410" y="328"/>
      <point x="408" y="316"/>
      <point x="407" y="310" type="curve"/>
      <point x="388" y="216" type="line" smooth="yes"/>
      <point x="372" y="138"/>
      <point x="344" y="101"/>
    </contour>
  </outline>
</glyph>
<glyph name="uni03C2" format="1">
  <advance width="600"/>
  <unicode hex="03C2"/>
  <note>
    sigma1
  </note>
  <outline>
    <contour>
      <point x="255" y="-1" type="curve"/>
      <point x="285" y="-12" type="line"/>
      <point x="228" y="-129" type="line"/>
      <point x="342" y="-175" type="line"/>
      <point x="404" y="-48" type="line" smooth="yes"/>
      <point x="416" y="-24"/>
      <point x="422" y="-4"/>
      <point x="422" y="18" type="curve"/>
      <point x="422" y="64"/>
      <point x="394" y="92"/>
      <point x="341" y="111" type="curve"/>
      <point x="311" y="122" type="line" smooth="yes"/>
      <point x="231" y="151"/>
      <point x="210" y="178"/>
      <point x="210" y="222" type="curve"/>
      <point x="210" y="246"/>
      <point x="213" y="261"/>
      <point x="220" y="293" type="curve"/>
      <point x="241" y="390"/>
      <point x="282" y="424"/>
      <point x="342" y="424" type="curve"/>
      <point x="393" y="424"/>
      <point x="408" y="397"/>
      <point x="420" y="356" type="curve"/>
      <point x="538" y="401" type="line"/>
      <point x="525" y="483"/>
      <point x="450" y="537"/>
      <point x="350" y="537" type="curve"/>
      <point x="191" y="537"/>
      <point x="71" y="408"/>
      <point x="71" y="215" type="curve"/>
      <point x="71" y="107"/>
      <point x="123" y="47"/>
    </contour>
  </outline>
</glyph>
<glyph name="sigma" format="1">
  <advance width="600"/>
  <unicode hex="03C3"/>
  <note>
    sigma
  </note>
  <outline>
    <contour>
      <point x="475" y="405" type="curve"/>
      <point x="476" y="413" type="line"/>
      <point x="590" y="413" type="line"/>
      <point x="612" y="525" type="line"/>
      <point x="336" y="525" type="line" smooth="yes"/>
      <point x="164" y="525"/>
      <point x="41" y="407"/>
      <point x="41" y="207" type="curve"/>
      <point x="41" y="69"/>
      <point x="122" y="-12"/>
      <point x="250" y="-12" type="curve"/>
      <point x="406" y="-12"/>
      <point x="521" y="133"/>
      <point x="521" y="283" type="curve"/>
      <point x="521" y="337"/>
      <point x="507" y="373"/>
    </contour>
    <contour>
      <point x="325" y="413" type="curve"/>
      <point x="363" y="413" type="line"/>
      <point x="377" y="395"/>
      <point x="382" y="378"/>
      <point x="382" y="356" type="curve"/>
      <point x="382" y="336"/>
      <point x="380" y="318"/>
      <point x="376" y="296" type="curve"/>
      <point x="360" y="216" type="line" smooth="yes"/>
      <point x="345" y="141"/>
      <point x="308" y="101"/>
      <point x="255" y="101" type="curve"/>
      <point x="206" y="101"/>
      <point x="180" y="134"/>
      <point x="180" y="184" type="curve"/>
      <point x="180" y="197"/>
      <point x="182" y="209"/>
      <point x="183" y="215" type="curve"/>
      <point x="202" y="310" type="line" smooth="yes"/>
      <point x="216" y="378"/>
      <point x="254" y="413"/>
    </contour>
  </outline>
</glyph>
<glyph name="tau" format="1">
  <advance width="600"/>
  <unicode hex="03C4"/>
  <note>
    tau
  </note>
  <outline>
    <contour>
      <point x="304" y="0" type="curve"/>
      <point x="402" y="0" type="line"/>
      <point x="424" y="112" type="line"/>
      <point x="319" y="112" type="line"/>
      <point x="379" y="413" type="line"/>
      <point x="565" y="413" type="line"/>
      <point x="587" y="525" type="line"/>
      <point x="95" y="525" type="line"/>
      <point x="73" y="413" type="line"/>
      <point x="239" y="413" type="line"/>
      <point x="185" y="142" type="line" smooth="yes"/>
      <point x="182" y="127"/>
      <point x="181" y="109"/>
      <point x="181" y="99" type="curve"/>
      <point x="181" y="33"/>
      <point x="223" y="0"/>
    </contour>
  </outline>
</glyph>
<glyph name="upsilon" format="1">
  <advance width="600"/>
  <unicode hex="03C5"/>
  <note>
    upsilon
  </note>
  <outline>
    <contour>
      <point x="202" y="239" type="curve"/>
      <point x="259" y="525" type="line"/>
      <point x="119" y="525" type="line"/>
      <point x="64" y="249" type="line" smooth="yes"/>
      <point x="58" y="217"/>
      <point x="56" y="194"/>
      <point x="56" y="166" type="curve"/>
      <point x="56" y="68"/>
      <point x="131" y="-12"/>
      <point x="255" y="-12" type="curve"/>
      <point x="388" y="-12"/>
      <point x="472" y="69"/>
      <point x="504" y="225" type="curve"/>
      <point x="565" y="525" type="line"/>
      <point x="425" y="525" type="line"/>
      <point x="366" y="233" type="line" smooth="yes"/>
      <point x="344" y="125"/>
      <point x="311" y="101"/>
      <point x="260" y="101" type="curve"/>
      <point x="216" y="101"/>
      <point x="192" y="126"/>
      <point x="192" y="174" type="curve"/>
      <point x="192" y="190"/>
      <point x="195" y="204"/>
    </contour>
    <contour>
      <point x="334" y="519" type="move" name="top"/>
    </contour>
  </outline>
</glyph>
<glyph name="phi" format="1">
  <advance width="900"/>
  <unicode hex="03C6"/>
  <note>
    phi
  </note>
  <outline>
    <contour>
      <point x="330" y="-12" type="curve"/>
      <point x="292" y="-200" type="line"/>
      <point x="429" y="-200" type="line"/>
      <point x="467" y="-12" type="line"/>
      <point x="708" y="-12"/>
      <point x="827" y="125"/>
      <point x="827" y="361" type="curve"/>
      <point x="827" y="465"/>
      <point x="770" y="537"/>
      <point x="630" y="537" type="curve"/>
      <point x="489" y="537"/>
      <point x="422" y="455"/>
      <point x="388" y="281" type="curve"/>
      <point x="352" y="99" type="line"/>
      <point x="257" y="99"/>
      <point x="230" y="126"/>
      <point x="230" y="174" type="curve"/>
      <point x="230" y="186"/>
      <point x="231" y="200"/>
      <point x="236" y="226" type="curve"/>
      <point x="249" y="289" type="line" smooth="yes"/>
      <point x="263" y="359"/>
      <point x="294" y="410"/>
      <point x="350" y="448" type="curve"/>
      <point x="276" y="537" type="line"/>
      <point x="154" y="465"/>
      <point x="91" y="342"/>
      <point x="91" y="182" type="curve"/>
      <point x="91" y="80"/>
      <point x="158" y="-12"/>
    </contour>
    <contour>
      <point x="489" y="99" type="curve"/>
      <point x="537" y="336" type="line" smooth="yes"/>
      <point x="551" y="406"/>
      <point x="575" y="426"/>
      <point x="610" y="426" type="curve"/>
      <point x="671" y="426"/>
      <point x="689" y="409"/>
      <point x="689" y="379" type="curve"/>
      <point x="689" y="361"/>
      <point x="687" y="341"/>
      <point x="682" y="317" type="curve"/>
      <point x="665" y="236" type="line" smooth="yes"/>
      <point x="646" y="143"/>
      <point x="595" y="99"/>
    </contour>
  </outline>
</glyph>
<glyph name="chi" format="1">
  <advance width="600"/>
  <unicode hex="03C7"/>
  <note>
    chi
  </note>
  <outline>
    <contour>
      <point x="187" y="525" type="curve"/>
      <point x="103" y="525" type="line"/>
      <point x="81" y="413" type="line"/>
      <point x="150" y="413" type="line"/>
      <point x="196" y="179" type="line"/>
      <point x="-47" y="-200" type="line"/>
      <point x="106" y="-200" type="line"/>
      <point x="260" y="71" type="line"/>
      <point x="264" y="71" type="line"/>
      <point x="285" y="-110" type="line" smooth="yes"/>
      <point x="292" y="-173"/>
      <point x="325" y="-200"/>
      <point x="381" y="-200" type="curve"/>
      <point x="465" y="-200" type="line"/>
      <point x="487" y="-88" type="line"/>
      <point x="418" y="-88" type="line"/>
      <point x="373" y="162" type="line"/>
      <point x="606" y="525" type="line"/>
      <point x="453" y="525" type="line"/>
      <point x="307" y="269" type="line"/>
      <point x="303" y="269" type="line"/>
      <point x="283" y="435" type="line" smooth="yes"/>
      <point x="275" y="498"/>
      <point x="245" y="525"/>
    </contour>
  </outline>
</glyph>
<glyph name="psi" format="1">
  <advance width="900"/>
  <unicode hex="03C8"/>
  <note>
    psi
  </note>
  <outline>
    <contour>
      <point x="321" y="-12" type="curve"/>
      <point x="283" y="-200" type="line"/>
      <point x="420" y="-200" type="line"/>
      <point x="458" y="-12" type="line"/>
      <point x="664" y="-12"/>
      <point x="749" y="59"/>
      <point x="783" y="225" type="curve"/>
      <point x="844" y="525" type="line"/>
      <point x="704" y="525" type="line"/>
      <point x="645" y="233" type="line" smooth="yes"/>
      <point x="623" y="124"/>
      <point x="590" y="99"/>
      <point x="480" y="99" type="curve"/>
      <point x="602" y="710" type="line"/>
      <point x="465" y="710" type="line"/>
      <point x="343" y="99" type="line"/>
      <point x="249" y="99"/>
      <point x="222" y="122"/>
      <point x="222" y="174" type="curve"/>
      <point x="222" y="190"/>
      <point x="224" y="205"/>
      <point x="231" y="239" type="curve"/>
      <point x="289" y="525" type="line"/>
      <point x="149" y="525" type="line"/>
      <point x="94" y="249" type="line" smooth="yes"/>
      <point x="88" y="217"/>
      <point x="86" y="194"/>
      <point x="86" y="166" type="curve"/>
      <point x="86" y="62"/>
      <point x="169" y="-12"/>
    </contour>
  </outline>
</glyph>
<glyph name="omega" format="1">
  <advance width="900"/>
  <unicode hex="03C9"/>
  <note>
    omega
  </note>
  <outline>
    <contour>
      <point x="508" y="200" type="curve"/>
      <point x="542" y="369" type="line"/>
      <point x="402" y="369" type="line"/>
      <point x="363" y="177" type="line" smooth="yes"/>
      <point x="352" y="121"/>
      <point x="290" y="101"/>
      <point x="256" y="101" type="curve"/>
      <point x="226" y="101"/>
      <point x="210" y="118"/>
      <point x="210" y="148" type="curve"/>
      <point x="210" y="160"/>
      <point x="211" y="178"/>
      <point x="215" y="200" type="curve"/>
      <point x="233" y="289" type="line" smooth="yes"/>
      <point x="247" y="359"/>
      <point x="278" y="410"/>
      <point x="334" y="448" type="curve"/>
      <point x="260" y="537" type="line"/>
      <point x="132" y="465"/>
      <point x="71" y="324"/>
      <point x="71" y="164" type="curve"/>
      <point x="71" y="60"/>
      <point x="131" y="-12"/>
      <point x="225" y="-12" type="curve"/>
      <point x="297" y="-12"/>
      <point x="391" y="25"/>
      <point x="421" y="125" type="curve"/>
      <point x="425" y="125" type="line"/>
      <point x="425" y="25"/>
      <point x="472" y="-12"/>
      <point x="576" y="-12" type="curve"/>
      <point x="722" y="-12"/>
      <point x="823" y="113"/>
      <point x="823" y="349" type="curve"/>
      <point x="823" y="425"/>
      <point x="797" y="486"/>
      <point x="743" y="536" type="curve"/>
      <point x="640" y="454" type="line"/>
      <point x="672" y="422"/>
      <point x="684" y="383"/>
      <point x="684" y="343" type="curve"/>
      <point x="684" y="327"/>
      <point x="681" y="307"/>
      <point x="677" y="289" type="curve"/>
      <point x="655" y="177" type="line" smooth="yes"/>
      <point x="644" y="121"/>
      <point x="622" y="101"/>
      <point x="568" y="101" type="curve"/>
      <point x="518" y="101"/>
      <point x="502" y="118"/>
      <point x="502" y="148" type="curve"/>
      <point x="502" y="160"/>
      <point x="503" y="174"/>
    </contour>
    <contour>
      <point x="411" y="-11" type="move" name="bottom"/>
    </contour>
    <contour>
      <point x="477" y="522" type="move" name="top"/>
    </contour>
  </outline>
</glyph>
<glyph name="uni0400" format="1">
  <advance width="600"/>
  <unicode hex="0400"/>
  <note>
    uni0400
  </note>
  <outline>
    <contour>
      <point x="374" y="976" type="line"/>
      <point x="250" y="917" type="line"/>
      <point x="364" y="741" type="line"/>
      <point x="451" y="780" type="line"/>
    </contour>
    <contour>
      <point x="155" y="698" type="line"/>
      <point x="38" y="0" type="line"/>
      <point x="484" y="0" type="line"/>
      <point x="504" y="122" type="line"/>
      <point x="205" y="122" type="line"/>
      <point x="233" y="292" type="line"/>
      <point x="520" y="292" type="line"/>
      <point x="540" y="414" type="line"/>
      <point x="254" y="414" type="line"/>
      <point x="281" y="576" type="line"/>
      <point x="581" y="576" type="line"/>
      <point x="601" y="698" type="line"/>
    </contour>
  </outline>
</glyph>
<glyph name="uni0403" format="1">
  <advance width="600"/>
  <unicode hex="0403"/>
  <note>
    uni0403
  </note>
  <outline>
    <contour>
      <point x="327" y="786" type="line"/>
      <point x="413" y="740" type="line"/>
      <point x="556" y="916" type="line"/>
      <point x="442" y="976" type="line"/>
    </contour>
    <contour>
      <point x="602" y="698" type="line"/>
      <point x="182" y="698" type="line"/>
      <point x="66" y="0" type="line"/>
      <point x="214" y="0" type="line"/>
      <point x="309" y="576" type="line"/>
      <point x="581" y="576" type="line"/>
    </contour>
  </outline>
</glyph>
<glyph name="uni0407" format="1">
  <advance width="600"/>
  <unicode hex="0407"/>
  <note>
    uni0407
  </note>
  <outline>
    <contour>
      <point x="280" y="762" type="curve"/>
      <point x="338" y="762"/>
      <point x="358" y="786"/>
      <point x="365" y="821" type="curve"/>
      <point x="369" y="842"/>
      <point x="370" y="850"/>
      <point x="370" y="857" type="curve"/>
      <point x="370" y="888"/>
      <point x="350" y="911"/>
      <point x="296" y="911" type="curve"/>
      <point x="238" y="911"/>
      <point x="218" y="887"/>
      <point x="211" y="852" type="curve"/>
      <point x="207" y="831"/>
      <point x="206" y="823"/>
      <point x="206" y="816" type="curve"/>
      <point x="206" y="785"/>
      <point x="226" y="762"/>
    </contour>
    <contour>
      <point x="498" y="762" type="curve"/>
      <point x="556" y="762"/>
      <point x="576" y="786"/>
      <point x="583" y="821" type="curve"/>
      <point x="587" y="842"/>
      <point x="588" y="850"/>
      <point x="588" y="857" type="curve"/>
      <point x="588" y="888"/>
      <point x="568" y="911"/>
      <point x="514" y="911" type="curve"/>
      <point x="456" y="911"/>
      <point x="436" y="887"/>
      <point x="429" y="852" type="curve"/>
      <point x="425" y="831"/>
      <point x="424" y="823"/>
      <point x="424" y="816" type="curve"/>
      <point x="424" y="785"/>
      <point x="444" y="762"/>
    </contour>
    <contour>
      <point x="50" y="110" type="line"/>
      <point x="32" y="0" type="line"/>
      <point x="482" y="0" type="line"/>
      <point x="500" y="110" type="line"/>
      <point x="349" y="110" type="line"/>
      <point x="429" y="588" type="line"/>
      <point x="580" y="588" type="line"/>
      <point x="598" y="698" type="line"/>
      <point x="148" y="698" type="line"/>
      <point x="130" y="588" type="line"/>
      <point x="281" y="588" type="line"/>
      <point x="201" y="110" type="line"/>
    </contour>
  </outline>
</glyph>
<glyph name="uni040A" format="1">
  <advance width="600"/>
  <unicode hex="040A"/>
  <note>
    uni040A
  </note>
  <outline>
    <contour>
      <point x="230" y="698" type="line"/>
      <point x="102" y="698" type="line"/>
      <point x="-14" y="0" type="line"/>
      <point x="114" y="0" type="line"/>
      <point x="163" y="297" type="line"/>
      <point x="250" y="297" type="line"/>
      <point x="201" y="0" type="line"/>
      <point x="354" y="0" type="line" smooth="yes"/>
      <point x="500" y="0"/>
      <point x="593" y="99"/>
      <point x="593" y="274" type="curve"/>
      <point x="593" y="379"/>
      <point x="531" y="446"/>
      <point x="413" y="446" type="curve"/>
      <point x="403" y="446" type="line"/>
      <point x="445" y="698" type="line"/>
      <point x="317" y="698" type="line"/>
      <point x="269" y="410" type="line"/>
      <point x="182" y="410" type="line"/>
    </contour>
    <contour>
      <point x="359" y="113" type="curve"/>
      <point x="347" y="113" type="line"/>
      <point x="384" y="333" type="line"/>
      <point x="395" y="333" type="line" smooth="yes"/>
      <point x="449" y="333"/>
      <point x="459" y="311"/>
      <point x="459" y="273" type="curve"/>
      <point x="459" y="257"/>
      <point x="458" y="246"/>
      <point x="455" y="224" type="curve"/>
      <point x="452" y="205" type="line" smooth="yes"/>
      <point x="441" y="138"/>
      <point x="413" y="113"/>
    </contour>
  </outline>
</glyph>
<glyph name="uni040B" format="1">
  <advance width="600"/>
  <unicode hex="040B"/>
  <note>
    uni040B
  </note>
  <outline>
    <contour>
      <point x="61" y="576" type="line"/>
      <point x="193" y="576" type="line"/>
      <point x="97" y="0" type="line"/>
      <point x="245" y="0" type="line"/>
      <point x="297" y="311" type="line"/>
      <point x="315" y="319"/>
      <point x="342" y="324"/>
      <point x="368" y="324" type="curve"/>
      <point x="407" y="324"/>
      <point x="427" y="306"/>
      <point x="427" y="271" type="curve"/>
      <point x="427" y="255"/>
      <point x="424" y="234"/>
      <point x="418" y="196" type="curve"/>
      <point x="385" y="0" type="line"/>
      <point x="533" y="0" type="line"/>
      <point x="561" y="168" type="line" smooth="yes"/>
      <point x="568" y="212"/>
      <point x="572" y="252"/>
      <point x="572" y="290" type="curve"/>
      <point x="572" y="390"/>
      <point x="513" y="444"/>
      <point x="423" y="444" type="curve"/>
      <point x="381" y="444"/>
      <point x="351" y="438"/>
      <point x="321" y="426" type="curve"/>
      <point x="316" y="426" type="line"/>
      <point x="341" y="576" type="line"/>
      <point x="473" y="576" type="line"/>
      <point x="493" y="698" type="line"/>
      <point x="81" y="698" type="line"/>
    </contour>
  </outline>
</glyph>
<glyph name="uni040C" format="1">
  <advance width="600"/>
  <unicode hex="040C"/>
  <note>
    uni040C
  </note>
  <outline>
    <contour>
      <point x="313" y="786" type="line"/>
      <point x="399" y="740" type="line"/>
      <point x="542" y="916" type="line"/>
      <point x="428" y="976" type="line"/>
    </contour>
    <contour>
      <point x="291" y="698" type="line"/>
      <point x="143" y="698" type="line"/>
      <point x="27" y="0" type="line"/>
      <point x="175" y="0" type="line"/>
      <point x="224" y="294" type="line"/>
      <point x="313" y="294" type="line"/>
      <point x="357" y="100" type="line" smooth="yes"/>
      <point x="374" y="27"/>
      <point x="406" y="0"/>
      <point x="471" y="0" type="curve"/>
      <point x="537" y="0" type="line"/>
      <point x="557" y="122" type="line"/>
      <point x="501" y="122" type="line"/>
      <point x="467" y="272" type="line" smooth="yes"/>
      <point x="455" y="324"/>
      <point x="438" y="347"/>
      <point x="403" y="357" type="curve"/>
      <point x="404" y="363" type="line"/>
      <point x="442" y="369"/>
      <point x="471" y="389"/>
      <point x="498" y="438" type="curve"/>
      <point x="639" y="698" type="line"/>
      <point x="489" y="698" type="line"/>
      <point x="334" y="413" type="line"/>
      <point x="244" y="413" type="line"/>
    </contour>
  </outline>
</glyph>
<glyph name="uni040D" format="1">
  <advance width="600"/>
  <unicode hex="040D"/>
  <note>
    uni040D
  </note>
  <outline>
    <contour>
      <point x="371" y="976" type="line"/>
      <point x="247" y="917" type="line"/>
      <point x="361" y="741" type="line"/>
      <point x="448" y="780" type="line"/>
    </contour>
    <contour>
      <point x="269" y="698" type="line"/>
      <point x="129" y="698" type="line"/>
      <point x="13" y="0" type="line"/>
      <point x="150" y="0" type="line"/>
      <point x="337" y="286" type="line"/>
      <point x="443" y="448" type="line"/>
      <point x="452" y="448" type="line"/>
      <point x="406" y="259" type="line"/>
      <point x="363" y="0" type="line"/>
      <point x="503" y="0" type="line"/>
      <point x="619" y="698" type="line"/>
      <point x="482" y="698" type="line"/>
      <point x="292" y="407" type="line"/>
      <point x="189" y="250" type="line"/>
      <point x="180" y="250" type="line"/>
      <point x="226" y="439" type="line"/>
    </contour>
  </outline>
</glyph>
<glyph name="uni040E" format="1">
  <advance width="600"/>
  <unicode hex="040E"/>
  <note>
    uni040E
  </note>
  <outline>
    <contour>
      <point x="379" y="740" type="curve"/>
      <point x="455" y="740"/>
      <point x="518" y="775"/>
      <point x="558" y="852" type="curve"/>
      <point x="588" y="909" type="line"/>
      <point x="477" y="952" type="line"/>
      <point x="443" y="845" type="line"/>
      <point x="431" y="841"/>
      <point x="406" y="838"/>
      <point x="388" y="838" type="curve"/>
      <point x="372" y="838"/>
      <point x="345" y="841"/>
      <point x="331" y="845" type="curve"/>
      <point x="327" y="952" type="line"/>
      <point x="212" y="909" type="line"/>
      <point x="227" y="859" type="line" smooth="yes"/>
      <point x="251" y="777"/>
      <point x="302" y="740"/>
    </contour>
    <contour>
      <point x="202" y="122" type="line"/>
      <point x="88" y="122" type="line"/>
      <point x="68" y="0" type="line"/>
      <point x="167" y="0" type="line" smooth="yes"/>
      <point x="249" y="0"/>
      <point x="297" y="30"/>
      <point x="347" y="123" type="curve"/>
      <point x="656" y="698" type="line"/>
      <point x="501" y="698" type="line"/>
      <point x="374" y="450" type="line"/>
      <point x="323" y="326" type="line"/>
      <point x="320" y="326" type="line"/>
      <point x="300" y="450" type="line"/>
      <point x="241" y="698" type="line"/>
      <point x="91" y="698" type="line"/>
      <point x="232" y="179" type="line"/>
    </contour>
  </outline>
</glyph>
<glyph name="uni040F" format="1">
  <advance width="600"/>
  <unicode hex="040F"/>
  <note>
    uni040F
  </note>
  <outline>
    <contour>
      <point x="20" y="0" type="line"/>
      <point x="191" y="0" type="line"/>
      <point x="166" y="-150" type="line"/>
      <point x="299" y="-150" type="line"/>
      <point x="324" y="0" type="line"/>
      <point x="496" y="0" type="line"/>
      <point x="612" y="698" type="line"/>
      <point x="464" y="698" type="line"/>
      <point x="368" y="122" type="line"/>
      <point x="188" y="122" type="line"/>
      <point x="284" y="698" type="line"/>
      <point x="136" y="698" type="line"/>
    </contour>
  </outline>
</glyph>
<glyph name="uni0413" format="1">
  <advance width="600"/>
  <unicode hex="0413"/>
  <note>
    uni0413
  </note>
  <outline>
    <contour>
      <point x="602" y="698" type="line"/>
      <point x="182" y="698" type="line"/>
      <point x="66" y="0" type="line"/>
      <point x="214" y="0" type="line"/>
      <point x="309" y="576" type="line"/>
      <point x="581" y="576" type="line"/>
    </contour>
  </outline>
</glyph>
<glyph name="uni0414" format="1">
  <advance width="600"/>
  <unicode hex="0414"/>
  <note>
    uni0414
  </note>
  <outline>
    <contour>
      <point x="41" y="122" type="curve"/>
      <point x="-7" y="122" type="line"/>
      <point x="-53" y="-150" type="line"/>
      <point x="82" y="-150" type="line"/>
      <point x="107" y="0" type="line"/>
      <point x="410" y="0" type="line"/>
      <point x="385" y="-150" type="line"/>
      <point x="518" y="-150" type="line"/>
      <point x="563" y="122" type="line"/>
      <point x="495" y="122" type="line"/>
      <point x="591" y="698" type="line"/>
      <point x="220" y="698" type="line"/>
      <point x="188" y="509" type="line" smooth="yes"/>
      <point x="148" y="273"/>
      <point x="98" y="171"/>
    </contour>
    <contour>
      <point x="427" y="580" type="line"/>
      <point x="351" y="122" type="line"/>
      <point x="189" y="122" type="line"/>
      <point x="233" y="170"/>
      <point x="275" y="266"/>
      <point x="311" y="479" type="curve"/>
      <point x="328" y="580" type="line"/>
    </contour>
  </outline>
</glyph>
<glyph name="uni0415" format="1">
  <advance width="600"/>
  <unicode hex="0415"/>
  <note>
    uni0415
  </note>
  <outline>
    <contour>
      <point x="155" y="698" type="line"/>
      <point x="38" y="0" type="line"/>
      <point x="484" y="0" type="line"/>
      <point x="504" y="122" type="line"/>
      <point x="205" y="122" type="line"/>
      <point x="233" y="292" type="line"/>
      <point x="520" y="292" type="line"/>
      <point x="540" y="414" type="line"/>
      <point x="254" y="414" type="line"/>
      <point x="281" y="576" type="line"/>
      <point x="581" y="576" type="line"/>
      <point x="601" y="698" type="line"/>
    </contour>
  </outline>
</glyph>
<glyph name="uni0418" format="1">
  <advance width="600"/>
  <unicode hex="0418"/>
  <note>
    uni0418
  </note>
  <outline>
    <contour>
      <point x="269" y="698" type="line"/>
      <point x="129" y="698" type="line"/>
      <point x="13" y="0" type="line"/>
      <point x="150" y="0" type="line"/>
      <point x="337" y="286" type="line"/>
      <point x="443" y="448" type="line"/>
      <point x="452" y="448" type="line"/>
      <point x="406" y="259" type="line"/>
      <point x="363" y="0" type="line"/>
      <point x="503" y="0" type="line"/>
      <point x="619" y="698" type="line"/>
      <point x="482" y="698" type="line"/>
      <point x="292" y="407" type="line"/>
      <point x="189" y="250" type="line"/>
      <point x="180" y="250" type="line"/>
      <point x="226" y="439" type="line"/>
    </contour>
  </outline>
</glyph>
<glyph name="uni0419" format="1">
  <advance width="600"/>
  <unicode hex="0419"/>
  <note>
    uni0419
  </note>
  <outline>
    <contour>
      <point x="383" y="740" type="curve"/>
      <point x="459" y="740"/>
      <point x="522" y="775"/>
      <point x="562" y="852" type="curve"/>
      <point x="592" y="909" type="line"/>
      <point x="481" y="952" type="line"/>
      <point x="447" y="845" type="line"/>
      <point x="435" y="841"/>
      <point x="410" y="838"/>
      <point x="392" y="838" type="curve"/>
      <point x="376" y="838"/>
      <point x="349" y="841"/>
      <point x="335" y="845" type="curve"/>
      <point x="331" y="952" type="line"/>
      <point x="216" y="909" type="line"/>
      <point x="231" y="859" type="line" smooth="yes"/>
      <point x="255" y="777"/>
      <point x="306" y="740"/>
    </contour>
    <contour>
      <point x="269" y="698" type="line"/>
      <point x="129" y="698" type="line"/>
      <point x="13" y="0" type="line"/>
      <point x="150" y="0" type="line"/>
      <point x="337" y="286" type="line"/>
      <point x="443" y="448" type="line"/>
      <point x="452" y="448" type="line"/>
      <point x="406" y="259" type="line"/>
      <point x="363" y="0" type="line"/>
      <point x="503" y="0" type="line"/>
      <point x="619" y="698" type="line"/>
      <point x="482" y="698" type="line"/>
      <point x="292" y="407" type="line"/>
      <point x="189" y="250" type="line"/>
      <point x="180" y="250" type="line"/>
      <point x="226" y="439" type="line"/>
    </contour>
  </outline>
</glyph>
<glyph name="uni041B" format="1">
  <advance width="600"/>
  <unicode hex="041B"/>
  <note>
    uni041B
  </note>
  <outline>
    <contour>
      <point x="57" y="122" type="curve"/>
      <point x="-13" y="122" type="line"/>
      <point x="-35" y="-6" type="line"/>
      <point x="-2" y="-6" type="line" smooth="yes"/>
      <point x="67" y="-6"/>
      <point x="120" y="11"/>
      <point x="172" y="63" type="curve"/>
      <point x="226" y="117"/>
      <point x="276" y="230"/>
      <point x="315" y="459" type="curve"/>
      <point x="335" y="577" type="line"/>
      <point x="446" y="577" type="line"/>
      <point x="350" y="0" type="line"/>
      <point x="498" y="0" type="line"/>
      <point x="614" y="698" type="line"/>
      <point x="219" y="698" type="line"/>
      <point x="182" y="480" type="line" smooth="yes"/>
      <point x="146" y="268"/>
      <point x="107" y="168"/>
    </contour>
  </outline>
</glyph>
<glyph name="uni041C" format="1">
  <advance width="600"/>
  <unicode hex="041C"/>
  <note>
    uni041C
  </note>
  <outline>
    <contour>
      <point x="482" y="508" type="line"/>
      <point x="442" y="311" type="line"/>
      <point x="390" y="0" type="line"/>
      <point x="518" y="0" type="line"/>
      <point x="635" y="698" type="line"/>
      <point x="467" y="698" type="line"/>
      <point x="341" y="461" type="line"/>
      <point x="332" y="461" type="line"/>
      <point x="284" y="698" type="line"/>
      <point x="115" y="698" type="line"/>
      <point x="-2" y="0" type="line"/>
      <point x="126" y="0" type="line"/>
      <point x="178" y="311" type="line"/>
      <point x="203" y="508" type="line"/>
      <point x="212" y="508" type="line"/>
      <point x="282" y="149" type="line"/>
      <point x="473" y="508" type="line"/>
    </contour>
  </outline>
</glyph>
<glyph name="uni041F" format="1">
  <advance width="600"/>
  <unicode hex="041F"/>
  <note>
    uni041F
  </note>
  <outline>
    <contour>
      <point x="612" y="698" type="line"/>
      <point x="136" y="698" type="line"/>
      <point x="20" y="0" type="line"/>
      <point x="168" y="0" type="line"/>
      <point x="264" y="576" type="line"/>
      <point x="444" y="576" type="line"/>
      <point x="348" y="0" type="line"/>
      <point x="496" y="0" type="line"/>
    </contour>
  </outline>
</glyph>
<glyph name="uni0420" format="1">
  <advance width="600"/>
  <unicode hex="0420"/>
  <note>
    uni0420
  </note>
  <outline>
    <contour>
      <point x="154" y="698" type="line"/>
      <point x="37" y="0" type="line"/>
      <point x="185" y="0" type="line"/>
      <point x="228" y="256" type="line"/>
      <point x="347" y="256" type="line" smooth="yes"/>
      <point x="498" y="256"/>
      <point x="596" y="354"/>
      <point x="596" y="513" type="curve"/>
      <point x="596" y="621"/>
      <point x="530" y="698"/>
      <point x="406" y="698" type="curve"/>
    </contour>
    <contour>
      <point x="326" y="376" type="curve"/>
      <point x="248" y="376" type="line"/>
      <point x="282" y="579" type="line"/>
      <point x="360" y="579" type="line" smooth="yes"/>
      <point x="419" y="579"/>
      <point x="442" y="561"/>
      <point x="442" y="516" type="curve"/>
      <point x="442" y="505"/>
      <point x="441" y="495"/>
      <point x="440" y="489" type="curve"/>
      <point x="435" y="459" type="line" smooth="yes"/>
      <point x="425" y="399"/>
      <point x="394" y="376"/>
    </contour>
  </outline>
</glyph>
<glyph name="uni0422" format="1">
  <advance width="600"/>
  <unicode hex="0422"/>
  <note>
    uni0422
  </note>
  <outline>
    <contour>
      <point x="331" y="0" type="line"/>
      <point x="427" y="576" type="line"/>
      <point x="629" y="576" type="line"/>
      <point x="649" y="698" type="line"/>
      <point x="97" y="698" type="line"/>
      <point x="77" y="576" type="line"/>
      <point x="279" y="576" type="line"/>
      <point x="183" y="0" type="line"/>
    </contour>
  </outline>
</glyph>
<glyph name="uni0423" format="1">
  <advance width="600"/>
  <unicode hex="0423"/>
  <note>
    uni0423
  </note>
  <outline>
    <contour>
      <point x="202" y="122" type="line"/>
      <point x="88" y="122" type="line"/>
      <point x="68" y="0" type="line"/>
      <point x="167" y="0" type="line" smooth="yes"/>
      <point x="249" y="0"/>
      <point x="297" y="30"/>
      <point x="347" y="123" type="curve"/>
      <point x="656" y="698" type="line"/>
      <point x="501" y="698" type="line"/>
      <point x="374" y="450" type="line"/>
      <point x="323" y="326" type="line"/>
      <point x="320" y="326" type="line"/>
      <point x="300" y="450" type="line"/>
      <point x="241" y="698" type="line"/>
      <point x="91" y="698" type="line"/>
      <point x="232" y="179" type="line"/>
    </contour>
  </outline>
</glyph>
<glyph name="uni0427" format="1">
  <advance width="600"/>
  <unicode hex="0427"/>
  <note>
    uni0427
  </note>
  <outline>
    <contour>
      <point x="380" y="246" type="curve"/>
      <point x="386" y="246" type="line"/>
      <point x="345" y="0" type="line"/>
      <point x="493" y="0" type="line"/>
      <point x="609" y="698" type="line"/>
      <point x="461" y="698" type="line"/>
      <point x="405" y="361" type="line"/>
      <point x="373" y="349"/>
      <point x="337" y="344"/>
      <point x="300" y="344" type="curve"/>
      <point x="239" y="344"/>
      <point x="216" y="372"/>
      <point x="216" y="416" type="curve"/>
      <point x="216" y="438"/>
      <point x="217" y="454"/>
      <point x="224" y="496" type="curve"/>
      <point x="258" y="698" type="line"/>
      <point x="110" y="698" type="line"/>
      <point x="81" y="524" type="line" smooth="yes"/>
      <point x="75" y="486"/>
      <point x="71" y="446"/>
      <point x="71" y="402" type="curve"/>
      <point x="71" y="286"/>
      <point x="136" y="224"/>
      <point x="266" y="224" type="curve"/>
      <point x="314" y="224"/>
      <point x="350" y="232"/>
    </contour>
  </outline>
</glyph>
<glyph name="uni0428" format="1">
  <advance width="600"/>
  <unicode hex="0428"/>
  <note>
    uni0428
  </note>
  <outline>
    <contour>
      <point x="230" y="698" type="line"/>
      <point x="102" y="698" type="line"/>
      <point x="-14" y="0" type="line"/>
      <point x="530" y="0" type="line"/>
      <point x="646" y="698" type="line"/>
      <point x="518" y="698" type="line"/>
      <point x="421" y="113" type="line"/>
      <point x="341" y="113" type="line"/>
      <point x="438" y="698" type="line"/>
      <point x="310" y="698" type="line"/>
      <point x="213" y="113" type="line"/>
      <point x="133" y="113" type="line"/>
    </contour>
  </outline>
</glyph>
<glyph name="uni042B" format="1">
  <advance width="600"/>
  <unicode hex="042B"/>
  <note>
    uni042B
  </note>
  <outline>
    <contour>
      <point x="161" y="112" type="curve"/>
      <point x="132" y="112" type="line"/>
      <point x="169" y="334" type="line"/>
      <point x="197" y="334" type="line" smooth="yes"/>
      <point x="251" y="334"/>
      <point x="261" y="312"/>
      <point x="261" y="274" type="curve"/>
      <point x="261" y="258"/>
      <point x="260" y="246"/>
      <point x="257" y="224" type="curve"/>
      <point x="254" y="205" type="line" smooth="yes"/>
      <point x="243" y="138"/>
      <point x="215" y="112"/>
    </contour>
    <contour>
      <point x="230" y="698" type="line"/>
      <point x="102" y="698" type="line"/>
      <point x="-14" y="0" type="line"/>
      <point x="156" y="0" type="line" smooth="yes"/>
      <point x="302" y="0"/>
      <point x="395" y="99"/>
      <point x="395" y="274" type="curve"/>
      <point x="395" y="379"/>
      <point x="333" y="446"/>
      <point x="215" y="446" type="curve"/>
      <point x="188" y="446" type="line"/>
    </contour>
    <contour>
      <point x="646" y="698" type="line"/>
      <point x="518" y="698" type="line"/>
      <point x="402" y="0" type="line"/>
      <point x="530" y="0" type="line"/>
    </contour>
  </outline>
</glyph>
<glyph name="uni0431" format="1">
  <advance width="600"/>
  <unicode hex="0431"/>
  <note>
    uni0431
  </note>
  <outline>
    <contour>
      <point x="265" y="-12" type="curve"/>
      <point x="437" y="-12"/>
      <point x="554" y="109"/>
      <point x="554" y="306" type="curve"/>
      <point x="554" y="428"/>
      <point x="480" y="502"/>
      <point x="383" y="502" type="curve"/>
      <point x="314" y="502"/>
      <point x="267" y="469"/>
      <point x="231" y="403" type="curve"/>
      <point x="224" y="403" type="line"/>
      <point x="244" y="481"/>
      <point x="273" y="538"/>
      <point x="303" y="568" type="curve"/>
      <point x="331" y="596"/>
      <point x="370" y="614"/>
      <point x="444" y="616" type="curve"/>
      <point x="575" y="620" type="line"/>
      <point x="602" y="752" type="line"/>
      <point x="465" y="748" type="line" smooth="yes"/>
      <point x="331" y="744"/>
      <point x="259" y="713"/>
      <point x="197" y="651" type="curve"/>
      <point x="109" y="563"/>
      <point x="46" y="348"/>
      <point x="46" y="210" type="curve"/>
      <point x="46" y="74"/>
      <point x="126" y="-12"/>
    </contour>
    <contour>
      <point x="276" y="97" type="curve"/>
      <point x="220" y="97"/>
      <point x="188" y="127"/>
      <point x="188" y="188" type="curve"/>
      <point x="188" y="200"/>
      <point x="191" y="217"/>
      <point x="193" y="229" type="curve"/>
      <point x="202" y="283" type="line" smooth="yes"/>
      <point x="214" y="353"/>
      <point x="252" y="393"/>
      <point x="320" y="393" type="curve"/>
      <point x="373" y="393"/>
      <point x="409" y="363"/>
      <point x="409" y="302" type="curve"/>
      <point x="409" y="290"/>
      <point x="406" y="273"/>
      <point x="404" y="261" type="curve"/>
      <point x="394" y="209" type="line" smooth="yes"/>
      <point x="380" y="137"/>
      <point x="339" y="97"/>
    </contour>
  </outline>
</glyph>
<glyph name="uni0432" format="1">
  <advance width="600"/>
  <unicode hex="0432"/>
  <note>
    uni0432
  </note>
  <outline>
    <contour>
      <point x="275" y="-12" type="curve"/>
      <point x="406" y="-12"/>
      <point x="513" y="58"/>
      <point x="513" y="169" type="curve"/>
      <point x="513" y="227"/>
      <point x="477" y="261"/>
      <point x="415" y="269" type="curve"/>
      <point x="416" y="274" type="line"/>
      <point x="492" y="286"/>
      <point x="539" y="324"/>
      <point x="539" y="394" type="curve"/>
      <point x="539" y="475"/>
      <point x="467" y="528"/>
      <point x="348" y="528" type="curve"/>
      <point x="193" y="528"/>
      <point x="93" y="436"/>
      <point x="67" y="283" type="curve"/>
      <point x="60" y="244"/>
      <point x="56" y="212"/>
      <point x="56" y="184" type="curve"/>
      <point x="56" y="72"/>
      <point x="126" y="-12"/>
    </contour>
    <contour>
      <point x="282" y="92" type="curve"/>
      <point x="229" y="92"/>
      <point x="198" y="127"/>
      <point x="198" y="177" type="curve"/>
      <point x="198" y="187"/>
      <point x="199" y="197"/>
      <point x="200" y="205" type="curve"/>
      <point x="232" y="210" type="line" smooth="yes"/>
      <point x="268" y="215"/>
      <point x="296" y="218"/>
      <point x="318" y="218" type="curve"/>
      <point x="351" y="218"/>
      <point x="371" y="205"/>
      <point x="371" y="179" type="curve"/>
      <point x="371" y="169"/>
      <point x="370" y="162"/>
      <point x="369" y="156" type="curve"/>
      <point x="362" y="113"/>
      <point x="332" y="92"/>
    </contour>
    <contour>
      <point x="251" y="295" type="curve"/>
      <point x="212" y="289" type="line"/>
      <point x="215" y="306" type="line" smooth="yes"/>
      <point x="229" y="384"/>
      <point x="274" y="424"/>
      <point x="329" y="424" type="curve"/>
      <point x="377" y="424"/>
      <point x="397" y="400"/>
      <point x="397" y="374" type="curve"/>
      <point x="397" y="368"/>
      <point x="396" y="362"/>
      <point x="395" y="358" type="curve"/>
      <point x="388" y="329"/>
      <point x="369" y="312"/>
    </contour>
  </outline>
</glyph>
<glyph name="uni0439" format="1">
  <advance width="600"/>
  <unicode hex="0439"/>
  <note>
    uni0439
  </note>
  <outline>
    <contour>
      <point x="353" y="570" type="curve"/>
      <point x="429" y="570"/>
      <point x="492" y="605"/>
      <point x="532" y="682" type="curve"/>
      <point x="562" y="739" type="line"/>
      <point x="451" y="782" type="line"/>
      <point x="417" y="675" type="line"/>
      <point x="405" y="671"/>
      <point x="380" y="668"/>
      <point x="362" y="668" type="curve"/>
      <point x="346" y="668"/>
      <point x="319" y="671"/>
      <point x="305" y="675" type="curve"/>
      <point x="301" y="782" type="line"/>
      <point x="186" y="739" type="line"/>
      <point x="201" y="689" type="line" smooth="yes"/>
      <point x="225" y="607"/>
      <point x="276" y="570"/>
    </contour>
    <contour>
      <point x="357" y="123" type="curve"/>
      <point x="362" y="123" type="line"/>
      <point x="342" y="0" type="line"/>
      <point x="488" y="0" type="line"/>
      <point x="574" y="516" type="line"/>
      <point x="428" y="516" type="line"/>
      <point x="383" y="247" type="line" smooth="yes"/>
      <point x="376" y="205"/>
      <point x="351" y="167"/>
      <point x="336" y="147" type="curve"/>
      <point x="313" y="117"/>
      <point x="289" y="100"/>
      <point x="255" y="100" type="curve"/>
      <point x="210" y="100"/>
      <point x="195" y="134"/>
      <point x="195" y="161" type="curve"/>
      <point x="195" y="186"/>
      <point x="199" y="206"/>
      <point x="202" y="224" type="curve"/>
      <point x="251" y="516" type="line"/>
      <point x="105" y="516" type="line"/>
      <point x="59" y="241" type="line" smooth="yes"/>
      <point x="51" y="193"/>
      <point x="48" y="166"/>
      <point x="48" y="137" type="curve"/>
      <point x="48" y="57"/>
      <point x="88" y="-12"/>
      <point x="189" y="-12" type="curve"/>
      <point x="271" y="-12"/>
      <point x="318" y="39"/>
    </contour>
  </outline>
</glyph>
<glyph name="uni043D" format="1">
  <advance width="600"/>
  <unicode hex="043D"/>
  <note>
    uni043D
  </note>
  <outline>
    <contour>
      <point x="255" y="516" type="line"/>
      <point x="109" y="516" type="line"/>
      <point x="23" y="0" type="line"/>
      <point x="169" y="0" type="line"/>
      <point x="203" y="205" type="line"/>
      <point x="378" y="205" type="line"/>
      <point x="344" y="0" type="line"/>
      <point x="490" y="0" type="line"/>
      <point x="576" y="516" type="line"/>
      <point x="430" y="516" type="line"/>
      <point x="397" y="316" type="line"/>
      <point x="222" y="316" type="line"/>
    </contour>
  </outline>
</glyph>
<glyph name="uni0440" format="1">
  <advance width="600"/>
  <unicode hex="0440"/>
  <note>
    uni0440
  </note>
  <outline>
    <contour>
      <point x="253" y="516" type="line"/>
      <point x="107" y="516" type="line"/>
      <point x="-13" y="-200" type="line"/>
      <point x="133" y="-200" type="line"/>
      <point x="183" y="96" type="line"/>
      <point x="190" y="96" type="line"/>
      <point x="205" y="28"/>
      <point x="244" y="-12"/>
      <point x="325" y="-12" type="curve"/>
      <point x="468" y="-12"/>
      <point x="562" y="123"/>
      <point x="562" y="328" type="curve"/>
      <point x="562" y="449"/>
      <point x="520" y="528"/>
      <point x="411" y="528" type="curve"/>
      <point x="323" y="528"/>
      <point x="277" y="472"/>
      <point x="238" y="393" type="curve"/>
      <point x="233" y="393" type="line"/>
    </contour>
    <contour>
      <point x="278" y="101" type="curve"/>
      <point x="215" y="101"/>
      <point x="189" y="132"/>
      <point x="198" y="186" type="curve"/>
      <point x="212" y="269" type="line" smooth="yes"/>
      <point x="219" y="312"/>
      <point x="243" y="347"/>
      <point x="259" y="366" type="curve"/>
      <point x="283" y="396"/>
      <point x="310" y="415"/>
      <point x="346" y="415" type="curve"/>
      <point x="396" y="415"/>
      <point x="413" y="377"/>
      <point x="414" y="328" type="curve"/>
      <point x="414" y="311"/>
      <point x="412" y="295"/>
      <point x="410" y="283" type="curve"/>
      <point x="400" y="223" type="line" smooth="yes"/>
      <point x="387" y="145"/>
      <point x="350" y="101"/>
    </contour>
  </outline>
</glyph>
<glyph name="uni0443" format="1">
  <advance width="600"/>
  <unicode hex="0443"/>
  <note>
    uni0443
  </note>
  <outline>
    <contour>
      <point x="217" y="-212" type="curve"/>
      <point x="370" y="-212"/>
      <point x="466" y="-131"/>
      <point x="494" y="36" type="curve"/>
      <point x="574" y="516" type="line"/>
      <point x="428" y="516" type="line"/>
      <point x="386" y="264" type="line" smooth="yes"/>
      <point x="379" y="222"/>
      <point x="354" y="184"/>
      <point x="339" y="164" type="curve"/>
      <point x="316" y="134"/>
      <point x="292" y="117"/>
      <point x="258" y="117" type="curve"/>
      <point x="213" y="117"/>
      <point x="198" y="151"/>
      <point x="198" y="178" type="curve"/>
      <point x="198" y="203"/>
      <point x="202" y="223"/>
      <point x="205" y="241" type="curve"/>
      <point x="251" y="516" type="line"/>
      <point x="105" y="516" type="line"/>
      <point x="62" y="258" type="line" smooth="yes"/>
      <point x="54" y="210"/>
      <point x="51" y="183"/>
      <point x="51" y="154" type="curve"/>
      <point x="51" y="74"/>
      <point x="91" y="5"/>
      <point x="192" y="5" type="curve"/>
      <point x="274" y="5"/>
      <point x="321" y="56"/>
      <point x="360" y="140" type="curve"/>
      <point x="365" y="140" type="line"/>
      <point x="351" y="54" type="line" smooth="yes"/>
      <point x="331" y="-71"/>
      <point x="287" y="-99"/>
      <point x="213" y="-99" type="curve"/>
      <point x="167" y="-99"/>
      <point x="125" y="-85"/>
      <point x="93" y="-46" type="curve"/>
      <point x="6" y="-136" type="line"/>
      <point x="58" y="-197"/>
      <point x="121" y="-212"/>
    </contour>
  </outline>
</glyph>
<glyph name="uni044D" format="1">
  <advance width="600"/>
  <unicode hex="044D"/>
  <note>
    uni044D
  </note>
  <outline>
    <contour>
      <point x="388" y="307" type="curve"/>
      <point x="226" y="307" type="line"/>
      <point x="211" y="210" type="line"/>
      <point x="374" y="210" type="line"/>
      <point x="362" y="137"/>
      <point x="317" y="98"/>
      <point x="248" y="98" type="curve"/>
      <point x="200" y="98"/>
      <point x="171" y="120"/>
      <point x="155" y="166" type="curve"/>
      <point x="41" y="111" type="line"/>
      <point x="67" y="37"/>
      <point x="126" y="-12"/>
      <point x="248" y="-12" type="curve"/>
      <point x="432" y="-12"/>
      <point x="534" y="134"/>
      <point x="534" y="310" type="curve"/>
      <point x="534" y="448"/>
      <point x="458" y="528"/>
      <point x="318" y="528" type="curve"/>
      <point x="208" y="528"/>
      <point x="145" y="488"/>
      <point x="81" y="402" type="curve"/>
      <point x="172" y="344" type="line"/>
      <point x="216" y="398"/>
      <point x="244" y="418"/>
      <point x="294" y="418" type="curve"/>
      <point x="363" y="418"/>
      <point x="389" y="380"/>
      <point x="389" y="325" type="curve"/>
      <point x="389" y="319"/>
      <point x="389" y="313"/>
    </contour>
  </outline>
</glyph>
<glyph name="uni0451" format="1">
  <advance width="600"/>
  <unicode hex="0451"/>
  <note>
    uni0451
  </note>
  <outline>
    <contour>
      <point x="251" y="592" type="curve"/>
      <point x="309" y="592"/>
      <point x="330" y="616"/>
      <point x="336" y="652" type="curve"/>
      <point x="339" y="670"/>
      <point x="341" y="681"/>
      <point x="341" y="687" type="curve"/>
      <point x="341" y="718"/>
      <point x="321" y="741"/>
      <point x="267" y="741" type="curve"/>
      <point x="209" y="741"/>
      <point x="188" y="717"/>
      <point x="182" y="681" type="curve"/>
      <point x="179" y="663"/>
      <point x="177" y="652"/>
      <point x="177" y="646" type="curve"/>
      <point x="177" y="615"/>
      <point x="197" y="592"/>
    </contour>
    <contour>
      <point x="469" y="592" type="curve"/>
      <point x="527" y="592"/>
      <point x="548" y="616"/>
      <point x="554" y="652" type="curve"/>
      <point x="557" y="670"/>
      <point x="559" y="681"/>
      <point x="559" y="687" type="curve"/>
      <point x="559" y="718"/>
      <point x="539" y="741"/>
      <point x="485" y="741" type="curve"/>
      <point x="427" y="741"/>
      <point x="406" y="717"/>
      <point x="400" y="681" type="curve"/>
      <point x="397" y="663"/>
      <point x="395" y="652"/>
      <point x="395" y="646" type="curve"/>
      <point x="395" y="615"/>
      <point x="415" y="592"/>
    </contour>
    <contour>
      <point x="281" y="-12" type="curve"/>
      <point x="413" y="-12"/>
      <point x="479" y="52"/>
      <point x="533" y="129" type="curve"/>
      <point x="442" y="188" type="line"/>
      <point x="389" y="120"/>
      <point x="357" y="100"/>
      <point x="300" y="100" type="curve"/>
      <point x="230" y="100"/>
      <point x="201" y="131"/>
      <point x="201" y="186" type="curve"/>
      <point x="201" y="191"/>
      <point x="201" y="195"/>
      <point x="202" y="203" type="curve"/>
      <point x="496" y="214"/>
      <point x="550" y="303"/>
      <point x="550" y="386" type="curve"/>
      <point x="550" y="481"/>
      <point x="464" y="528"/>
      <point x="360" y="528" type="curve"/>
      <point x="177" y="528"/>
      <point x="56" y="400"/>
      <point x="56" y="208" type="curve"/>
      <point x="56" y="71"/>
      <point x="129" y="-12"/>
    </contour>
    <contour>
      <point x="345" y="425" type="curve"/>
      <point x="389" y="425"/>
      <point x="409" y="406"/>
      <point x="409" y="373" type="curve"/>
      <point x="409" y="340"/>
      <point x="397" y="297"/>
      <point x="212" y="287" type="curve"/>
      <point x="215" y="301" type="line" smooth="yes"/>
      <point x="234" y="390"/>
      <point x="282" y="425"/>
    </contour>
  </outline>
</glyph>
<glyph name="uni0453" format="1">
  <advance width="600"/>
  <unicode hex="0453"/>
  <note>
    uni0453
  </note>
  <outline>
    <contour>
      <point x="275" y="616" type="line"/>
      <point x="361" y="570" type="line"/>
      <point x="504" y="746" type="line"/>
      <point x="390" y="806" type="line"/>
    </contour>
    <contour>
      <point x="252" y="-12" type="curve"/>
      <point x="360" y="-12"/>
      <point x="440" y="24"/>
      <point x="496" y="75" type="curve"/>
      <point x="421" y="152" type="line"/>
      <point x="385" y="118"/>
      <point x="325" y="97"/>
      <point x="270" y="97" type="curve"/>
      <point x="210" y="97"/>
      <point x="189" y="111"/>
      <point x="189" y="140" type="curve"/>
      <point x="189" y="168"/>
      <point x="204" y="187"/>
      <point x="276" y="199" type="curve"/>
      <point x="352" y="212" type="line" smooth="yes"/>
      <point x="480" y="234"/>
      <point x="534" y="301"/>
      <point x="534" y="384" type="curve"/>
      <point x="534" y="476"/>
      <point x="463" y="528"/>
      <point x="343" y="528" type="curve"/>
      <point x="237" y="528"/>
      <point x="166" y="491"/>
      <point x="109" y="441" type="curve"/>
      <point x="184" y="364" type="line"/>
      <point x="218" y="394"/>
      <point x="265" y="419"/>
      <point x="325" y="419" type="curve"/>
      <point x="367" y="419"/>
      <point x="390" y="406"/>
      <point x="390" y="378" type="curve"/>
      <point x="390" y="350"/>
      <point x="371" y="333"/>
      <point x="303" y="321" type="curve"/>
      <point x="227" y="308" type="line" smooth="yes"/>
      <point x="99" y="287"/>
      <point x="45" y="219"/>
      <point x="45" y="134" type="curve"/>
      <point x="45" y="40"/>
      <point x="116" y="-12"/>
    </contour>
  </outline>
</glyph>
<glyph name="uni045C" format="1">
  <advance width="600"/>
  <unicode hex="045C"/>
  <note>
    uni045C
  </note>
  <outline>
    <contour>
      <point x="267" y="616" type="line"/>
      <point x="353" y="570" type="line"/>
      <point x="496" y="746" type="line"/>
      <point x="382" y="806" type="line"/>
    </contour>
    <contour>
      <point x="262" y="516" type="line"/>
      <point x="116" y="516" type="line"/>
      <point x="30" y="0" type="line"/>
      <point x="176" y="0" type="line"/>
      <point x="210" y="206" type="line"/>
      <point x="281" y="206" type="line"/>
      <point x="329" y="79" type="line" smooth="yes"/>
      <point x="350" y="23"/>
      <point x="385" y="0"/>
      <point x="445" y="0" type="curve"/>
      <point x="504" y="0" type="line"/>
      <point x="523" y="114" type="line"/>
      <point x="468" y="114" type="line"/>
      <point x="441" y="186" type="line" smooth="yes"/>
      <point x="422" y="237"/>
      <point x="403" y="254"/>
      <point x="371" y="262" type="curve"/>
      <point x="372" y="269" type="line"/>
      <point x="414" y="277"/>
      <point x="437" y="294"/>
      <point x="466" y="338" type="curve"/>
      <point x="581" y="516" type="line"/>
      <point x="428" y="516" type="line"/>
      <point x="298" y="315" type="line"/>
      <point x="229" y="315" type="line"/>
    </contour>
  </outline>
</glyph>
<glyph name="uni0490" format="1">
  <advance width="600"/>
  <unicode hex="0490"/>
  <note>
    uni0490
  </note>
  <outline>
    <contour>
      <point x="469" y="698" type="line"/>
      <point x="182" y="698" type="line"/>
      <point x="66" y="0" type="line"/>
      <point x="214" y="0" type="line"/>
      <point x="309" y="576" type="line"/>
      <point x="581" y="576" type="line"/>
      <point x="627" y="848" type="line"/>
      <point x="494" y="848" type="line"/>
    </contour>
  </outline>
</glyph>
<glyph name="uni0491" format="1">
  <advance width="600"/>
  <unicode hex="0491"/>
  <note>
    uni0491
  </note>
  <outline>
    <contour>
      <point x="420" y="516" type="line"/>
      <point x="163" y="516" type="line"/>
      <point x="77" y="0" type="line"/>
      <point x="223" y="0" type="line"/>
      <point x="291" y="405" type="line"/>
      <point x="530" y="405" type="line"/>
      <point x="573" y="659" type="line"/>
      <point x="444" y="659" type="line"/>
    </contour>
  </outline>
</glyph>
<glyph name="uni0492" format="1">
  <advance width="600"/>
  <unicode hex="0492"/>
  <note>
    uni0492
  </note>
  <outline>
    <contour>
      <point x="147" y="396" type="line"/>
      <point x="65" y="396" type="line"/>
      <point x="46" y="284" type="line"/>
      <point x="129" y="284" type="line"/>
      <point x="82" y="0" type="line"/>
      <point x="230" y="0" type="line"/>
      <point x="277" y="284" type="line"/>
      <point x="444" y="284" type="line"/>
      <point x="463" y="396" type="line"/>
      <point x="295" y="396" type="line"/>
      <point x="325" y="576" type="line"/>
      <point x="597" y="576" type="line"/>
      <point x="618" y="698" type="line"/>
      <point x="198" y="698" type="line"/>
    </contour>
  </outline>
</glyph>
<glyph name="uni04A0" format="1">
  <advance width="600"/>
  <unicode hex="04A0"/>
  <note>
    uni04A0
  </note>
  <outline>
    <contour>
      <point x="57" y="575" type="line"/>
      <point x="172" y="575" type="line"/>
      <point x="76" y="0" type="line"/>
      <point x="225" y="0" type="line"/>
      <point x="274" y="294" type="line"/>
      <point x="343" y="294" type="line"/>
      <point x="372" y="117" type="line" smooth="yes"/>
      <point x="387" y="26"/>
      <point x="424" y="0"/>
      <point x="489" y="0" type="curve"/>
      <point x="555" y="0" type="line"/>
      <point x="575" y="122" type="line"/>
      <point x="519" y="122" type="line"/>
      <point x="494" y="274" type="line" smooth="yes"/>
      <point x="486" y="324"/>
      <point x="468" y="347"/>
      <point x="433" y="357" type="curve"/>
      <point x="434" y="363" type="line"/>
      <point x="472" y="369"/>
      <point x="503" y="391"/>
      <point x="527" y="439" type="curve"/>
      <point x="657" y="698" type="line"/>
      <point x="507" y="698" type="line"/>
      <point x="364" y="413" type="line"/>
      <point x="294" y="413" type="line"/>
      <point x="341" y="698" type="line"/>
      <point x="77" y="698" type="line"/>
    </contour>
  </outline>
</glyph>
<glyph name="uni04A2" format="1">
  <advance width="600"/>
  <unicode hex="04A2"/>
  <note>
    uni04A2
  </note>
  <outline>
    <contour>
      <point x="315" y="0" type="line"/>
      <point x="408" y="0" type="line"/>
      <point x="383" y="-150" type="line"/>
      <point x="516" y="-150" type="line"/>
      <point x="561" y="122" type="line"/>
      <point x="483" y="122" type="line"/>
      <point x="579" y="698" type="line"/>
      <point x="431" y="698" type="line"/>
      <point x="384" y="414" type="line"/>
      <point x="226" y="414" type="line"/>
      <point x="273" y="698" type="line"/>
      <point x="125" y="698" type="line"/>
      <point x="9" y="0" type="line"/>
      <point x="157" y="0" type="line"/>
      <point x="206" y="293" type="line"/>
      <point x="364" y="293" type="line"/>
    </contour>
  </outline>
</glyph>
<glyph name="uni04A4" format="1">
  <advance width="600"/>
  <unicode hex="04A4"/>
  <note>
    uni04A4
  </note>
  <outline>
    <contour>
      <point x="240" y="698" type="line"/>
      <point x="102" y="698" type="line"/>
      <point x="-14" y="0" type="line"/>
      <point x="124" y="0" type="line"/>
      <point x="173" y="297" type="line"/>
      <point x="297" y="297" type="line"/>
      <point x="248" y="0" type="line"/>
      <point x="386" y="0" type="line"/>
      <point x="483" y="584" type="line"/>
      <point x="635" y="584" type="line"/>
      <point x="654" y="698" type="line"/>
      <point x="364" y="698" type="line"/>
      <point x="316" y="411" type="line"/>
      <point x="192" y="411" type="line"/>
    </contour>
  </outline>
</glyph>
<glyph name="uni04A5" format="1">
  <advance width="600"/>
  <unicode hex="04A5"/>
  <note>
    uni04A5
  </note>
  <outline>
    <contour>
      <point x="206" y="516" type="line"/>
      <point x="74" y="516" type="line"/>
      <point x="-12" y="0" type="line"/>
      <point x="120" y="0" type="line"/>
      <point x="155" y="208" type="line"/>
      <point x="267" y="208" type="line"/>
      <point x="232" y="0" type="line"/>
      <point x="364" y="0" type="line"/>
      <point x="433" y="410" type="line"/>
      <point x="599" y="410" type="line"/>
      <point x="617" y="516" type="line"/>
      <point x="318" y="516" type="line"/>
      <point x="285" y="314" type="line"/>
      <point x="173" y="314" type="line"/>
    </contour>
  </outline>
</glyph>
<glyph name="uni04AB" format="1">
  <advance width="600"/>
  <unicode hex="04AB"/>
  <note>
    uni04AB
  </note>
  <outline>
    <contour>
      <point x="211" y="-6" type="curve"/>
      <point x="189" y="-140" type="line"/>
      <point x="318" y="-140" type="line"/>
      <point x="340" y="-5" type="line"/>
      <point x="423" y="13"/>
      <point x="478" y="69"/>
      <point x="533" y="156" type="curve"/>
      <point x="442" y="215" type="line"/>
      <point x="369" y="119"/>
      <point x="339" y="105"/>
      <point x="297" y="105" type="curve"/>
      <point x="231" y="105"/>
      <point x="206" y="141"/>
      <point x="206" y="194" type="curve"/>
      <point x="206" y="210"/>
      <point x="208" y="229"/>
      <point x="210" y="241" type="curve"/>
      <point x="220" y="301" type="line" smooth="yes"/>
      <point x="232" y="373"/>
      <point x="274" y="411"/>
      <point x="331" y="411" type="curve"/>
      <point x="389" y="411"/>
      <point x="410" y="384"/>
      <point x="424" y="341" type="curve"/>
      <point x="543" y="397" type="line"/>
      <point x="521" y="475"/>
      <point x="461" y="528"/>
      <point x="343" y="528" type="curve"/>
      <point x="159" y="528"/>
      <point x="57" y="382"/>
      <point x="57" y="206" type="curve"/>
      <point x="57" y="90"/>
      <point x="111" y="15"/>
    </contour>
  </outline>
</glyph>
<glyph name="uni04AE" format="1">
  <advance width="600"/>
  <unicode hex="04AE"/>
  <note>
    uni04AE
  </note>
  <outline>
    <contour>
      <point x="225" y="246" type="line"/>
      <point x="184" y="0" type="line"/>
      <point x="332" y="0" type="line"/>
      <point x="373" y="249" type="line"/>
      <point x="668" y="698" type="line"/>
      <point x="503" y="698" type="line"/>
      <point x="403" y="534" type="line"/>
      <point x="325" y="397" type="line"/>
      <point x="316" y="397" type="line"/>
      <point x="285" y="534" type="line"/>
      <point x="236" y="698" type="line"/>
      <point x="78" y="698" type="line"/>
    </contour>
  </outline>
</glyph>
<glyph name="uni04AF" format="1">
  <advance width="600"/>
  <unicode hex="04AF"/>
  <note>
    uni04AF
  </note>
  <outline>
    <contour>
      <point x="76" y="516" type="line"/>
      <point x="183" y="0" type="line"/>
      <point x="149" y="-200" type="line"/>
      <point x="295" y="-200" type="line"/>
      <point x="329" y="0" type="line"/>
      <point x="608" y="516" type="line"/>
      <point x="460" y="516" type="line"/>
      <point x="363" y="319" type="line"/>
      <point x="287" y="151" type="line"/>
      <point x="279" y="151" type="line"/>
      <point x="258" y="319" type="line"/>
      <point x="228" y="516" type="line"/>
    </contour>
  </outline>
</glyph>
<glyph name="uni04B0" format="1">
  <advance width="600"/>
  <unicode hex="04B0"/>
  <note>
    uni04B0
  </note>
  <outline>
    <contour>
      <point x="225" y="248" type="line"/>
      <point x="100" y="248" type="line"/>
      <point x="81" y="136" type="line"/>
      <point x="206" y="136" type="line"/>
      <point x="184" y="0" type="line"/>
      <point x="332" y="0" type="line"/>
      <point x="354" y="136" type="line"/>
      <point x="479" y="136" type="line"/>
      <point x="498" y="248" type="line"/>
      <point x="373" y="248" type="line"/>
      <point x="668" y="698" type="line"/>
      <point x="503" y="698" type="line"/>
      <point x="403" y="534" type="line"/>
      <point x="325" y="397" type="line"/>
      <point x="316" y="397" type="line"/>
      <point x="285" y="534" type="line"/>
      <point x="236" y="698" type="line"/>
      <point x="78" y="698" type="line"/>
    </contour>
  </outline>
</glyph>
